STARTFONT 2.1
COMMENT
COMMENT Converted from OpenType font "Q:\font stuff\winfont\FreeSans.ttf" by "otf2bdf 3.0".
COMMENT
FONT -FreeType-FreeSans-Medium-R-Normal--52-520-72-72-P-287-ISO10646-1
SIZE 52 72 72
FONTBOUNDINGBOX 158 72 -60 -17
STARTPROPERTIES 19
FOUNDRY "FreeType"
FAMILY_NAME "FreeSans"
WEIGHT_NAME "Medium"
SLANT "R"
SETWIDTH_NAME "Normal"
ADD_STYLE_NAME ""
PIXEL_SIZE 52
POINT_SIZE 520
RESOLUTION_X 72
RESOLUTION_Y 72
SPACING "P"
AVERAGE_WIDTH 287
CHARSET_REGISTRY "ISO10646"
CHARSET_ENCODING "1"
FONT_ASCENT 46
FONT_DESCENT 10
COPYRIGHT "Copyright 2002, 2003, 2005, 2008, 2009, 2010, 2012 GNU Freefont contributors."
_OTF_FONTFILE "Q:\font stuff\winfont\FreeSans.ttf"
_OTF_PSNAME "FreeSans"
DEFAULT_CHAR 9633
ENDPROPERTIES
CHARS 4472
STARTCHAR 0020
ENCODING 32
SWIDTH 250 0
DWIDTH 13 0
BBX 0 0 0 0
BITMAP
ENDCHAR
STARTCHAR 0021
ENCODING 33
SWIDTH 326 0
DWIDTH 17 0
BBX 5 38 7 0
BITMAP
F8
F8
F8
F8
F8
F8
F8
F8
F8
F8
F8
F8
F8
F8
F8
F8
F8
F8
F8
F8
F8
F8
78
70
70
70
70
70
70
70
00
00
00
F8
F8
F8
F8
F8
ENDCHAR
STARTCHAR 0022
ENCODING 34
SWIDTH 326 0
DWIDTH 17 0
BBX 13 13 2 23
BITMAP
F8F8
F8F8
F8F8
F8F8
F8F8
F8F8
F8F8
F8F8
7878
7878
7070
3030
3030
ENDCHAR
STARTCHAR 0023
ENCODING 35
SWIDTH 557 0
DWIDTH 29 0
BBX 27 37 1 -1
BITMAP
003C0F00
003C0F00
00780F00
00780F00
00781E00
00781E00
00781E00
00F01E00
00F01E00
3FFFFFE0
3FFFFFE0
3FFFFFE0
3FFFFFE0
01E03C00
01E03C00
01E07800
01E07800
01E07800
03C07800
03C07800
03C0F000
03C0F000
FFFFFFC0
FFFFFFC0
FFFFFFC0
FFFFFFC0
0781E000
0781E000
0781E000
0F01E000
0F01E000
0F03C000
0F03C000
0F03C000
1E03C000
1E03C000
1E038000
ENDCHAR
STARTCHAR 0024
ENCODING 36
SWIDTH 557 0
DWIDTH 29 0
BBX 27 45 1 -5
BITMAP
000E0000
000E0000
007FC000
01FFF000
07FFF800
0FFFFE00
1FCE7E00
3F0E1F00
3C0E0F00
7C0E0F80
780E0780
780E0780
780E0780
780E0000
780E0000
7C0E0000
7E0E0000
3F0E0000
1FCE0000
0FFF0000
07FFE000
01FFFC00
003FFF00
000FFF80
000E3FC0
000E0FC0
000E07E0
000E03E0
000E03E0
F00E03E0
F00E03E0
F00E03E0
F80E03E0
780E07C0
7C0E0FC0
7E0E1FC0
3F8E7F80
1FFFFF00
0FFFFE00
03FFF800
007FC000
000E0000
000E0000
000E0000
000E0000
ENDCHAR
STARTCHAR 0025
ENCODING 37
SWIDTH 884 0
DWIDTH 46 0
BBX 42 37 2 -2
BITMAP
000000078000
03E0000F0000
0FF8000E0000
1FFC001E0000
3FFE001C0000
7C1F003C0000
780F00380000
F00780780000
E00380700000
E00380F00000
E00380E00000
E00381E00000
F00783C00000
780F03C00000
7C1F07800000
3FFE07000000
1FFE0F000000
0FF80E000000
03F01E000000
00001C000000
00003C01F000
00003807FC00
0000780FFF00
0000701FFF00
0000F03E0F80
0001E0380380
0001E07803C0
0003C07001C0
0003807001C0
0007807001C0
0007007803C0
000F00380380
000E003E0F80
001E001FFF00
001C000FFF00
003C0007FC00
00380001F000
ENDCHAR
STARTCHAR 0026
ENCODING 38
SWIDTH 673 0
DWIDTH 35 0
BBX 30 37 3 -1
BITMAP
001F0000
007FC000
00FFE000
01FFF000
03F1F000
03E0F800
07C07800
07C07800
07C07800
07C07800
07C0F800
03E0F000
01F1F000
01F3E000
00FFC000
007F8000
003E0000
00FE0000
03FF0000
0FEF81E0
1F8781E0
3F07C1E0
7E03E3E0
7C01F3C0
F801F7C0
F800FFC0
F8007F80
F8003F80
F8003F00
FC003F80
FC007FC0
7E00FFE0
7F83F3F0
3FFFE3F0
1FFFC1F8
0FFF00FC
01FC0000
ENDCHAR
STARTCHAR 0027
ENCODING 39
SWIDTH 192 0
DWIDTH 10 0
BBX 5 13 3 23
BITMAP
F8
F8
F8
F8
F8
F8
F8
F8
78
78
70
30
30
ENDCHAR
STARTCHAR 0028
ENCODING 40
SWIDTH 326 0
DWIDTH 17 0
BBX 11 49 4 -11
BITMAP
00E0
01C0
03C0
0380
0780
0700
0F00
0E00
1E00
1E00
1C00
3C00
3C00
3800
7800
7800
7800
7800
F000
F000
F000
F000
F000
F000
F000
F000
F000
F000
F000
F000
7000
7800
7800
7800
7800
3800
3C00
3C00
1C00
1E00
1E00
0E00
0F00
0700
0780
0380
01C0
01C0
00E0
ENDCHAR
STARTCHAR 0029
ENCODING 41
SWIDTH 326 0
DWIDTH 17 0
BBX 11 49 2 -11
BITMAP
E000
7000
7000
3800
3C00
1C00
1E00
0E00
0F00
0F00
0700
0780
0780
0380
03C0
03C0
03C0
03C0
01C0
01E0
01E0
01E0
01E0
01E0
01E0
01E0
01E0
01E0
01E0
01E0
01C0
03C0
03C0
03C0
03C0
0380
0780
0780
0700
0F00
0F00
0E00
1E00
1C00
3C00
3800
7000
7000
E000
ENDCHAR
STARTCHAR 002A
ENCODING 42
SWIDTH 384 0
DWIDTH 20 0
BBX 15 15 3 23
BITMAP
0380
0380
0380
0380
C386
FBBE
FFFE
3FF8
07C0
0FE0
0EE0
1EF0
3C78
3838
1010
ENDCHAR
STARTCHAR 002B
ENCODING 43
SWIDTH 576 0
DWIDTH 30 0
BBX 25 25 2 -1
BITMAP
001C0000
001C0000
001C0000
001C0000
001C0000
001C0000
001C0000
001C0000
001C0000
001C0000
FFFFFF80
FFFFFF80
FFFFFF80
FFFFFF80
001C0000
001C0000
001C0000
001C0000
001C0000
001C0000
001C0000
001C0000
001C0000
001C0000
001C0000
ENDCHAR
STARTCHAR 002C
ENCODING 44
SWIDTH 269 0
DWIDTH 14 0
BBX 5 13 5 -8
BITMAP
F8
F8
F8
F8
F8
18
18
18
18
38
30
F0
C0
ENDCHAR
STARTCHAR 002D
ENCODING 45
SWIDTH 326 0
DWIDTH 17 0
BBX 12 4 2 12
BITMAP
FFF0
FFF0
FFF0
FFF0
ENDCHAR
STARTCHAR 002E
ENCODING 46
SWIDTH 250 0
DWIDTH 13 0
BBX 5 5 4 0
BITMAP
F8
F8
F8
F8
F8
ENDCHAR
STARTCHAR 002F
ENCODING 47
SWIDTH 269 0
DWIDTH 14 0
BBX 15 39 0 -1
BITMAP
000E
000E
001C
001C
001C
0038
0038
0038
0030
0070
0070
0060
00E0
00E0
00C0
01C0
01C0
01C0
0380
0380
0380
0700
0700
0700
0600
0E00
0E00
0C00
1C00
1C00
1800
3800
3800
3800
7000
7000
7000
E000
E000
ENDCHAR
STARTCHAR 0030
ENCODING 48
SWIDTH 557 0
DWIDTH 29 0
BBX 25 37 2 -1
BITMAP
007F0000
01FFE000
07FFF000
0FFFF800
1FC1FC00
1F007C00
3F007E00
3E003E00
7C001F00
7C001F00
7C001F00
7C001F00
F8000F80
F8000F80
F8000F80
F8000F80
F8000F80
F8000F80
F8000F80
F8000F80
F8000F80
F8000F80
F8000F80
F8000F80
F8000F80
7C001F00
7C001F00
7C001F00
7C001F00
3E003E00
3E007E00
1F007C00
1FC1FC00
0FFFF800
07FFF000
03FFC000
007F0000
ENDCHAR
STARTCHAR 0031
ENCODING 49
SWIDTH 557 0
DWIDTH 29 0
BBX 12 36 6 0
BITMAP
0070
0070
00F0
00F0
01F0
03F0
1FF0
FFF0
FFF0
FFF0
01F0
01F0
01F0
01F0
01F0
01F0
01F0
01F0
01F0
01F0
01F0
01F0
01F0
01F0
01F0
01F0
01F0
01F0
01F0
01F0
01F0
01F0
01F0
01F0
01F0
01F0
ENDCHAR
STARTCHAR 0032
ENCODING 50
SWIDTH 557 0
DWIDTH 29 0
BBX 24 36 3 0
BITMAP
00FF00
07FFE0
0FFFF0
1FFFF8
3F81FC
7F00FE
7E007E
7C003F
FC001F
F8001F
F8001F
F8001F
00001F
00003F
00003F
00007E
0000FC
0001FC
0007F8
000FF0
003FC0
00FF80
01FE00
03F800
0FE000
1F8000
1F0000
3E0000
7C0000
7C0000
780000
780000
FFFFFF
FFFFFF
FFFFFF
FFFFFF
ENDCHAR
STARTCHAR 0033
ENCODING 51
SWIDTH 557 0
DWIDTH 29 0
BBX 26 37 1 -1
BITMAP
007F8000
03FFF000
0FFFFC00
1FFFFE00
1FC0FF00
3F003F00
3E001F80
7E000F80
7C000F80
7C000F80
7C000F80
00000F80
00001F00
00003F00
0000FE00
001FFC00
001FF000
001FF800
001FFE00
00007F00
00001F80
00000F80
00000FC0
000007C0
000007C0
000007C0
F80007C0
F80007C0
F80007C0
7C000F80
7E001F80
7F003F80
3FC0FF00
1FFFFE00
0FFFFC00
03FFF000
00FF8000
ENDCHAR
STARTCHAR 0034
ENCODING 52
SWIDTH 557 0
DWIDTH 29 0
BBX 25 36 2 0
BITMAP
0000F000
0001F000
0003F000
0003F000
0007F000
000FF000
000FF000
001FF000
003DF000
007DF000
0079F000
00F1F000
01E1F000
03E1F000
03C1F000
0781F000
0F01F000
0F01F000
1E01F000
3C01F000
7801F000
7801F000
F001F000
FFFFFF80
FFFFFF80
FFFFFF80
FFFFFF80
0001F000
0001F000
0001F000
0001F000
0001F000
0001F000
0001F000
0001F000
0001F000
ENDCHAR
STARTCHAR 0035
ENCODING 53
SWIDTH 557 0
DWIDTH 29 0
BBX 25 37 2 -1
BITMAP
0FFFFE00
0FFFFE00
0FFFFE00
1FFFFE00
1E000000
1E000000
1E000000
1E000000
1E000000
3C000000
3C000000
3C000000
3C7F8000
3DFFE000
3FFFF800
3FFFFC00
7F81FE00
7E007E00
7C003F00
00001F00
00001F80
00000F80
00000F80
00000F80
00000F80
00000F80
00000F80
F8000F80
F8001F00
FC001F00
7E003F00
7F007E00
3F81FC00
1FFFF800
0FFFF000
07FFE000
00FF0000
ENDCHAR
STARTCHAR 0036
ENCODING 54
SWIDTH 557 0
DWIDTH 29 0
BBX 25 37 2 -1
BITMAP
003F8000
01FFE000
03FFF800
07FFFC00
0FC0FC00
1F807E00
3F003E00
3E001F00
3C001F00
7C000000
7C000000
78000000
78000000
F83F8000
F8FFE000
FBFFF800
FFFFFC00
FFC0FE00
FF007E00
FE003F00
FC001F00
FC001F80
F8000F80
F8000F80
F8000F80
F8000F80
78000F80
78000F80
7C001F00
3C001F00
3E003F00
3F007E00
1FC1FC00
0FFFF800
07FFF000
03FFE000
007F0000
ENDCHAR
STARTCHAR 0037
ENCODING 55
SWIDTH 557 0
DWIDTH 29 0
BBX 24 36 2 0
BITMAP
FFFFFF
FFFFFF
FFFFFF
FFFFFF
00001E
00003E
00003C
000078
0000F8
0000F0
0001E0
0001E0
0003C0
0007C0
000780
000F80
000F00
001F00
001E00
003E00
003C00
007C00
007C00
007800
00F800
00F800
00F000
01F000
01F000
01E000
03E000
03E000
03E000
03C000
07C000
07C000
ENDCHAR
STARTCHAR 0038
ENCODING 56
SWIDTH 557 0
DWIDTH 29 0
BBX 25 37 2 -1
BITMAP
007F0000
03FFE000
0FFFF800
1FFFFC00
1FC1FC00
3F007E00
7E003E00
7C001F00
7C001F00
7C001F00
7C001F00
7C001F00
3E003E00
3F007E00
1FC1FC00
0FFFF800
03FFE000
07FFF000
0FFFF800
1F80FC00
3F007E00
7E003F00
7C001F00
F8000F80
F8000F80
F8000F80
F8000F80
F8000F80
F8000F80
7C001F00
7E003F00
7F007F00
3F80FE00
1FFFFC00
0FFFF800
03FFE000
00FF8000
ENDCHAR
STARTCHAR 0039
ENCODING 57
SWIDTH 557 0
DWIDTH 29 0
BBX 24 37 2 -1
BITMAP
00FF00
03FFC0
0FFFE0
1FFFF0
3F83F8
3F00FC
7E007C
7C003C
7C003E
F8001E
F8001E
F8001E
F8001F
F8001F
F8001F
FC003F
7C003F
7E007F
3E00FF
3F81FF
1FFFFF
0FFFDF
03FF9F
00FC1F
00001E
00001E
00003E
00003E
7C003C
7C007C
7E007C
3E00F8
3F83F0
1FFFF0
0FFFE0
07FF80
00FE00
ENDCHAR
STARTCHAR 003A
ENCODING 58
SWIDTH 250 0
DWIDTH 13 0
BBX 5 27 4 0
BITMAP
F8
F8
F8
F8
F8
00
00
00
00
00
00
00
00
00
00
00
00
00
00
00
00
00
F8
F8
F8
F8
F8
ENDCHAR
STARTCHAR 003B
ENCODING 59
SWIDTH 250 0
DWIDTH 13 0
BBX 6 35 4 -8
BITMAP
F8
F8
F8
F8
F8
00
00
00
00
00
00
00
00
00
00
00
00
00
00
00
00
00
7C
7C
7C
7C
7C
0C
0C
0C
0C
1C
18
78
60
ENDCHAR
STARTCHAR 003C
ENCODING 60
SWIDTH 576 0
DWIDTH 30 0
BBX 26 25 2 1
BITMAP
000000C0
000003C0
00000FC0
00007FC0
0001FF80
000FFC00
003FF000
00FF8000
07FE0000
1FF00000
7FC00000
FE000000
FC000000
FF000000
7FC00000
1FF80000
03FE0000
00FFC000
003FF000
0007FC00
0001FF80
00007FC0
00000FC0
000003C0
00000040
ENDCHAR
STARTCHAR 003D
ENCODING 61
SWIDTH 576 0
DWIDTH 30 0
BBX 25 13 3 6
BITMAP
FFFFFF80
FFFFFF80
FFFFFF80
FFFFFF80
00000000
00000000
00000000
00000000
00000000
FFFFFF80
FFFFFF80
FFFFFF80
FFFFFF80
ENDCHAR
STARTCHAR 003E
ENCODING 62
SWIDTH 576 0
DWIDTH 30 0
BBX 25 25 3 1
BITMAP
80000000
E0000000
FC000000
FF000000
7FC00000
1FF80000
03FE0000
00FFC000
003FF000
0007FC00
0001FF80
00003F80
00000F80
00003F80
0001FF00
0007FC00
003FF000
00FF8000
07FE0000
1FF80000
7FC00000
FF000000
FC000000
E0000000
80000000
ENDCHAR
STARTCHAR 003F
ENCODING 63
SWIDTH 557 0
DWIDTH 29 0
BBX 23 39 4 0
BITMAP
01FE00
07FFC0
1FFFE0
3FFFF8
3F03F8
7E00FC
7C007C
FC007E
F8003E
F8003E
F8003E
F8003E
00007E
00007C
0000FC
0000F8
0001F8
0007F0
000FE0
001FC0
003F00
007E00
007C00
00FC00
00F800
00F800
00F800
00F800
00F800
000000
000000
000000
000000
000000
00F800
00F800
00F800
00F800
00F800
ENDCHAR
STARTCHAR 0040
ENCODING 64
SWIDTH 1019 0
DWIDTH 53 0
BBX 48 46 2 -7
BITMAP
000007FE0000
00007FFFC000
0001FFFFF000
0007FFFFFC00
001FF807FF00
003FC000FF80
007F00003FC0
00FC00000FE0
01F8000007F0
03F0000003F8
07E0000001F8
0FC0000000FC
0F8003F0007C
1F000FFC787E
1F003FFEF83E
3E007E1EF03E
3E00F807F03F
7C01F007F01F
7C03F003E01F
7C03E003E01F
7807C003E01F
F807C003C01F
F807C003C01F
F80F8003C01F
F80F8007C03E
F80F8007803E
F80F8007803E
F80F800F807C
F80F800F007C
FC0FC01F00F8
7C07C03F01F8
7C07E03F03F0
7E03F0FF87E0
3E01FFEFFFC0
3F00FFC7FF00
1F803F03FC00
0FC000000000
0FE000000000
07F000000000
03FC00000000
01FF00000000
007FE007C000
003FFFFFE000
000FFFFFE000
0001FFFFC000
00001FF80000
ENDCHAR
STARTCHAR 0041
ENCODING 65
SWIDTH 673 0
DWIDTH 35 0
BBX 33 38 1 0
BITMAP
0007F00000
0007F00000
000FF00000
000FF80000
000FF80000
001FF80000
001F7C0000
001F7C0000
003E7E0000
003E3E0000
003E3E0000
007C3F0000
007C1F0000
00FC1F0000
00F81F8000
00F80F8000
01F00F8000
01F00FC000
01F007C000
03E007C000
03E007E000
03E003E000
07C003E000
07FFFFF000
07FFFFF000
0FFFFFF000
0FFFFFF800
1F8000F800
1F0000FC00
1F0000FC00
3F00007C00
3E00007E00
3E00007E00
7E00003E00
7C00003F00
7C00001F00
F800001F00
F800001F80
ENDCHAR
STARTCHAR 0042
ENCODING 66
SWIDTH 673 0
DWIDTH 35 0
BBX 29 38 4 0
BITMAP
FFFFF000
FFFFFC00
FFFFFF00
FFFFFF80
F8003F80
F8000FC0
F80007C0
F80007E0
F80003E0
F80003E0
F80003E0
F80003E0
F80003E0
F80007C0
F80007C0
F8000F80
F8003F00
FFFFFE00
FFFFFC00
FFFFFF00
FFFFFFC0
F8000FE0
F80003F0
F80001F0
F80001F8
F80000F8
F80000F8
F80000F8
F80000F8
F80000F8
F80001F8
F80001F0
F80003F0
F8000FE0
FFFFFFC0
FFFFFF80
FFFFFF00
FFFFF800
ENDCHAR
STARTCHAR 0043
ENCODING 67
SWIDTH 711 0
DWIDTH 37 0
BBX 33 40 2 -1
BITMAP
0007FC0000
003FFF8000
00FFFFE000
01FFFFF000
03F807F800
07E001F800
0FC000FC00
1F80007E00
1F00003E00
3E00003E00
3E00001F00
7C00001F00
7C00000000
7C00000000
7C00000000
F800000000
F800000000
F800000000
F800000000
F800000000
F800000000
F800000000
F800000000
F800000000
F800000000
FC00000F80
7C00000F80
7C00001F80
7C00001F00
3E00001F00
3E00003F00
1F00003E00
1F80007E00
0FC000FC00
0FE001FC00
07FC07F800
03FFFFF000
00FFFFE000
003FFF8000
0007FC0000
ENDCHAR
STARTCHAR 0044
ENCODING 68
SWIDTH 692 0
DWIDTH 36 0
BBX 30 38 4 0
BITMAP
FFFFE000
FFFFFC00
FFFFFE00
FFFFFF00
F8007F80
F8000FC0
F80007E0
F80003F0
F80001F0
F80001F0
F80000F8
F80000F8
F80000F8
F80000FC
F800007C
F800007C
F800007C
F800007C
F800007C
F800007C
F800007C
F800007C
F800007C
F800007C
F80000FC
F80000F8
F80000F8
F80000F8
F80001F0
F80001F0
F80003F0
F80007E0
F8000FC0
F8007F80
FFFFFF00
FFFFFE00
FFFFFC00
FFFFE000
ENDCHAR
STARTCHAR 0045
ENCODING 69
SWIDTH 634 0
DWIDTH 33 0
BBX 27 38 4 0
BITMAP
FFFFFFC0
FFFFFFC0
FFFFFFC0
FFFFFFC0
F8000000
F8000000
F8000000
F8000000
F8000000
F8000000
F8000000
F8000000
F8000000
F8000000
F8000000
F8000000
F8000000
FFFFFF80
FFFFFF80
FFFFFF80
FFFFFF80
F8000000
F8000000
F8000000
F8000000
F8000000
F8000000
F8000000
F8000000
F8000000
F8000000
F8000000
F8000000
F8000000
FFFFFFE0
FFFFFFE0
FFFFFFE0
FFFFFFE0
ENDCHAR
STARTCHAR 0046
ENCODING 70
SWIDTH 596 0
DWIDTH 31 0
BBX 25 38 4 0
BITMAP
FFFFFF80
FFFFFF80
FFFFFF80
FFFFFF80
F8000000
F8000000
F8000000
F8000000
F8000000
F8000000
F8000000
F8000000
F8000000
F8000000
F8000000
F8000000
F8000000
FFFFFC00
FFFFFC00
FFFFFC00
FFFFFC00
F8000000
F8000000
F8000000
F8000000
F8000000
F8000000
F8000000
F8000000
F8000000
F8000000
F8000000
F8000000
F8000000
F8000000
F8000000
F8000000
F8000000
ENDCHAR
STARTCHAR 0047
ENCODING 71
SWIDTH 769 0
DWIDTH 40 0
BBX 35 40 2 -1
BITMAP
0003FE0000
001FFFC000
007FFFF000
01FFFFF800
03FE03FC00
07F000FE00
0FE0003F00
1F80001F00
1F80000F80
3F00000F80
3E000007C0
3E000007C0
7C00000000
7C00000000
7C00000000
F800000000
F800000000
F800000000
F800000000
F8000FFFE0
F8000FFFE0
F8000FFFE0
F8000FFFE0
F8000003E0
F8000003E0
FC000003E0
7C000003E0
7C000003E0
7E000007E0
3E000007E0
3F00000FE0
1F00000FE0
1F80001FE0
0FC0003FE0
07F000FFE0
03FE03F9E0
01FFFFF1E0
00FFFFC1E0
003FFF00E0
0007F80000
ENDCHAR
STARTCHAR 0048
ENCODING 72
SWIDTH 711 0
DWIDTH 37 0
BBX 29 38 4 0
BITMAP
F80000F8
F80000F8
F80000F8
F80000F8
F80000F8
F80000F8
F80000F8
F80000F8
F80000F8
F80000F8
F80000F8
F80000F8
F80000F8
F80000F8
F80000F8
F80000F8
F80000F8
FFFFFFF8
FFFFFFF8
FFFFFFF8
FFFFFFF8
F80000F8
F80000F8
F80000F8
F80000F8
F80000F8
F80000F8
F80000F8
F80000F8
F80000F8
F80000F8
F80000F8
F80000F8
F80000F8
F80000F8
F80000F8
F80000F8
F80000F8
ENDCHAR
STARTCHAR 0049
ENCODING 73
SWIDTH 269 0
DWIDTH 14 0
BBX 5 38 5 0
BITMAP
F8
F8
F8
F8
F8
F8
F8
F8
F8
F8
F8
F8
F8
F8
F8
F8
F8
F8
F8
F8
F8
F8
F8
F8
F8
F8
F8
F8
F8
F8
F8
F8
F8
F8
F8
F8
F8
F8
ENDCHAR
STARTCHAR 004A
ENCODING 74
SWIDTH 519 0
DWIDTH 27 0
BBX 21 39 2 -1
BITMAP
0000F8
0000F8
0000F8
0000F8
0000F8
0000F8
0000F8
0000F8
0000F8
0000F8
0000F8
0000F8
0000F8
0000F8
0000F8
0000F8
0000F8
0000F8
0000F8
0000F8
0000F8
0000F8
0000F8
0000F8
0000F8
0000F8
F800F8
F800F8
F800F8
F800F8
F800F8
F801F8
FC01F0
7E03F0
7F07E0
3FFFE0
1FFFC0
0FFF00
01FC00
ENDCHAR
STARTCHAR 004B
ENCODING 75
SWIDTH 673 0
DWIDTH 35 0
BBX 30 38 4 0
BITMAP
F80001FC
F80003F8
F80007F0
F8000FE0
F8001FC0
F8003F80
F8007F00
F800FE00
F800FC00
F801F800
F803F000
F807E000
F80FC000
F81F8000
F83F0000
F87E0000
F8FE0000
F9FF0000
FBFF8000
FFCF8000
FF87C000
FF07E000
FE03F000
FC01F000
F801F800
F800FC00
F8007C00
F8007E00
F8003F00
F8001F00
F8001F80
F8000FC0
F80007C0
F80007E0
F80003F0
F80001F8
F80000F8
F80000FC
ENDCHAR
STARTCHAR 004C
ENCODING 76
SWIDTH 557 0
DWIDTH 29 0
BBX 23 38 4 0
BITMAP
F80000
F80000
F80000
F80000
F80000
F80000
F80000
F80000
F80000
F80000
F80000
F80000
F80000
F80000
F80000
F80000
F80000
F80000
F80000
F80000
F80000
F80000
F80000
F80000
F80000
F80000
F80000
F80000
F80000
F80000
F80000
F80000
F80000
F80000
FFFFFE
FFFFFE
FFFFFE
FFFFFE
ENDCHAR
STARTCHAR 004D
ENCODING 77
SWIDTH 846 0
DWIDTH 44 0
BBX 36 38 4 0
BITMAP
FE000007F0
FF00000FF0
FF00000FF0
FF00000FF0
FF80001FF0
FF80001FF0
FF80001FF0
FFC0003FF0
FBC0003DF0
FBC0003DF0
FBE0007DF0
F9E00079F0
F9E00079F0
F9F000F9F0
F8F000F1F0
F8F000F1F0
F8F800F1F0
F87801E1F0
F87801E1F0
F87C01E1F0
F83C03C1F0
F83C03C1F0
F83E03C1F0
F81E0781F0
F81E0781F0
F81F0781F0
F80F0F01F0
F80F0F01F0
F80F8F01F0
F8079E01F0
F8079E01F0
F807DE01F0
F803FC01F0
F803FC01F0
F803FC01F0
F801F801F0
F801F801F0
F801F801F0
ENDCHAR
STARTCHAR 004E
ENCODING 78
SWIDTH 730 0
DWIDTH 38 0
BBX 30 38 4 0
BITMAP
FC00007C
FE00007C
FE00007C
FF00007C
FF00007C
FF80007C
FFC0007C
FFC0007C
FBE0007C
FBF0007C
F9F0007C
F8F8007C
F8F8007C
F87C007C
F83E007C
F83E007C
F81F007C
F81F807C
F80F807C
F807C07C
F807C07C
F803E07C
F801F07C
F801F07C
F800F87C
F800FC7C
F8007C7C
F8003E7C
F8003E7C
F8001F7C
F8001FFC
F8000FFC
F80007FC
F80007FC
F80003FC
F80001FC
F80001FC
F80000FC
ENDCHAR
STARTCHAR 004F
ENCODING 79
SWIDTH 788 0
DWIDTH 41 0
BBX 37 40 2 -1
BITMAP
0003FE0000
001FFFC000
007FFFF000
01FFFFFC00
03FE03FE00
07F0007F00
0FE0003F80
1FC0001F80
1F80000FC0
3F000007E0
3E000003E0
7E000003F0
7C000001F0
7C000001F0
7C000001F0
F8000000F8
F8000000F8
F8000000F8
F8000000F8
F8000000F8
F8000000F8
F8000000F8
F8000000F8
F8000000F8
F8000000F8
7C000001F0
7C000001F0
7C000001F0
7E000003F0
3E000003E0
3F000007E0
1F80000FC0
1FC0001F80
0FE0003F80
07F0007F00
03FE03FE00
01FFFFFC00
007FFFF000
001FFFC000
0003FE0000
ENDCHAR
STARTCHAR 0050
ENCODING 80
SWIDTH 653 0
DWIDTH 34 0
BBX 27 38 4 0
BITMAP
FFFFF000
FFFFFC00
FFFFFF00
FFFFFF80
F8003F80
F8000FC0
F80007C0
F80007E0
F80003E0
F80003E0
F80003E0
F80003E0
F80003E0
F80003E0
F80007E0
F80007C0
F8000FC0
F8003F80
FFFFFF80
FFFFFF00
FFFFFC00
FFFFF000
F8000000
F8000000
F8000000
F8000000
F8000000
F8000000
F8000000
F8000000
F8000000
F8000000
F8000000
F8000000
F8000000
F8000000
F8000000
F8000000
ENDCHAR
STARTCHAR 0051
ENCODING 81
SWIDTH 788 0
DWIDTH 41 0
BBX 37 42 2 -4
BITMAP
0003FE0000
001FFFC000
007FFFF000
01FFFFFC00
03FE03FE00
07F0007F00
0FE0003F80
1FC0001F80
1F80000FC0
3F000007E0
3E000003E0
7E000003F0
7C000001F0
7C000001F0
7C000001F0
F8000000F8
F8000000F8
F8000000F8
F8000000F8
F8000000F8
F8000000F8
F8000000F8
F8000000F8
F8000000F8
F8000000F8
7C000001F0
7C000001F0
7C000001F0
7E000103F0
3E000383E0
3F0007C7E0
1F8007EFC0
1F8003FFC0
0FE000FF80
07F0007F00
03FE03FF00
01FFFFFF80
007FFFFFE0
001FFFC3F0
0003FE01F0
00000000E0
0000000040
ENDCHAR
STARTCHAR 0052
ENCODING 82
SWIDTH 711 0
DWIDTH 37 0
BBX 30 38 4 0
BITMAP
FFFFFC00
FFFFFF00
FFFFFFC0
FFFFFFE0
F8000FF0
F80003F0
F80001F8
F80000F8
F80000F8
F80000F8
F80000F8
F80000F8
F80000F8
F80000F0
F80001F0
F80003E0
F8000FE0
FFFFFFC0
FFFFFF00
FFFFFF80
FFFFFFC0
F80007E0
F80003F0
F80001F0
F80001F8
F80000F8
F80000F8
F80000F8
F80000F8
F80000F8
F80000F8
F80000F8
F80000F8
F80000F8
F80000F8
F80000F8
F80000FC
F800007C
ENDCHAR
STARTCHAR 0053
ENCODING 83
SWIDTH 673 0
DWIDTH 35 0
BBX 29 40 3 -1
BITMAP
003FE000
01FFFC00
07FFFF00
0FFFFF80
1FE03FC0
3F800FE0
3F0007E0
3E0003E0
7C0001F0
7C0001F0
7C0001F0
7C000000
7C000000
7E000000
7E000000
3F800000
3FE00000
1FFE0000
0FFFE000
03FFFC00
00FFFF00
000FFFC0
0000FFE0
00001FF0
000007F0
000003F8
000001F8
F80000F8
F80000F8
F80000F8
FC0000F8
7C0000F8
7E0001F0
7E0003F0
3F8007E0
1FE01FE0
0FFFFFC0
07FFFF00
01FFFC00
003FE000
ENDCHAR
STARTCHAR 0054
ENCODING 84
SWIDTH 634 0
DWIDTH 33 0
BBX 29 38 2 0
BITMAP
FFFFFFF8
FFFFFFF8
FFFFFFF8
FFFFFFF8
000F8000
000F8000
000F8000
000F8000
000F8000
000F8000
000F8000
000F8000
000F8000
000F8000
000F8000
000F8000
000F8000
000F8000
000F8000
000F8000
000F8000
000F8000
000F8000
000F8000
000F8000
000F8000
000F8000
000F8000
000F8000
000F8000
000F8000
000F8000
000F8000
000F8000
000F8000
000F8000
000F8000
000F8000
ENDCHAR
STARTCHAR 0055
ENCODING 85
SWIDTH 711 0
DWIDTH 37 0
BBX 29 39 4 -1
BITMAP
F80000F8
F80000F8
F80000F8
F80000F8
F80000F8
F80000F8
F80000F8
F80000F8
F80000F8
F80000F8
F80000F8
F80000F8
F80000F8
F80000F8
F80000F8
F80000F8
F80000F8
F80000F8
F80000F8
F80000F8
F80000F8
F80000F8
F80000F8
F80000F8
F80000F8
F80000F8
F80000F8
F80000F8
F80000F8
F80000F8
7C0001F0
7C0001F0
7E0003F0
3F0007E0
1FE03FC0
0FFFFF80
07FFFF00
01FFFC00
003FE000
ENDCHAR
STARTCHAR 0056
ENCODING 86
SWIDTH 653 0
DWIDTH 34 0
BBX 32 38 1 0
BITMAP
F800003F
FC00003E
7C00003E
7C00007E
7E00007C
3E00007C
3E0000FC
3F0000F8
1F0000F8
1F0001F0
0F8001F0
0F8001F0
0F8001E0
07C003E0
07C003E0
07C003C0
03E007C0
03E007C0
03E00780
01F00F80
01F00F80
01F00F00
00F81F00
00F81F00
00781E00
007C3E00
007C3E00
003C3C00
003E7C00
003E7C00
001F7800
001FF800
001FF800
000FF000
000FF000
0007E000
0007E000
0007E000
ENDCHAR
STARTCHAR 0057
ENCODING 87
SWIDTH 942 0
DWIDTH 49 0
BBX 47 38 1 0
BITMAP
F80007C0007E
F8000FC0007E
FC000FE0007C
7C000FE0007C
7C001FE000FC
7C001FE000FC
7E001FF000F8
3E001FF000F8
3E003EF000F8
3E003CF801F8
3F003CF801F0
1F003C7801F0
1F007C7801F0
1F00787C03F0
1F00787C03E0
0F80F83C03E0
0F80F03E03E0
0F80F03E03E0
0F80F01E07C0
07C1F01E07C0
07C1E01F07C0
07C1E01F07C0
03C1E00F0F80
03E3E00F0F80
03E3C00F8F80
03E3C0078F80
01E7C0078F00
01E78007DF00
01F78007DF00
01F78003DE00
00FF8003DE00
00FF0003FE00
00FF0003FE00
00FF0001FC00
007F0001FC00
007E0001FC00
007E0000FC00
007E0000F800
ENDCHAR
STARTCHAR 0058
ENCODING 88
SWIDTH 653 0
DWIDTH 34 0
BBX 32 38 1 0
BITMAP
7E00003E
3E00007E
3F0000FC
1F8000F8
0F8001F8
0FC003F0
07E003E0
03E007E0
03F00FC0
01F80F80
00F81F80
00FC3F00
007E3E00
003E7C00
003FFC00
001FF800
000FF000
0007F000
0007E000
000FF000
000FF000
001FF800
003FFC00
003E7C00
007E3E00
00FC3F00
00F81F00
01F80F80
03F00FC0
03E007E0
07E003E0
0FC003F0
0F8001F8
1F8001F8
3F0000FC
7E00007E
7E00007E
FC00003F
ENDCHAR
STARTCHAR 0059
ENCODING 89
SWIDTH 673 0
DWIDTH 35 0
BBX 33 38 1 0
BITMAP
FC00001F80
FC00001F00
7E00003F00
3E00007E00
3F00007C00
1F8000FC00
0F8000F800
0FC001F800
07E003F000
07E003E000
03F007E000
01F007C000
01F80FC000
00FC0F8000
007C1F0000
007E3F0000
003E3E0000
003F7C0000
001FFC0000
000FF80000
000FF80000
0007F00000
0003E00000
0003E00000
0003E00000
0003E00000
0003E00000
0003E00000
0003E00000
0003E00000
0003E00000
0003E00000
0003E00000
0003E00000
0003E00000
0003E00000
0003E00000
0003E00000
ENDCHAR
STARTCHAR 005A
ENCODING 90
SWIDTH 615 0
DWIDTH 32 0
BBX 28 38 2 0
BITMAP
7FFFFFF0
7FFFFFF0
7FFFFFF0
7FFFFFF0
000003F0
000007E0
00000FE0
00000FC0
00001F80
00003F00
00007E00
00007E00
0000FC00
0001F800
0003F000
0003F000
0007E000
000FC000
001F8000
001F8000
003F0000
007E0000
00FC0000
00FC0000
01F80000
03F00000
07E00000
0FE00000
0FC00000
1F800000
3F000000
7F000000
7E000000
FC000000
FFFFFFF0
FFFFFFF0
FFFFFFF0
FFFFFFF0
ENDCHAR
STARTCHAR 005B
ENCODING 91
SWIDTH 269 0
DWIDTH 14 0
BBX 9 49 3 -11
BITMAP
FF80
FF80
FF80
FF80
F800
F800
F800
F800
F800
F800
F800
F800
F800
F800
F800
F800
F800
F800
F800
F800
F800
F800
F800
F800
F800
F800
F800
F800
F800
F800
F800
F800
F800
F800
F800
F800
F800
F800
F800
F800
F800
F800
F800
F800
F800
FF80
FF80
FF80
FF80
ENDCHAR
STARTCHAR 005C
ENCODING 92
SWIDTH 269 0
DWIDTH 14 0
BBX 15 39 0 -1
BITMAP
E000
E000
7000
7000
7000
3800
3800
3800
1800
1C00
1C00
0C00
0E00
0E00
0600
0700
0700
0700
0380
0380
0380
01C0
01C0
01C0
00C0
00E0
00E0
0060
0070
0070
0030
0038
0038
0038
001C
001C
001C
000E
000E
ENDCHAR
STARTCHAR 005D
ENCODING 93
SWIDTH 269 0
DWIDTH 14 0
BBX 9 49 1 -11
BITMAP
FF80
FF80
FF80
FF80
0F80
0F80
0F80
0F80
0F80
0F80
0F80
0F80
0F80
0F80
0F80
0F80
0F80
0F80
0F80
0F80
0F80
0F80
0F80
0F80
0F80
0F80
0F80
0F80
0F80
0F80
0F80
0F80
0F80
0F80
0F80
0F80
0F80
0F80
0F80
0F80
0F80
0F80
0F80
0F80
0F80
FF80
FF80
FF80
FF80
ENDCHAR
STARTCHAR 005E
ENCODING 94
SWIDTH 461 0
DWIDTH 24 0
BBX 20 20 2 16
BITMAP
00F000
00F800
01F800
01F800
03FC00
03DC00
039E00
078E00
070F00
0F0F00
0F0700
0E0780
1E0380
1C03C0
3C03C0
3C01C0
3801E0
7800E0
7000F0
F000F0
ENDCHAR
STARTCHAR 005F
ENCODING 95
SWIDTH 557 0
DWIDTH 29 0
BBX 31 3 -1 -9
BITMAP
FFFFFFFE
FFFFFFFE
FFFFFFFE
ENDCHAR
STARTCHAR 0060
ENCODING 96
SWIDTH 250 0
DWIDTH 13 0
BBX 11 8 1 31
BITMAP
FC00
7E00
3F00
1F00
0F80
0780
03C0
01E0
ENDCHAR
STARTCHAR 0061
ENCODING 97
SWIDTH 538 0
DWIDTH 28 0
BBX 26 29 2 -1
BITMAP
01FF8000
07FFF000
1FFFF800
3FFFFC00
3F81FC00
7E007E00
7C003E00
7C003E00
00003E00
00003E00
00003E00
0000FE00
001FFE00
03FFFE00
1FFFFE00
3FFE3E00
7F803E00
7E003E00
FC003E00
F8003E00
F8003E00
F8007E00
F800FE00
FC01FE00
7F0FFF00
7FFFBFC0
3FFF1FC0
1FFE1FC0
03F007C0
ENDCHAR
STARTCHAR 0062
ENCODING 98
SWIDTH 557 0
DWIDTH 29 0
BBX 25 39 3 -1
BITMAP
F8000000
F8000000
F8000000
F8000000
F8000000
F8000000
F8000000
F8000000
F8000000
F8000000
F83F8000
F8FFE000
F9FFF000
FBFFFC00
FFC1FC00
FF007E00
FE003E00
FE003F00
FC001F00
FC001F00
F8000F80
F8000F80
F8000F80
F8000F80
F8000F80
F8000F80
F8000F80
F8000F80
F8000F80
FC001F00
FC001F00
FE003F00
FE003E00
FF007E00
FFC1FC00
F7FFF800
F3FFF000
F1FFE000
007F0000
ENDCHAR
STARTCHAR 0063
ENCODING 99
SWIDTH 500 0
DWIDTH 26 0
BBX 23 29 2 -1
BITMAP
00FF00
03FFC0
07FFF0
0FFFF8
1F83F8
3F00FC
3E007C
7C007C
7C003E
7C0000
F80000
F80000
F80000
F80000
F80000
F80000
F80000
F80000
F80000
FC003E
7C003E
7C007E
7E007C
3F00FC
1F83F8
1FFFF0
0FFFE0
03FFC0
00FF00
ENDCHAR
STARTCHAR 0064
ENCODING 100
SWIDTH 557 0
DWIDTH 29 0
BBX 25 39 2 -1
BITMAP
00000F80
00000F80
00000F80
00000F80
00000F80
00000F80
00000F80
00000F80
00000F80
00000F80
00FE0F80
03FF8F80
07FFEF80
0FFFFF80
1FC1FF80
3F007F80
3E003F80
7E003F80
7C001F80
7C001F80
F8000F80
F8000F80
F8000F80
F8000F80
F8000F80
F8000F80
F8000F80
F8000F80
F8000F80
7C001F80
7C001F80
7E003F80
3E003F80
3F007F80
1FC1FF80
0FFFF780
07FFE780
03FFC780
00FF0000
ENDCHAR
STARTCHAR 0065
ENCODING 101
SWIDTH 538 0
DWIDTH 28 0
BBX 25 29 2 -1
BITMAP
007F8000
03FFE000
07FFF000
0FFFFC00
1FC1FC00
3F007E00
3E003E00
7C001F00
7C001F00
7C000F00
F8000F80
F8000F80
FFFFFF80
FFFFFF80
FFFFFF80
FFFFFF80
F8000000
F8000000
F8000000
7C000000
7C001F00
7C001F00
3E003F00
3F007E00
1FC0FE00
0FFFFC00
07FFF800
03FFE000
007F8000
ENDCHAR
STARTCHAR 0066
ENCODING 102
SWIDTH 288 0
DWIDTH 15 0
BBX 10 38 3 0
BITMAP
07C0
0FC0
1FC0
3FC0
3F00
3E00
3E00
3E00
3E00
3E00
3E00
FFC0
FFC0
FFC0
FFC0
3E00
3E00
3E00
3E00
3E00
3E00
3E00
3E00
3E00
3E00
3E00
3E00
3E00
3E00
3E00
3E00
3E00
3E00
3E00
3E00
3E00
3E00
3E00
ENDCHAR
STARTCHAR 0067
ENCODING 103
SWIDTH 557 0
DWIDTH 29 0
BBX 24 39 2 -11
BITMAP
00FE00
03FF1F
07FFDF
0FFFFF
1FC1FF
3F00FF
3E007F
7E003F
7C003F
7C003F
F8001F
F8001F
F8001F
F8001F
F8001F
F8001F
F8001F
F8001F
F8001F
7C003F
7C003F
7C003F
3E007F
3F00FF
1FC1FF
0FFFDF
07FF9F
03FF1F
00FC1F
00001F
00003E
7C003E
7C003E
3E007C
3F81FC
1FFFF8
0FFFF0
07FFE0
00FF00
ENDCHAR
STARTCHAR 0068
ENCODING 104
SWIDTH 538 0
DWIDTH 28 0
BBX 22 38 3 0
BITMAP
F80000
F80000
F80000
F80000
F80000
F80000
F80000
F80000
F80000
F80000
F83F80
F8FFE0
F9FFF0
FBFFF8
FF83F8
FF00FC
FE00FC
FC007C
FC007C
F8007C
F8007C
F8007C
F8007C
F8007C
F8007C
F8007C
F8007C
F8007C
F8007C
F8007C
F8007C
F8007C
F8007C
F8007C
F8007C
F8007C
F8007C
F8007C
ENDCHAR
STARTCHAR 0069
ENCODING 105
SWIDTH 230 0
DWIDTH 12 0
BBX 5 38 3 0
BITMAP
F8
F8
F8
F8
F8
00
00
00
00
00
00
F8
F8
F8
F8
F8
F8
F8
F8
F8
F8
F8
F8
F8
F8
F8
F8
F8
F8
F8
F8
F8
F8
F8
F8
F8
F8
F8
ENDCHAR
STARTCHAR 006A
ENCODING 106
SWIDTH 250 0
DWIDTH 13 0
BBX 10 49 0 -11
BITMAP
07C0
07C0
07C0
07C0
07C0
0000
0000
0000
0000
0000
0000
07C0
07C0
07C0
07C0
07C0
07C0
07C0
07C0
07C0
07C0
07C0
07C0
07C0
07C0
07C0
07C0
07C0
07C0
07C0
07C0
07C0
07C0
07C0
07C0
07C0
07C0
07C0
07C0
07C0
07C0
07C0
07C0
07C0
0FC0
FFC0
FF80
FF00
FC00
ENDCHAR
STARTCHAR 006B
ENCODING 107
SWIDTH 519 0
DWIDTH 27 0
BBX 23 38 3 0
BITMAP
F80000
F80000
F80000
F80000
F80000
F80000
F80000
F80000
F80000
F80000
F80000
F800FC
F801F8
F803F0
F807E0
F80FC0
F81F80
F83F00
F87E00
F8F800
F9F800
FBF800
FFFC00
FFFE00
FF3E00
FE1F00
FC1F80
F80F80
F80FC0
F807C0
F803E0
F803F0
F801F0
F800F8
F800FC
F8007C
F8007E
F8003E
ENDCHAR
STARTCHAR 006C
ENCODING 108
SWIDTH 211 0
DWIDTH 11 0
BBX 5 38 3 0
BITMAP
F8
F8
F8
F8
F8
F8
F8
F8
F8
F8
F8
F8
F8
F8
F8
F8
F8
F8
F8
F8
F8
F8
F8
F8
F8
F8
F8
F8
F8
F8
F8
F8
F8
F8
F8
F8
F8
F8
ENDCHAR
STARTCHAR 006D
ENCODING 109
SWIDTH 807 0
DWIDTH 42 0
BBX 37 28 3 0
BITMAP
007F007F00
F1FFC1FFC0
F3FFE3FFE0
F7FFF7FFF0
FF87FF87F0
FE01FE01F8
FC01FC01F8
FC00FC00F8
F800F800F8
F800F800F8
F800F800F8
F800F800F8
F800F800F8
F800F800F8
F800F800F8
F800F800F8
F800F800F8
F800F800F8
F800F800F8
F800F800F8
F800F800F8
F800F800F8
F800F800F8
F800F800F8
F800F800F8
F800F800F8
F800F800F8
F800F800F8
ENDCHAR
STARTCHAR 006E
ENCODING 110
SWIDTH 538 0
DWIDTH 28 0
BBX 22 28 3 0
BITMAP
003F80
F0FFE0
F3FFF0
F7FFF8
F783F8
FF00FC
FE00FC
FC007C
FC007C
F8007C
F8007C
F8007C
F8007C
F8007C
F8007C
F8007C
F8007C
F8007C
F8007C
F8007C
F8007C
F8007C
F8007C
F8007C
F8007C
F8007C
F8007C
F8007C
ENDCHAR
STARTCHAR 006F
ENCODING 111
SWIDTH 538 0
DWIDTH 28 0
BBX 25 29 2 -1
BITMAP
007F0000
03FFE000
07FFF000
0FFFF800
1FC1FC00
3F007E00
3E003E00
7E003F00
7C001F00
7C001F00
F8000F80
F8000F80
F8000F80
F8000F80
F8000F80
F8000F80
F8000F80
F8000F80
F8000F80
7C001F00
7C001F00
7E003F00
3E003E00
3F007E00
1FC1FC00
0FFFF800
07FFF000
03FFE000
007F0000
ENDCHAR
STARTCHAR 0070
ENCODING 112
SWIDTH 557 0
DWIDTH 29 0
BBX 25 39 3 -11
BITMAP
003F8000
F1FFE000
F3FFF000
F7FFF800
FFC1FC00
FF007E00
FE003E00
FE003F00
FC001F00
FC001F00
F8000F80
F8000F80
F8000F80
F8000F80
F8000F80
F8000F80
F8000F80
F8000F80
F8000F80
FC001F00
FC001F00
FE003F00
FE003E00
FF007E00
FFC1FC00
FFFFF800
FBFFF000
F8FFE000
F83F8000
F8000000
F8000000
F8000000
F8000000
F8000000
F8000000
F8000000
F8000000
F8000000
F8000000
ENDCHAR
STARTCHAR 0071
ENCODING 113
SWIDTH 557 0
DWIDTH 29 0
BBX 25 39 2 -11
BITMAP
007F0000
03FFC780
07FFE780
0FFFF780
1FC1FF80
3F007F80
3E003F80
7E003F80
7C001F80
7C001F80
F8000F80
F8000F80
F8000F80
F8000F80
F8000F80
F8000F80
F8000F80
F8000F80
F8000F80
FC001F80
7C001F80
7E003F80
7E003F80
3F007F80
1FC1FF80
1FFFEF80
0FFFEF80
03FF8F80
00FE0F80
00000F80
00000F80
00000F80
00000F80
00000F80
00000F80
00000F80
00000F80
00000F80
00000F80
ENDCHAR
STARTCHAR 0072
ENCODING 114
SWIDTH 326 0
DWIDTH 17 0
BBX 14 28 3 0
BITMAP
003C
F0FC
F1FC
F3FC
F7C0
FF00
FE00
FC00
FC00
F800
F800
F800
F800
F800
F800
F800
F800
F800
F800
F800
F800
F800
F800
F800
F800
F800
F800
F800
ENDCHAR
STARTCHAR 0073
ENCODING 115
SWIDTH 500 0
DWIDTH 26 0
BBX 23 29 1 -1
BITMAP
00FF00
07FFC0
0FFFF0
1FFFF8
3F81F8
7E00FC
7C007C
7C007C
7C0000
7C0000
7E0000
3F8000
3FF000
1FFF00
07FFE0
00FFF8
000FFC
0001FC
00007E
00003E
F8003E
F8003E
FC003E
7E007C
7F01FC
3FFFF8
1FFFF0
0FFFE0
01FF00
ENDCHAR
STARTCHAR 0074
ENCODING 116
SWIDTH 288 0
DWIDTH 15 0
BBX 11 35 2 -1
BITMAP
1F00
1F00
1F00
1F00
1F00
1F00
1F00
FFE0
FFE0
FFE0
FFE0
1F00
1F00
1F00
1F00
1F00
1F00
1F00
1F00
1F00
1F00
1F00
1F00
1F00
1F00
1F00
1F00
1F00
1F00
1F00
1F00
1FE0
1FE0
0FE0
07E0
ENDCHAR
STARTCHAR 0075
ENCODING 117
SWIDTH 538 0
DWIDTH 28 0
BBX 22 28 3 -1
BITMAP
F8007C
F8007C
F8007C
F8007C
F8007C
F8007C
F8007C
F8007C
F8007C
F8007C
F8007C
F8007C
F8007C
F8007C
F8007C
F8007C
F8007C
F8007C
F8007C
F800FC
F800FC
FC01FC
FC03FC
7F07FC
7FFFBC
3FFF3C
1FFE3C
07F000
ENDCHAR
STARTCHAR 0076
ENCODING 118
SWIDTH 500 0
DWIDTH 26 0
BBX 24 27 1 0
BITMAP
F8001F
F8001F
F8003E
7C003E
7C003E
7C007C
3E007C
3E0078
1E00F8
1F00F8
1F00F0
0F01F0
0F81E0
0F81E0
0783E0
07C3C0
07C3C0
03C7C0
03E780
03E780
01EF00
01FF00
00FF00
00FE00
00FE00
007C00
007C00
ENDCHAR
STARTCHAR 0077
ENCODING 119
SWIDTH 730 0
DWIDTH 38 0
BBX 36 27 1 0
BITMAP
F801F801F0
F801F801F0
F803F801E0
7803F803E0
7C03FC03E0
7C03FC03C0
7C07BC03C0
3C07BC07C0
3E07BE07C0
3E079E0780
1E0F1E0F80
1E0F1E0F80
1F0F1F0F00
0F0F0F0F00
0F1E0F1F00
0F1E0F1F00
0F9E0F9E00
079E079E00
079E07BE00
07FC07BC00
03FC07FC00
03FC03FC00
03FC03F800
03F803F800
01F803F800
01F801F800
01F801F000
ENDCHAR
STARTCHAR 0078
ENCODING 120
SWIDTH 480 0
DWIDTH 25 0
BBX 23 27 1 0
BITMAP
F8003E
7C007C
3E00F8
3E00F8
1F01F0
0F83E0
0783C0
07C7C0
03EF80
01EF00
01FF00
00FE00
007C00
007C00
00FE00
00FE00
01FF00
03EF80
07C780
0787C0
0F83E0
1F01F0
1E01F0
3E00F8
7C007C
78007C
F8003E
ENDCHAR
STARTCHAR 0079
ENCODING 121
SWIDTH 480 0
DWIDTH 25 0
BBX 23 38 1 -11
BITMAP
F0003E
F8003E
F8003C
78007C
7C007C
7C0078
3C00F8
3E00F0
3E01F0
1E01F0
1F01E0
1F03E0
0F03E0
0F83C0
0F87C0
078780
07C780
07CF80
03CF00
03EF00
03FF00
01FE00
01FE00
01FC00
00FC00
00FC00
00F800
00F800
00F800
00F000
01F000
01F000
03E000
07E000
7FC000
7F8000
7F0000
3E0000
ENDCHAR
STARTCHAR 007A
ENCODING 122
SWIDTH 480 0
DWIDTH 25 0
BBX 22 27 2 0
BITMAP
7FFFF8
7FFFF8
7FFFF8
7FFFF8
0001F8
0001F0
0003E0
0007C0
000F80
001F00
003F00
007E00
00FC00
00F800
01F000
03E000
07C000
0FC000
1F8000
3F0000
3E0000
7C0000
F80000
FFFFFC
FFFFFC
FFFFFC
FFFFFC
ENDCHAR
STARTCHAR 007B
ENCODING 123
SWIDTH 326 0
DWIDTH 17 0
BBX 12 49 2 -11
BITMAP
01F0
03F0
07F0
0F80
0F00
0F00
0F00
0F00
0F00
0F00
0F00
0F00
0F00
0F00
0F00
0F00
0F00
0F00
0F00
0F00
1F00
3E00
7E00
FC00
F000
F800
FC00
3E00
1E00
0F00
0F00
0F00
0F00
0F00
0F00
0F00
0F00
0F00
0F00
0F00
0F00
0F00
0F00
0F00
0F00
0F80
07F0
03F0
01F0
ENDCHAR
STARTCHAR 007C
ENCODING 124
SWIDTH 250 0
DWIDTH 13 0
BBX 3 49 5 -11
BITMAP
E0
E0
E0
E0
E0
E0
E0
E0
E0
E0
E0
E0
E0
E0
E0
E0
E0
E0
E0
E0
E0
E0
E0
E0
E0
E0
E0
E0
E0
E0
E0
E0
E0
E0
E0
E0
E0
E0
E0
E0
E0
E0
E0
E0
E0
E0
E0
E0
E0
ENDCHAR
STARTCHAR 007D
ENCODING 125
SWIDTH 326 0
DWIDTH 17 0
BBX 12 49 3 -11
BITMAP
F800
FC00
FE00
1F00
0F00
0F00
0F00
0F00
0F00
0F00
0F00
0F00
0F00
0F00
0F00
0F00
0F00
0F00
0F00
0F00
0780
07C0
03E0
01F0
00F0
01F0
03E0
07C0
0780
0F00
0F00
0F00
0F00
0F00
0F00
0F00
0F00
0F00
0F00
0F00
0F00
0F00
0F00
0F00
0F00
1F00
FE00
FC00
F800
ENDCHAR
STARTCHAR 007E
ENCODING 126
SWIDTH 500 0
DWIDTH 26 0
BBX 22 8 2 14
BITMAP
1F0000
3FC01C
7FF01C
70FC3C
F07FFC
E01FF8
E007F0
0003E0
ENDCHAR
STARTCHAR 00A0
ENCODING 160
SWIDTH 269 0
DWIDTH 14 0
BBX 0 0 0 0
BITMAP
ENDCHAR
STARTCHAR 00A1
ENCODING 161
SWIDTH 326 0
DWIDTH 17 0
BBX 5 38 5 -11
BITMAP
F8
F8
F8
F8
F8
00
00
00
70
70
70
70
70
70
70
F0
F8
F8
F8
F8
F8
F8
F8
F8
F8
F8
F8
F8
F8
F8
F8
F8
F8
F8
F8
F8
F8
F8
ENDCHAR
STARTCHAR 00A2
ENCODING 162
SWIDTH 557 0
DWIDTH 29 0
BBX 24 37 3 -5
BITMAP
001800
001800
001800
001800
007F00
03FFE0
07FFF0
0FFFF8
1FD9FC
3F187E
3E183E
7C183E
7C183E
7C181F
F81800
F81800
F81800
F81800
F81800
F81800
F81800
F81800
F81800
7C181F
7C181F
7C183F
3E183E
3F187E
1FD9FC
0FFFF8
07FFF0
03FFE0
007F00
001800
001800
001800
001800
ENDCHAR
STARTCHAR 00A3
ENCODING 163
SWIDTH 557 0
DWIDTH 29 0
BBX 26 39 2 -1
BITMAP
003F8000
01FFF000
07FFF800
0FFFFC00
1FC0FE00
1F003F00
3E001F00
3E001F00
7C001F80
7C000F80
7C000F80
7C000F80
7C000000
7C000000
3E000000
3E000000
1F000000
0F000000
FFFF0000
FFFF0000
FFFF0000
03C00000
03E00000
03E00000
03E00000
03E00000
03E00000
03E00000
07C00000
07C00000
07800000
0F000000
1E000000
3EFC0100
7FFF8380
FFFFFF80
7FFFFFC0
781FFF80
2001FC00
ENDCHAR
STARTCHAR 00A4
ENCODING 164
SWIDTH 557 0
DWIDTH 29 0
BBX 21 21 4 7
BITMAP
300020
79FC70
FFFFF8
7FFFF8
3FFFF0
3F07E0
3E03E0
7C01F0
7800F0
7800F0
7800F0
7800F0
7800F0
7C01E0
3E03E0
3F07E0
3FFFE0
7FFFF0
FFFFF8
79FC70
300020
ENDCHAR
STARTCHAR 00A5
ENCODING 165
SWIDTH 557 0
DWIDTH 29 0
BBX 26 36 1 0
BITMAP
F80003C0
780007C0
3C000780
3C000F80
1E000F00
1F001F00
0F001E00
0F803C00
07803C00
03C07800
03C07800
01E0F000
01E0F000
00F1E000
00F3E000
007BC000
007F8000
003F8000
1FFFFF00
1FFFFF00
1FFFFF00
001F0000
001F0000
001F0000
001F0000
1FFFFF00
1FFFFF00
1FFFFF00
001F0000
001F0000
001F0000
001F0000
001F0000
001F0000
001F0000
001F0000
ENDCHAR
STARTCHAR 00A6
ENCODING 166
SWIDTH 269 0
DWIDTH 14 0
BBX 3 49 5 -12
BITMAP
E0
E0
E0
E0
E0
E0
E0
E0
E0
E0
E0
E0
E0
E0
E0
E0
E0
E0
E0
E0
E0
00
00
00
00
00
00
00
E0
E0
E0
E0
E0
E0
E0
E0
E0
E0
E0
E0
E0
E0
E0
E0
E0
E0
E0
E0
E0
ENDCHAR
STARTCHAR 00A7
ENCODING 167
SWIDTH 557 0
DWIDTH 29 0
BBX 24 49 2 -11
BITMAP
003F00
01FFC0
03FFE0
07FFF0
0FC3F8
0F80F8
1F00FC
1F007C
1F007C
1F007C
1F007C
0F8000
0FC000
07F000
07F800
0FFE00
3E7F00
7C3FC0
780FE0
F007F8
F001FC
F000FE
F0007E
F0003F
F8001F
7C000F
7F000F
3F800F
1FC00F
0FE01F
03F81E
01FC3C
00FEFC
003FF0
001FC0
0007E0
0003F0
0001F0
0001F8
3E00F8
3E00F8
3E00F8
3F00F8
1F01F0
1F83F0
0FFFE0
07FFC0
03FF80
00FE00
ENDCHAR
STARTCHAR 00A8
ENCODING 168
SWIDTH 326 0
DWIDTH 17 0
BBX 15 5 1 32
BITMAP
F83E
F83E
F83E
F83E
F83E
ENDCHAR
STARTCHAR 00A9
ENCODING 169
SWIDTH 807 0
DWIDTH 42 0
BBX 37 37 2 -1
BITMAP
0003FE0000
001FFFC000
007FFFF000
00FE03F800
03F0007E00
07E0001F00
0F80FC0F80
0F03FF0780
1E0FFF83C0
3C1F8FC1E0
381E03E0E0
783C01E0F0
703C00F070
7078000070
F078000078
E078000038
E078000038
E078000038
E078000038
E078000038
E078000038
E07800F038
F07800F078
703C01F070
703E01E070
781F03E0F0
381FFFC0E0
3C0FFF81E0
1E03FF03C0
0F00FC0780
0F80000F80
07C0001F00
03F0007E00
00FE03F800
007FFFF000
001FFFC000
0003FE0000
ENDCHAR
STARTCHAR 00AA
ENCODING 170
SWIDTH 365 0
DWIDTH 19 0
BBX 16 23 2 16
BITMAP
0FE0
3FF8
3FF8
783C
701C
001C
001C
007C
1FFC
7FDC
781C
E01C
E01C
E03C
F07C
7FFF
7FDF
1F0F
0000
0000
FFFE
FFFE
FFFE
ENDCHAR
STARTCHAR 00AB
ENCODING 171
SWIDTH 500 0
DWIDTH 26 0
BBX 18 17 4 6
BITMAP
010000
0300C0
0F01C0
1F03C0
3E07C0
7C1F80
F83E00
E03C00
C03800
E03C00
F83E00
7C1F80
3E07C0
1F03C0
0F01C0
0300C0
010000
ENDCHAR
STARTCHAR 00AC
ENCODING 172
SWIDTH 576 0
DWIDTH 30 0
BBX 26 15 2 5
BITMAP
FFFFFFC0
FFFFFFC0
FFFFFFC0
FFFFFFC0
000001C0
000001C0
000001C0
000001C0
000001C0
000001C0
000001C0
000001C0
000001C0
000001C0
000001C0
ENDCHAR
STARTCHAR 00AD
ENCODING 173
SWIDTH 326 0
DWIDTH 17 0
BBX 12 4 2 12
BITMAP
FFF0
FFF0
FFF0
FFF0
ENDCHAR
STARTCHAR 00AE
ENCODING 174
SWIDTH 807 0
DWIDTH 42 0
BBX 37 37 2 -1
BITMAP
0003FE0000
001FFFC000
007FFFF000
00FE03F800
03F0007E00
07E0001F00
0F80000F80
0F3FFF0780
1E3FFF83C0
3C3FFFC1E0
383C03C0E0
783C01E0F0
703C00E070
703C00E070
F03C00E078
E03C01E038
E03C03C038
E03FFF8038
E03FFF8038
E03FFFC038
E03C03C038
E03C01E038
F03C01E078
703C00E070
703C00E070
783C00E0F0
383C00E0E0
3C3C00F1E0
1E3C00FBC0
0F00000780
0F80000F80
07C0001F00
03F0007E00
00FE03F800
007FFFF000
001FFFC000
0003FE0000
ENDCHAR
STARTCHAR 00AF
ENCODING 175
SWIDTH 326 0
DWIDTH 17 0
BBX 14 4 1 32
BITMAP
FFFC
FFFC
FFFC
FFFC
ENDCHAR
STARTCHAR 00B0
ENCODING 176
SWIDTH 615 0
DWIDTH 32 0
BBX 16 16 8 20
BITMAP
07E0
1FF8
3FFC
7C3E
700E
F00F
E007
E007
E007
E007
F00F
700E
7C3E
3FFC
1FF8
07E0
ENDCHAR
STARTCHAR 00B1
ENCODING 177
SWIDTH 576 0
DWIDTH 30 0
BBX 26 33 2 -1
BITMAP
001C0000
001C0000
001C0000
001C0000
001C0000
001C0000
001C0000
001C0000
001C0000
001C0000
FFFFFF80
FFFFFF80
FFFFFF80
FFFFFF80
001C0000
001C0000
001C0000
001C0000
001C0000
001C0000
001C0000
001C0000
001C0000
001C0000
001C0000
00000000
00000000
00000000
00000000
7FFFFFC0
7FFFFFC0
7FFFFFC0
7FFFFFC0
ENDCHAR
STARTCHAR 00B2
ENCODING 178
SWIDTH 346 0
DWIDTH 18 0
BBX 16 23 1 20
BITMAP
07F0
1FF8
3FFC
3C1E
780F
7007
7007
0007
0007
000F
001E
003C
00F8
03F0
0FC0
1F00
3E00
3800
7800
7000
7FFF
FFFF
FFFF
ENDCHAR
STARTCHAR 00B3
ENCODING 179
SWIDTH 346 0
DWIDTH 18 0
BBX 15 23 1 20
BITMAP
0FC0
3FF0
7FF8
7878
F03C
E01C
E01C
001C
001C
0078
07F8
07F0
07F8
003C
001E
000E
E00E
E00E
F01E
783C
7FFC
3FF0
0FC0
ENDCHAR
STARTCHAR 00B4
ENCODING 180
SWIDTH 326 0
DWIDTH 17 0
BBX 11 8 5 31
BITMAP
07E0
0FC0
1F80
1F00
3E00
3C00
7800
F000
ENDCHAR
STARTCHAR 00B5
ENCODING 181
SWIDTH 557 0
DWIDTH 29 0
BBX 26 37 3 -10
BITMAP
F8003E00
F8003E00
F8003E00
F8003E00
F8003E00
F8003E00
F8003E00
F8003E00
F8003E00
F8003E00
F8003E00
F8003E00
F8003E00
F8003E00
F8003E00
F8003E00
F8003E00
F8003E00
F8007E00
F8007E00
F8007E00
FC00FE00
FE01FE00
FF07FF00
FFFFBFC0
FFFF1FC0
FFFE1FC0
F9F807C0
F8000000
F8000000
F8000000
F8000000
F8000000
F8000000
F8000000
F8000000
F8000000
ENDCHAR
STARTCHAR 00B6
ENCODING 182
SWIDTH 538 0
DWIDTH 28 0
BBX 25 47 2 -9
BITMAP
00FFFF80
03FFFF80
07FFFF80
0FFC1C00
1FFC1C00
3FFC1C00
7FFC1C00
7FFC1C00
7FFC1C00
FFFC1C00
FFFC1C00
FFFC1C00
FFFC1C00
FFFC1C00
FFFC1C00
FFFC1C00
7FFC1C00
7FFC1C00
7FFC1C00
3FFC1C00
1FFC1C00
0FFC1C00
07FC1C00
01FC1C00
001C1C00
001C1C00
001C1C00
001C1C00
001C1C00
001C1C00
001C1C00
001C1C00
001C1C00
001C1C00
001C1C00
001C1C00
001C1C00
001C1C00
001C1C00
001C1C00
001C1C00
001C1C00
001C1C00
001C1C00
001C1C00
001C1C00
001C1C00
ENDCHAR
STARTCHAR 00B7
ENCODING 183
SWIDTH 250 0
DWIDTH 13 0
BBX 5 5 5 11
BITMAP
F8
F8
F8
F8
F8
ENDCHAR
STARTCHAR 00B8
ENCODING 184
SWIDTH 326 0
DWIDTH 17 0
BBX 13 11 2 -11
BITMAP
0300
0300
0700
07E0
07F0
00F8
0078
0078
F0F0
FFF0
1FC0
ENDCHAR
STARTCHAR 00B9
ENCODING 185
SWIDTH 346 0
DWIDTH 18 0
BBX 8 21 4 20
BITMAP
03
07
07
1F
FF
FF
07
07
07
07
07
07
07
07
07
07
07
07
07
07
07
ENDCHAR
STARTCHAR 00BA
ENCODING 186
SWIDTH 365 0
DWIDTH 19 0
BBX 15 23 2 16
BITMAP
07C0
1FF0
3FF8
783C
701C
F01E
E00E
E00E
E00E
E00E
E00E
E00E
F01E
701C
783C
3FF8
1FF0
07C0
0000
0000
7FFC
7FFC
7FFC
ENDCHAR
STARTCHAR 00BB
ENCODING 187
SWIDTH 500 0
DWIDTH 26 0
BBX 18 17 4 5
BITMAP
002000
C03000
E03C00
F03E00
F81F00
7E0F80
1F07C0
0F01C0
0700C0
0F01C0
1F07C0
7E0F80
F81F00
F03E00
E03C00
C03000
002000
ENDCHAR
STARTCHAR 00BC
ENCODING 188
SWIDTH 865 0
DWIDTH 45 0
BBX 40 38 3 -2
BITMAP
0300000000
0700000380
0700000700
1F00000E00
FF00000E00
FF00001C00
0700003C00
0700003800
0700007000
0700007000
070000E000
070001C000
070001C000
0700038000
0700070000
0700070000
07000E0038
07000E0078
07001C0078
07003800F8
07003801F8
00007003B8
0000E00738
0000E00E38
0001C00E38
0003801C38
0003803838
0007007038
000700F038
000E00FFFF
001C00FFFF
001C00FFFF
0038000038
0070000038
0070000038
00E0000038
00C0000038
01C0000000
ENDCHAR
STARTCHAR 00BD
ENCODING 189
SWIDTH 865 0
DWIDTH 45 0
BBX 41 39 3 -1
BITMAP
030000000000
030000000000
0700000F0000
0700000E0000
1F00001C0000
FF00003C0000
FF0000380000
070000700000
070000F00000
070000E00000
070001E00000
070001C00000
070003800000
070007800000
070007000000
07000E000000
07001E07F000
07001C1FFC00
0700383FFE00
0700383C0F00
070070780780
0700E0700380
0000E0700380
0001C0000380
0003C0000380
000380000700
000700001F00
000700007E00
000E0001FC00
001C0007F000
001C000F8000
0038001E0000
0070003C0000
007000780000
00E000700000
00C0007FFF80
01C0007FFF80
038000FFFF80
038000000000
ENDCHAR
STARTCHAR 00BE
ENCODING 190
SWIDTH 884 0
DWIDTH 46 0
BBX 41 39 2 -2
BITMAP
0FC000000000
3FF000000000
7FF80001C000
78780003C000
F03C00038000
E01C00070000
E01C00070000
001C000E0000
001C001C0000
0078001C0000
07F800380000
07F000700000
07F800700000
003C00E00000
001E01C00000
000E01C00000
E00E03800000
E00E07801C00
F01E07003C00
783C0E003C00
7FFC1E007C00
3FF01C00FC00
0FC03801DC00
000038039C00
000070079C00
0000E0071C00
0000E00E1C00
0001C01C1C00
000380381C00
000380781C00
0007007FFF80
000E007FFF80
000E007FFF80
001C00001C00
003C00001C00
003800001C00
007000001C00
007000001C00
00E000000000
ENDCHAR
STARTCHAR 00BF
ENCODING 191
SWIDTH 557 0
DWIDTH 29 0
BBX 23 39 4 -12
BITMAP
003E00
003E00
003E00
003E00
003E00
000000
000000
000000
000000
000000
003E00
003E00
003E00
003E00
003E00
007E00
00FC00
00FC00
01F800
07F000
0FE000
1FC000
3F0000
3E0000
7E0000
7C0000
F80000
F8003E
F8003E
F8003E
F8003E
FC007C
7C007C
7E00FC
3F81F8
3FFFF8
0FFFF0
07FFC0
00FF00
ENDCHAR
STARTCHAR 00C0
ENCODING 192
SWIDTH 673 0
DWIDTH 35 0
BBX 33 47 1 0
BITMAP
003F000000
001F800000
000F800000
0007C00000
0001E00000
0000F00000
0000780000
0000000000
0000000000
0007F00000
0007F00000
000FF00000
000FF80000
000FF80000
001FF80000
001F7C0000
001F7C0000
003E7E0000
003E3E0000
003E3E0000
007C3F0000
007C1F0000
00FC1F0000
00F81F8000
00F80F8000
01F00F8000
01F00FC000
01F007C000
03E007C000
03E007E000
03E003E000
07C003E000
07FFFFF000
07FFFFF000
0FFFFFF000
0FFFFFF800
1F8000F800
1F0000FC00
1F0000FC00
3F00007C00
3E00007E00
3E00007E00
7E00003E00
7C00003F00
7C00001F00
F800001F00
F800001F80
ENDCHAR
STARTCHAR 00C1
ENCODING 193
SWIDTH 673 0
DWIDTH 35 0
BBX 33 47 1 0
BITMAP
00003F0000
00007E0000
00007C0000
0000F80000
0001E00000
0003C00000
0007800000
0000000000
0000000000
0007F00000
0007F00000
000FF00000
000FF80000
000FF80000
001FF80000
001F7C0000
001F7C0000
003E7E0000
003E3E0000
003E3E0000
007C3F0000
007C1F0000
00FC1F0000
00F81F8000
00F80F8000
01F00F8000
01F00FC000
01F007C000
03E007C000
03E007E000
03E003E000
07C003E000
07FFFFF000
07FFFFF000
0FFFFFF000
0FFFFFF800
1F8000F800
1F0000FC00
1F0000FC00
3F00007C00
3E00007E00
3E00007E00
7E00003E00
7C00003F00
7C00001F00
F800001F00
F800001F80
ENDCHAR
STARTCHAR 00C2
ENCODING 194
SWIDTH 673 0
DWIDTH 35 0
BBX 33 47 1 0
BITMAP
0003E00000
0007F00000
000FF80000
001FF80000
001E3C0000
003C1E0000
00780F0000
0000000000
0000000000
0007F00000
0007F00000
000FF00000
000FF80000
000FF80000
001FF80000
001F7C0000
001F7C0000
003E7E0000
003E3E0000
003E3E0000
007C3F0000
007C1F0000
00FC1F0000
00F81F8000
00F80F8000
01F00F8000
01F00FC000
01F007C000
03E007C000
03E007E000
03E003E000
07C003E000
07FFFFF000
07FFFFF000
0FFFFFF000
0FFFFFF800
1F8000F800
1F0000FC00
1F0000FC00
3F00007C00
3E00007E00
3E00007E00
7E00003E00
7C00003F00
7C00001F00
F800001F00
F800001F80
ENDCHAR
STARTCHAR 00C3
ENCODING 195
SWIDTH 673 0
DWIDTH 35 0
BBX 33 46 1 0
BITMAP
001C070000
003F8F0000
007FFE0000
00F3FE0000
00E07C0000
0000000000
0000000000
0000000000
0007F00000
0007F00000
000FF00000
000FF80000
000FF80000
001FF80000
001F7C0000
001F7C0000
003E7E0000
003E3E0000
003E3E0000
007C3F0000
007C1F0000
00FC1F0000
00F81F8000
00F80F8000
01F00F8000
01F00FC000
01F007C000
03E007C000
03E007E000
03E003E000
07C003E000
07FFFFF000
07FFFFF000
0FFFFFF000
0FFFFFF800
1F8000F800
1F0000FC00
1F0000FC00
3F00007C00
3E00007E00
3E00007E00
7E00003E00
7C00003F00
7C00001F00
F800001F00
F800001F80
ENDCHAR
STARTCHAR 00C4
ENCODING 196
SWIDTH 673 0
DWIDTH 35 0
BBX 33 46 1 0
BITMAP
007C1F0000
007C1F0000
007C1F0000
007C1F0000
007C1F0000
0000000000
0000000000
0000000000
0007F00000
0007F00000
000FF00000
000FF80000
000FF80000
001FF80000
001F7C0000
001F7C0000
003E7E0000
003E3E0000
003E3E0000
007C3F0000
007C1F0000
00F81F0000
00F81F8000
00F80F8000
01F00F8000
01F00FC000
01F007C000
03E007C000
03E007E000
03E003E000
07C003E000
07FFFFF000
07FFFFF000
0FFFFFF000
0FFFFFF800
1F8000F800
1F0000FC00
1F0000FC00
3F00007C00
3E00007E00
3E00003E00
7E00003E00
7C00003F00
7C00001F00
F800001F00
F800001F80
ENDCHAR
STARTCHAR 00C5
ENCODING 197
SWIDTH 673 0
DWIDTH 35 0
BBX 33 50 1 1
BITMAP
0003E00000
000FF00000
000FF80000
001E380000
001C1C0000
001C1C0000
001C3C0000
001E380000
000FF80000
000FF00000
0003C00000
0000000000
0007F00000
0007F00000
000FF00000
000FF80000
000FF80000
001FF80000
001F7C0000
001F7C0000
003E7E0000
003E3E0000
003E3E0000
007C3F0000
007C1F0000
00FC1F0000
00F81F8000
00F80F8000
01F00F8000
01F00FC000
01F007C000
03E007C000
03E007E000
03E003E000
07C003E000
07FFFFF000
07FFFFF000
0FFFFFF000
0FFFFFF800
1F8000F800
1F0000FC00
1F0000FC00
3F00007C00
3E00007E00
3E00007E00
7E00003E00
7C00003F00
7C00001F00
F800001F00
F800001F80
ENDCHAR
STARTCHAR 00C6
ENCODING 198
SWIDTH 980 0
DWIDTH 51 0
BBX 49 38 1 0
BITMAP
0000FFFFFFFF00
0001FFFFFFFF00
0001FFFFFFFF00
0003FFFFFFFF00
0003E0F8000000
0003C0F8000000
0007C0F8000000
000780F8000000
000F80F8000000
000F80F8000000
001F00F8000000
001F00F8000000
001F00F8000000
003E00F8000000
003E00F8000000
007C00F8000000
007C00F8000000
007C00FFFFFE00
00F800FFFFFE00
00F800FFFFFE00
01F800FFFFFE00
01F000F8000000
01F000F8000000
03FFFFF8000000
03FFFFF8000000
07FFFFF8000000
07FFFFF8000000
07C000F8000000
0F8000F8000000
0F8000F8000000
1F8000F8000000
1F0000F8000000
3F0000F8000000
3E0000F8000000
3E0000FFFFFF80
7E0000FFFFFF80
7C0000FFFFFF80
FC0000FFFFFF80
ENDCHAR
STARTCHAR 00C7
ENCODING 199
SWIDTH 711 0
DWIDTH 37 0
BBX 33 50 2 -11
BITMAP
0007FC0000
003FFF8000
00FFFFC000
01FFFFF000
07F807F800
07E001F800
0FC000FC00
1F80007E00
1F00003E00
3E00003E00
3E00001F00
7C00001F00
7C00000000
7C00000000
7C00000000
F800000000
F800000000
F800000000
F800000000
F800000000
F800000000
F800000000
F800000000
F800000000
F800000000
F800000F80
7C00000F80
7C00001F80
7C00001F00
3E00001F00
3E00003F00
1F00003E00
1F80007E00
0FC000FC00
07E001FC00
07FC07F800
03FFFFF000
00FFFFE000
007FFF8000
000FFC0000
0001800000
0001800000
0003F00000
0003F80000
00007C0000
00003C0000
00203C0000
0038780000
003FF80000
000FE00000
ENDCHAR
STARTCHAR 00C8
ENCODING 200
SWIDTH 634 0
DWIDTH 33 0
BBX 27 47 4 0
BITMAP
00FC0000
007E0000
003E0000
001F0000
00078000
0003C000
0001E000
00000000
00000000
FFFFFFC0
FFFFFFC0
FFFFFFC0
FFFFFFC0
F8000000
F8000000
F8000000
F8000000
F8000000
F8000000
F8000000
F8000000
F8000000
F8000000
F8000000
F8000000
F8000000
FFFFFF80
FFFFFF80
FFFFFF80
FFFFFF80
F8000000
F8000000
F8000000
F8000000
F8000000
F8000000
F8000000
F8000000
F8000000
F8000000
F8000000
F8000000
F8000000
FFFFFFE0
FFFFFFE0
FFFFFFE0
FFFFFFE0
ENDCHAR
STARTCHAR 00C9
ENCODING 201
SWIDTH 634 0
DWIDTH 33 0
BBX 27 47 4 0
BITMAP
0007E000
000FC000
000F8000
001F0000
003C0000
00780000
00F00000
00000000
00000000
FFFFFFC0
FFFFFFC0
FFFFFFC0
FFFFFFC0
F8000000
F8000000
F8000000
F8000000
F8000000
F8000000
F8000000
F8000000
F8000000
F8000000
F8000000
F8000000
F8000000
FFFFFF80
FFFFFF80
FFFFFF80
FFFFFF80
F8000000
F8000000
F8000000
F8000000
F8000000
F8000000
F8000000
F8000000
F8000000
F8000000
F8000000
F8000000
F8000000
FFFFFFE0
FFFFFFE0
FFFFFFE0
FFFFFFE0
ENDCHAR
STARTCHAR 00CA
ENCODING 202
SWIDTH 634 0
DWIDTH 33 0
BBX 27 47 4 0
BITMAP
001F0000
003F8000
007FC000
00FFC000
00F1E000
01E0F000
03C07800
00000000
00000000
FFFFFFC0
FFFFFFC0
FFFFFFC0
FFFFFFC0
F8000000
F8000000
F8000000
F8000000
F8000000
F8000000
F8000000
F8000000
F8000000
F8000000
F8000000
F8000000
F8000000
FFFFFF80
FFFFFF80
FFFFFF80
FFFFFF80
F8000000
F8000000
F8000000
F8000000
F8000000
F8000000
F8000000
F8000000
F8000000
F8000000
F8000000
F8000000
F8000000
FFFFFFE0
FFFFFFE0
FFFFFFE0
FFFFFFE0
ENDCHAR
STARTCHAR 00CB
ENCODING 203
SWIDTH 634 0
DWIDTH 33 0
BBX 27 46 4 0
BITMAP
03E0F800
03E0F800
03E0F800
03E0F800
03E0F800
00000000
00000000
00000000
FFFFFFC0
FFFFFFC0
FFFFFFC0
FFFFFFC0
F8000000
F8000000
F8000000
F8000000
F8000000
F8000000
F8000000
F8000000
F8000000
F8000000
F8000000
F8000000
F8000000
FFFFFF80
FFFFFF80
FFFFFF80
FFFFFF80
F8000000
F8000000
F8000000
F8000000
F8000000
F8000000
F8000000
F8000000
F8000000
F8000000
F8000000
F8000000
F8000000
FFFFFFE0
FFFFFFE0
FFFFFFE0
FFFFFFE0
ENDCHAR
STARTCHAR 00CC
ENCODING 204
SWIDTH 269 0
DWIDTH 14 0
BBX 11 47 1 0
BITMAP
FC00
7E00
3E00
1F00
0780
03C0
01E0
0000
0000
0F80
0F80
0F80
0F80
0F80
0F80
0F80
0F80
0F80
0F80
0F80
0F80
0F80
0F80
0F80
0F80
0F80
0F80
0F80
0F80
0F80
0F80
0F80
0F80
0F80
0F80
0F80
0F80
0F80
0F80
0F80
0F80
0F80
0F80
0F80
0F80
0F80
0F80
ENDCHAR
STARTCHAR 00CD
ENCODING 205
SWIDTH 269 0
DWIDTH 14 0
BBX 11 47 2 0
BITMAP
07E0
0FC0
0F80
1F00
3C00
7800
F000
0000
0000
1F00
1F00
1F00
1F00
1F00
1F00
1F00
1F00
1F00
1F00
1F00
1F00
1F00
1F00
1F00
1F00
1F00
1F00
1F00
1F00
1F00
1F00
1F00
1F00
1F00
1F00
1F00
1F00
1F00
1F00
1F00
1F00
1F00
1F00
1F00
1F00
1F00
1F00
ENDCHAR
STARTCHAR 00CE
ENCODING 206
SWIDTH 307 0
DWIDTH 16 0
BBX 15 47 0 0
BITMAP
07C0
0FE0
1FF0
3FF0
3C78
783C
F01E
0000
0000
07C0
07C0
07C0
07C0
07C0
07C0
07C0
07C0
07C0
07C0
07C0
07C0
07C0
07C0
07C0
07C0
07C0
07C0
07C0
07C0
07C0
07C0
07C0
07C0
07C0
07C0
07C0
07C0
07C0
07C0
07C0
07C0
07C0
07C0
07C0
07C0
07C0
07C0
ENDCHAR
STARTCHAR 00CF
ENCODING 207
SWIDTH 307 0
DWIDTH 16 0
BBX 15 46 0 0
BITMAP
F83E
F83E
F83E
F83E
F83E
0000
0000
0000
07C0
07C0
07C0
07C0
07C0
07C0
07C0
07C0
07C0
07C0
07C0
07C0
07C0
07C0
07C0
07C0
07C0
07C0
07C0
07C0
07C0
07C0
07C0
07C0
07C0
07C0
07C0
07C0
07C0
07C0
07C0
07C0
07C0
07C0
07C0
07C0
07C0
07C0
ENDCHAR
STARTCHAR 00D0
ENCODING 208
SWIDTH 711 0
DWIDTH 37 0
BBX 33 38 2 0
BITMAP
1FFFFC0000
1FFFFF0000
1FFFFFC000
1FFFFFE000
1F000FF000
1F0001F800
1F0000FC00
1F00007C00
1F00003E00
1F00003E00
1F00001F00
1F00001F00
1F00001F00
1F00001F80
1F00000F80
1F00000F80
1F00000F80
FFFF000F80
FFFF000F80
FFFF000F80
1F00000F80
1F00000F80
1F00000F80
1F00000F80
1F00001F80
1F00001F00
1F00001F00
1F00001F00
1F00003E00
1F00003E00
1F00007C00
1F0000FC00
1F0001F800
1F000FF000
1FFFFFE000
1FFFFFC000
1FFFFF8000
1FFFFC0000
ENDCHAR
STARTCHAR 00D1
ENCODING 209
SWIDTH 730 0
DWIDTH 38 0
BBX 30 45 4 0
BITMAP
00781C00
00FE1C00
01FFFC00
01C7F800
0381F000
00000000
00000000
FC00007C
FE00007C
FE00007C
FF00007C
FF00007C
FF80007C
FFC0007C
FFC0007C
FBE0007C
FBF0007C
F9F0007C
F8F8007C
F8F8007C
F87C007C
F83E007C
F83E007C
F81F007C
F81F807C
F80F807C
F807C07C
F807C07C
F803E07C
F801F07C
F801F07C
F800F87C
F800FC7C
F8007C7C
F8003E7C
F8003E7C
F8001F7C
F8001FFC
F8000FFC
F80007FC
F80007FC
F80003FC
F80001FC
F80001FC
F80000FC
ENDCHAR
STARTCHAR 00D2
ENCODING 210
SWIDTH 788 0
DWIDTH 41 0
BBX 37 48 2 -1
BITMAP
000FC00000
0007E00000
0003E00000
0001F00000
0000780000
00003C0000
00001E0000
0000000000
0003FE0000
001FFFC000
007FFFF000
01FFFFFC00
03FE03FE00
07F0007F00
0FE0003F80
1FC0001F80
1F80000FC0
3F000007E0
3E000003E0
7E000003F0
7C000001F0
7C000001F0
7C000001F0
F8000000F8
F8000000F8
F8000000F8
F8000000F8
F8000000F8
F8000000F8
F8000000F8
F8000000F8
F8000000F8
F8000000F8
7C000001F0
7C000001F0
7C000001F0
7E000003F0
3E000003E0
3F000007E0
1F80000FC0
1FC0001F80
0FE0003F80
07F0007F00
03FE03FE00
01FFFFFC00
007FFFF000
001FFFC000
0003FE0000
ENDCHAR
STARTCHAR 00D3
ENCODING 211
SWIDTH 788 0
DWIDTH 41 0
BBX 37 48 2 -1
BITMAP
00001F8000
00003F0000
00003E0000
00007C0000
0000F00000
0001E00000
0003C00000
0000000000
0003FE0000
001FFFC000
007FFFF000
01FFFFFC00
03FE03FE00
07F0007F00
0FE0003F80
1FC0001F80
1F80000FC0
3F000007E0
3E000003E0
7E000003F0
7C000001F0
7C000001F0
7C000001F0
F8000000F8
F8000000F8
F8000000F8
F8000000F8
F8000000F8
F8000000F8
F8000000F8
F8000000F8
F8000000F8
F8000000F8
7C000001F0
7C000001F0
7C000001F0
7E000003F0
3E000003E0
3F000007E0
1F80000FC0
1FC0001F80
0FE0003F80
07F0007F00
03FE03FE00
01FFFFFC00
007FFFF000
001FFFC000
0003FE0000
ENDCHAR
STARTCHAR 00D4
ENCODING 212
SWIDTH 788 0
DWIDTH 41 0
BBX 37 48 2 -1
BITMAP
0000F80000
0001FC0000
0003FE0000
0007FE0000
00078F0000
000F078000
001E03C000
0000000000
0003FE0000
001FFFC000
007FFFF000
01FFFFFC00
03FE03FE00
07F0007F00
0FE0003F80
1FC0001F80
1F80000FC0
3F000007E0
3E000003E0
7E000003F0
7C000001F0
7C000001F0
7C000001F0
F8000000F8
F8000000F8
F8000000F8
F8000000F8
F8000000F8
F8000000F8
F8000000F8
F8000000F8
F8000000F8
F8000000F8
7C000001F0
7C000001F0
7C000001F0
7E000003F0
3E000003E0
3F000007E0
1F80000FC0
1FC0001F80
0FE0003F80
07F0007F00
03FE03FE00
01FFFFFC00
007FFFF000
001FFFC000
0003FE0000
ENDCHAR
STARTCHAR 00D5
ENCODING 213
SWIDTH 788 0
DWIDTH 41 0
BBX 37 47 2 -1
BITMAP
000201C000
000FC3C000
001FFF8000
003DFF8000
00383F0000
0000000000
0000000000
0003FE0000
001FFFC000
007FFFF000
01FFFFFC00
03FE03FE00
07F0007F00
0FE0003F80
1FC0001F80
1F80000FC0
3F000007E0
3E000003E0
7E000003F0
7C000001F0
7C000001F0
7C000001F0
F8000000F8
F8000000F8
F8000000F8
F8000000F8
F8000000F8
F8000000F8
F8000000F8
F8000000F8
F8000000F8
F8000000F8
7C000001F0
7C000001F0
7C000001F0
7E000003F0
3E000003E0
3F000007E0
1F80000FC0
1FC0001F80
0FE0003F80
07F0007F00
03FE03FE00
01FFFFFC00
007FFFF000
001FFFC000
0003FE0000
ENDCHAR
STARTCHAR 00D6
ENCODING 214
SWIDTH 788 0
DWIDTH 41 0
BBX 37 47 2 -1
BITMAP
001F07C000
001F07C000
001F07C000
001F07C000
001F07C000
0000000000
0000000000
0003FE0000
001FFFC000
007FFFF000
01FFFFFC00
03FE03FE00
07F0007F00
0FE0003F80
1FC0001F80
1F80000FC0
3F000007E0
3E000003E0
7E000003F0
7C000001F0
7C000001F0
7C000001F0
F8000000F8
F8000000F8
F8000000F8
F8000000F8
F8000000F8
F8000000F8
F8000000F8
F8000000F8
F8000000F8
F8000000F8
7C000001F0
7C000001F0
7C000001F0
7E000003F0
3E000003E0
3F000007E0
1F80000FC0
1FC0001F80
0FE0003F80
07F0007F00
03FE03FE00
01FFFFFC00
007FFFF000
001FFFC000
0003FE0000
ENDCHAR
STARTCHAR 00D7
ENCODING 215
SWIDTH 576 0
DWIDTH 30 0
BBX 20 20 5 2
BITMAP
200040
7000E0
F801F0
7C03E0
3E07C0
1F0F80
0F9F00
07FE00
03FC00
01F800
01F800
03FC00
07FE00
0F9F00
1F0F80
3E07C0
7C03E0
F801F0
7000F0
200060
ENDCHAR
STARTCHAR 00D8
ENCODING 216
SWIDTH 788 0
DWIDTH 41 0
BBX 37 40 2 0
BITMAP
0003FE0038
001FFFC078
007FFFF0F0
01FFFFFDE0
03FE03FFC0
07F0007F80
0FE0003F80
0FC0001FC0
1F80003FC0
3F00003FE0
3E000073E0
7E0000F3F0
7C0001E1F0
7C0003C1F0
7C000781F0
F8000F00F8
F8001E00F8
F8003C00F8
F8007800F8
F8007000F8
F800E000F8
F801E000F8
F803C000F8
F8078000F8
F80F0000F8
7C1E0001F0
7C3C0001F0
7C780001F0
7EF00003F0
3EE00003E0
3FC00007E0
1FC0000FC0
1FC0001F80
0FE0003F80
1FF0007F00
3FFE03FE00
79FFFFFC00
F07FFFF000
E01FFFC000
0003FE0000
ENDCHAR
STARTCHAR 00D9
ENCODING 217
SWIDTH 711 0
DWIDTH 37 0
BBX 29 48 4 -1
BITMAP
007E0000
003F0000
001F0000
000F8000
0003C000
0001E000
0000F000
00000000
00000000
F80000F8
F80000F8
F80000F8
F80000F8
F80000F8
F80000F8
F80000F8
F80000F8
F80000F8
F80000F8
F80000F8
F80000F8
F80000F8
F80000F8
F80000F8
F80000F8
F80000F8
F80000F8
F80000F8
F80000F8
F80000F8
F80000F8
F80000F8
F80000F8
F80000F8
F80000F8
F80000F8
F80000F8
F80000F8
F80000F8
7C0001F0
7C0001F0
7E0003F0
3F0007E0
1FE03FC0
0FFFFF80
07FFFF00
01FFFC00
003FE000
ENDCHAR
STARTCHAR 00DA
ENCODING 218
SWIDTH 711 0
DWIDTH 37 0
BBX 29 48 4 -1
BITMAP
0001F800
0003F000
0003E000
0007C000
000F0000
001E0000
003C0000
00000000
00000000
F80000F8
F80000F8
F80000F8
F80000F8
F80000F8
F80000F8
F80000F8
F80000F8
F80000F8
F80000F8
F80000F8
F80000F8
F80000F8
F80000F8
F80000F8
F80000F8
F80000F8
F80000F8
F80000F8
F80000F8
F80000F8
F80000F8
F80000F8
F80000F8
F80000F8
F80000F8
F80000F8
F80000F8
F80000F8
F80000F8
7C0001F0
7C0001F0
7E0003F0
3F0007E0
1FE03FC0
0FFFFF80
07FFFF00
01FFFC00
003FE000
ENDCHAR
STARTCHAR 00DB
ENCODING 219
SWIDTH 711 0
DWIDTH 37 0
BBX 29 48 4 -1
BITMAP
000F8000
001FC000
003FE000
007FE000
0078F000
00F07800
01E03C00
00000000
00000000
F80000F8
F80000F8
F80000F8
F80000F8
F80000F8
F80000F8
F80000F8
F80000F8
F80000F8
F80000F8
F80000F8
F80000F8
F80000F8
F80000F8
F80000F8
F80000F8
F80000F8
F80000F8
F80000F8
F80000F8
F80000F8
F80000F8
F80000F8
F80000F8
F80000F8
F80000F8
F80000F8
F80000F8
F80000F8
F80000F8
7C0001F0
7C0001F0
7E0003F0
3F0007E0
1FE03FC0
0FFFFF80
07FFFF00
01FFFC00
003FE000
ENDCHAR
STARTCHAR 00DC
ENCODING 220
SWIDTH 711 0
DWIDTH 37 0
BBX 29 47 4 -1
BITMAP
01F87E00
01F87E00
01F87E00
01F87E00
01F87E00
00000000
00000000
00000000
F80000F8
F80000F8
F80000F8
F80000F8
F80000F8
F80000F8
F80000F8
F80000F8
F80000F8
F80000F8
F80000F8
F80000F8
F80000F8
F80000F8
F80000F8
F80000F8
F80000F8
F80000F8
F80000F8
F80000F8
F80000F8
F80000F8
F80000F8
F80000F8
F80000F8
F80000F8
F80000F8
F80000F8
F80000F8
F80000F8
7C0001F0
7C0001F0
7E0003F0
3F0007E0
1FE03FC0
0FFFFF80
07FFFF00
01FFFC00
003FE000
ENDCHAR
STARTCHAR 00DD
ENCODING 221
SWIDTH 673 0
DWIDTH 35 0
BBX 33 47 1 0
BITMAP
00007E0000
0000FC0000
0000F80000
0001F00000
0003C00000
0007800000
000F000000
0000000000
0000000000
FC00001F80
FC00001F00
7E00003F00
3E00007E00
3F00007C00
1F8000FC00
0F8000F800
0FC001F800
07E003F000
07E003E000
03F007E000
01F007C000
01F80FC000
00FC0F8000
007C1F0000
007E3F0000
003E3E0000
003F7C0000
001FFC0000
000FF80000
000FF80000
0007F00000
0003E00000
0003E00000
0003E00000
0003E00000
0003E00000
0003E00000
0003E00000
0003E00000
0003E00000
0003E00000
0003E00000
0003E00000
0003E00000
0003E00000
0003E00000
0003E00000
ENDCHAR
STARTCHAR 00DE
ENCODING 222
SWIDTH 653 0
DWIDTH 34 0
BBX 27 38 4 0
BITMAP
F8000000
F8000000
F8000000
F8000000
F8000000
F8000000
F8000000
FFFFF000
FFFFFC00
FFFFFF00
FFFFFF80
F8003F80
F8000FC0
F80007C0
F80007E0
F80003E0
F80003E0
F80003E0
F80003E0
F80003E0
F80007E0
F80007C0
F8000FC0
F8003F80
FFFFFF80
FFFFFF00
FFFFFC00
FFFFF000
F8000000
F8000000
F8000000
F8000000
F8000000
F8000000
F8000000
F8000000
F8000000
F8000000
ENDCHAR
STARTCHAR 00DF
ENCODING 223
SWIDTH 596 0
DWIDTH 31 0
BBX 25 39 4 -1
BITMAP
01FF0000
07FFC000
1FFFF000
3FFFF800
3F83FC00
7E00FC00
7C007E00
FC007E00
F8003E00
F8003E00
F8003E00
F8003E00
F8003E00
F8007C00
F800FC00
F803F800
F81FF000
F81FC000
F81FF800
F81FFC00
F801FE00
F8003F00
F8001F00
F8001F80
F8000F80
F8000F80
F8000F80
F8000F80
F8000F80
F8000F80
F8001F00
F8001F00
F8003F00
F8007E00
F801FE00
F87FFC00
F87FF800
F87FE000
003F0000
ENDCHAR
STARTCHAR 00E0
ENCODING 224
SWIDTH 538 0
DWIDTH 28 0
BBX 26 40 2 -1
BITMAP
07E00000
03E00000
01F00000
00F80000
00780000
003C0000
001E0000
000E0000
00000000
00000000
00000000
01FF8000
07FFF000
1FFFF800
3FFFFC00
3F81FC00
7E007E00
7C003E00
7C003E00
00003E00
00003E00
00003E00
0000FE00
001FFE00
03FFFE00
1FFFFE00
3FFE3E00
7F803E00
7E003E00
FC003E00
F8003E00
F8003E00
F8007E00
F800FE00
FC01FE00
7F0FFF00
7FFFBFC0
3FFF1FC0
1FFE1FC0
03F007C0
ENDCHAR
STARTCHAR 00E1
ENCODING 225
SWIDTH 538 0
DWIDTH 28 0
BBX 26 40 2 -1
BITMAP
0007C000
000F8000
001F0000
001E0000
003C0000
00780000
00700000
00E00000
00000000
00000000
00000000
01FF8000
07FFF000
1FFFF800
3FFFFC00
3F81FC00
7E007E00
7C003E00
7C003E00
00003E00
00003E00
00003E00
0000FE00
001FFE00
03FFFE00
1FFFFE00
3FFE3E00
7F803E00
7E003E00
FC003E00
F8003E00
F8003E00
F8007E00
F800FE00
FC01FE00
7F0FFF00
7FFFBFC0
3FFF1FC0
1FFE1FC0
03F007C0
ENDCHAR
STARTCHAR 00E2
ENCODING 226
SWIDTH 538 0
DWIDTH 28 0
BBX 26 39 2 0
BITMAP
007E0000
007F0000
00FF8000
01F78000
01E3C000
03C1C000
0380E000
0700F000
00000000
00000000
01FF8000
07FFF000
1FFFF800
3FFFFC00
3F81FC00
7E007E00
7C003E00
7C003E00
00003E00
00003E00
00003E00
0000FE00
001FFE00
03FFFE00
1FFFFE00
3FFE3E00
7F803E00
7E003E00
FC003E00
F8003E00
F8003E00
F8007E00
F800FE00
FC01FE00
7F0FFF00
7FFFBFC0
3FFF1FC0
1FFE1FC0
03F007C0
ENDCHAR
STARTCHAR 00E3
ENCODING 227
SWIDTH 538 0
DWIDTH 28 0
BBX 26 38 2 -1
BITMAP
00807000
03F0F000
07FFE000
0F7FE000
0E0FC000
00000000
00000000
00000000
00000000
01FF8000
07FFF000
1FFFF800
3FFFFC00
3F81FC00
7E007E00
7C003E00
7C003E00
00003E00
00003E00
00003E00
0000FE00
001FFE00
03FFFE00
1FFFFE00
3FFE3E00
7F803E00
7E003E00
FC003E00
F8003E00
F8003E00
F8007E00
F800FE00
FC01FE00
7F0FFF00
7FFFBFC0
3FFF1FC0
1FFE1FC0
03F007C0
ENDCHAR
STARTCHAR 00E4
ENCODING 228
SWIDTH 538 0
DWIDTH 28 0
BBX 26 39 2 -1
BITMAP
07C1F000
07C1F000
07C1F000
07C1F000
07C1F000
00000000
00000000
00000000
00000000
00000000
01FF8000
07FFF000
1FFFF800
3FFFFC00
3F81FC00
7E007E00
7C003E00
7C003E00
00003E00
00003E00
00003E00
0000FE00
001FFE00
03FFFE00
1FFFFE00
3FFE3E00
7F803E00
7E003E00
FC003E00
F8003E00
F8003E00
F8007E00
F800FE00
FC01FE00
7F0FFF00
7FFFBFC0
3FFF1FC0
1FFE1FC0
03F007C0
ENDCHAR
STARTCHAR 00E5
ENCODING 229
SWIDTH 538 0
DWIDTH 28 0
BBX 26 41 2 -1
BITMAP
003C0000
00FF0000
00FF8000
01E38000
01C3C000
01C1C000
01C3C000
01E38000
01FF8000
00FF0000
003E0000
00000000
01FF8000
07FFF000
1FFFF800
3FFFFC00
3F81FC00
7E007E00
7C003E00
7C003E00
00003E00
00003E00
00003E00
0000FE00
001FFE00
03FFFE00
1FFFFE00
3FFE3E00
7F803E00
7E003E00
FC003E00
F8003E00
F8003E00
F8007E00
F800FE00
FC01FE00
7F0FFF00
7FFFBFC0
3FFF1FC0
1FFE1FC0
03F007C0
ENDCHAR
STARTCHAR 00E6
ENCODING 230
SWIDTH 865 0
DWIDTH 45 0
BBX 42 29 2 -1
BITMAP
01FF003F8000
07FFC0FFF000
1FFFF1FFF800
3FFFFBFFFC00
3F81FFE0FE00
7E007F803F00
7C003F001F80
7C003E000F80
00003E000F80
00003E000780
00003C0007C0
0000FC0007C0
007FFFFFFFC0
07FFFFFFFFC0
1FFFFFFFFFC0
3FFE3FFFFFC0
7FC03C000000
7E003C000000
FC003C000000
F8003C000000
F8003E000780
F8007E000F80
F800FF001F80
FC01FF803F00
7E07E7F0FF00
7FFFC7FFFE00
3FFF03FFFC00
1FFE00FFF000
07F0003FC000
ENDCHAR
STARTCHAR 00E7
ENCODING 231
SWIDTH 500 0
DWIDTH 26 0
BBX 23 39 2 -11
BITMAP
007F00
03FFC0
07FFF0
0FFFF8
1FC1F8
3F00FC
3E007C
7C007C
7C003E
7C0000
F80000
F80000
F80000
F80000
F80000
F80000
F80000
F80000
F80000
7C003E
7C003E
7C007E
3E007C
3F00FC
1FC1F8
0FFFF8
07FFF0
03FFC0
00FF00
003000
003000
007E00
007F00
000F80
000780
000780
070F00
07FF00
00FC00
ENDCHAR
STARTCHAR 00E8
ENCODING 232
SWIDTH 538 0
DWIDTH 28 0
BBX 25 40 2 -1
BITMAP
07E00000
03F00000
01F00000
00F80000
007C0000
003C0000
001E0000
000E0000
00000000
00000000
00000000
007F8000
03FFE000
07FFF000
0FFFFC00
1FC1FC00
3F007E00
3E003E00
7C001F00
7C001F00
7C000F00
F8000F80
F8000F80
FFFFFF80
FFFFFF80
FFFFFF80
FFFFFF80
F8000000
F8000000
F8000000
7C000000
7C001F00
7C001F00
3E003F00
3F007E00
1FC0FE00
0FFFFC00
07FFF800
03FFE000
007F8000
ENDCHAR
STARTCHAR 00E9
ENCODING 233
SWIDTH 538 0
DWIDTH 28 0
BBX 25 40 2 -1
BITMAP
0007E000
0007C000
000F8000
001F0000
001E0000
003C0000
00780000
00700000
00000000
00000000
00000000
007F8000
03FFE000
07FFF000
0FFFFC00
1FC1FC00
3F007E00
3E003E00
7C001F00
7C001F00
7C000F00
F8000F80
F8000F80
FFFFFF80
FFFFFF80
FFFFFF80
FFFFFF80
F8000000
F8000000
F8000000
7C000000
7C001F00
7C001F00
3E003F00
3F007E00
1FC0FE00
0FFFFC00
07FFF800
03FFE000
007F8000
ENDCHAR
STARTCHAR 00EA
ENCODING 234
SWIDTH 538 0
DWIDTH 28 0
BBX 25 39 2 0
BITMAP
007E0000
007F0000
00FF8000
00F78000
01E3C000
03C1C000
0380E000
0700F000
00000000
00000000
007F8000
03FFE000
07FFF000
0FFFFC00
1FC1FC00
3F007E00
3E003E00
7C001F00
7C001F00
7C000F00
F8000F80
F8000F80
FFFFFF80
FFFFFF80
FFFFFF80
FFFFFF80
F8000000
F8000000
F8000000
7C000000
7C001F00
7C001F00
3E003F00
3F007E00
1FC0FE00
0FFFFC00
07FFF800
03FFE000
007F8000
ENDCHAR
STARTCHAR 00EB
ENCODING 235
SWIDTH 538 0
DWIDTH 28 0
BBX 25 39 2 -1
BITMAP
07C1F000
07C1F000
07C1F000
07C1F000
07C1F000
00000000
00000000
00000000
00000000
00000000
007F8000
03FFE000
07FFF000
0FFFFC00
1FC1FC00
3F007E00
3E003E00
7C001F00
7C001F00
7C000F00
F8000F80
F8000F80
FFFFFF80
FFFFFF80
FFFFFF80
FFFFFF80
F8000000
F8000000
F8000000
7C000000
7C001F00
7C001F00
3E003F00
3F007E00
1FC0FE00
0FFFFC00
07FFF800
03FFE000
007F8000
ENDCHAR
STARTCHAR 00EC
ENCODING 236
SWIDTH 230 0
DWIDTH 12 0
BBX 11 39 0 0
BITMAP
FC00
7E00
3E00
1F00
0F80
0780
03C0
01E0
0000
0000
0000
0000
0F80
0F80
0F80
0F80
0F80
0F80
0F80
0F80
0F80
0F80
0F80
0F80
0F80
0F80
0F80
0F80
0F80
0F80
0F80
0F80
0F80
0F80
0F80
0F80
0F80
0F80
0F80
ENDCHAR
STARTCHAR 00ED
ENCODING 237
SWIDTH 230 0
DWIDTH 12 0
BBX 10 39 1 0
BITMAP
07C0
0F80
1F00
1E00
3C00
7C00
7800
F000
0000
0000
0000
0000
1F00
1F00
1F00
1F00
1F00
1F00
1F00
1F00
1F00
1F00
1F00
1F00
1F00
1F00
1F00
1F00
1F00
1F00
1F00
1F00
1F00
1F00
1F00
1F00
1F00
1F00
1F00
ENDCHAR
STARTCHAR 00EE
ENCODING 238
SWIDTH 269 0
DWIDTH 14 0
BBX 15 38 -1 1
BITMAP
07E0
0FE0
0FF0
1E78
3C78
3C3C
781E
F00E
0000
0000
0000
03E0
03E0
03E0
03E0
03E0
03E0
03E0
03E0
03E0
03E0
03E0
03E0
03E0
03E0
03E0
03E0
03E0
03E0
03E0
03E0
03E0
03E0
03E0
03E0
03E0
03E0
03E0
ENDCHAR
STARTCHAR 00EF
ENCODING 239
SWIDTH 269 0
DWIDTH 14 0
BBX 15 38 -1 0
BITMAP
F83E
F83E
F83E
F83E
F83E
0000
0000
0000
0000
0000
0000
03E0
03E0
03E0
03E0
03E0
03E0
03E0
03E0
03E0
03E0
03E0
03E0
03E0
03E0
03E0
03E0
03E0
03E0
03E0
03E0
03E0
03E0
03E0
03E0
03E0
03E0
03E0
ENDCHAR
STARTCHAR 00F0
ENCODING 240
SWIDTH 538 0
DWIDTH 28 0
BBX 25 40 2 -1
BITMAP
04000000
0F010000
1F878000
07FF8000
03FE0000
01FC0000
07FE0000
1FBF0000
0E1F8000
0007C000
0003E000
00FDF000
03FFF800
07FFFC00
1FFFFC00
1FC1FE00
3F007E00
7E003E00
7E003F00
7C001F00
FC001F00
F8000F80
F8000F80
F8000F80
F8000F80
F8000F80
F8000F80
F8000F80
F8000F80
F8000F80
7C001F00
7C001F00
7E003F00
3E003E00
3F007E00
1FC1FC00
0FFFF800
07FFF000
03FFE000
007F0000
ENDCHAR
STARTCHAR 00F1
ENCODING 241
SWIDTH 538 0
DWIDTH 28 0
BBX 22 36 3 1
BITMAP
07E0E0
0FFDE0
0FFFC0
1C1F80
1C0200
000000
000000
000000
003F80
F0FFE0
F3FFF0
F7FFF8
F783F8
FF00FC
FE00FC
FC007C
FC007C
F8007C
F8007C
F8007C
F8007C
F8007C
F8007C
F8007C
F8007C
F8007C
F8007C
F8007C
F8007C
F8007C
F8007C
F8007C
F8007C
F8007C
F8007C
F8007C
ENDCHAR
STARTCHAR 00F2
ENCODING 242
SWIDTH 538 0
DWIDTH 28 0
BBX 25 40 2 -1
BITMAP
07E00000
03F00000
01F00000
00F80000
007C0000
003C0000
001E0000
000F0000
00000000
00000000
00000000
007F0000
03FFE000
07FFF000
0FFFF800
1FC1FC00
3F007E00
3E003E00
7E003F00
7C001F00
7C001F00
F8000F80
F8000F80
F8000F80
F8000F80
F8000F80
F8000F80
F8000F80
F8000F80
F8000F80
7C001F00
7C001F00
7E003F00
3E003E00
3F007E00
1FC1FC00
0FFFF800
07FFF000
03FFE000
007F0000
ENDCHAR
STARTCHAR 00F3
ENCODING 243
SWIDTH 538 0
DWIDTH 28 0
BBX 25 40 2 -1
BITMAP
0007E000
000FC000
000F8000
001F0000
003E0000
003C0000
00780000
00F00000
00000000
00000000
00000000
007F0000
03FFE000
07FFF000
0FFFF800
1FC1FC00
3F007E00
3E003E00
7E003F00
7C001F00
7C001F00
F8000F80
F8000F80
F8000F80
F8000F80
F8000F80
F8000F80
F8000F80
F8000F80
F8000F80
7C001F00
7C001F00
7E003F00
3E003E00
3F007E00
1FC1FC00
0FFFF800
07FFF000
03FFE000
007F0000
ENDCHAR
STARTCHAR 00F4
ENCODING 244
SWIDTH 538 0
DWIDTH 28 0
BBX 25 39 2 0
BITMAP
007E0000
00FE0000
01FF0000
01E78000
03C78000
0783C000
0701E000
0F00E000
00000000
00000000
007F0000
03FFE000
07FFF000
0FFFF800
1FC1FC00
3F007E00
3E003E00
7E003F00
7C001F00
7C001F00
F8000F80
F8000F80
F8000F80
F8000F80
F8000F80
F8000F80
F8000F80
F8000F80
F8000F80
7C001F00
7C001F00
7E003F00
3E003E00
3F007E00
1FC1FC00
0FFFF800
07FFF000
03FFE000
007F0000
ENDCHAR
STARTCHAR 00F5
ENCODING 245
SWIDTH 538 0
DWIDTH 28 0
BBX 25 38 2 -1
BITMAP
00007000
03F0F000
07FFE000
0FFFE000
0E0FC000
00000000
00000000
00000000
00000000
007F0000
03FFE000
07FFF000
0FFFF800
1FC1FC00
3F007E00
3E003E00
7E003F00
7C001F00
7C001F00
F8000F80
F8000F80
F8000F80
F8000F80
F8000F80
F8000F80
F8000F80
F8000F80
F8000F80
7C001F00
7C001F00
7E003F00
3E003E00
3F007E00
1FC1FC00
0FFFF800
07FFF000
03FFE000
007F0000
ENDCHAR
STARTCHAR 00F6
ENCODING 246
SWIDTH 538 0
DWIDTH 28 0
BBX 25 39 2 -1
BITMAP
0F83E000
0F83E000
0F83E000
0F83E000
0F83E000
00000000
00000000
00000000
00000000
00000000
007F0000
03FFE000
07FFF000
0FFFF800
1FC1FC00
3F007E00
3E003E00
7E003F00
7C001F00
7C001F00
F8000F80
F8000F80
F8000F80
F8000F80
F8000F80
F8000F80
F8000F80
F8000F80
F8000F80
7C001F00
7C001F00
7E003F00
3E003E00
3F007E00
1FC1FC00
0FFFF800
07FFF000
03FFE000
007F0000
ENDCHAR
STARTCHAR 00F7
ENCODING 247
SWIDTH 576 0
DWIDTH 30 0
BBX 25 24 3 0
BITMAP
007C0000
007C0000
007C0000
007C0000
007C0000
00000000
00000000
00000000
00000000
00000000
FFFFFF80
FFFFFF80
FFFFFF80
FFFFFF80
00000000
00000000
00000000
00000000
00000000
007C0000
007C0000
007C0000
007C0000
007C0000
ENDCHAR
STARTCHAR 00F8
ENCODING 248
SWIDTH 538 0
DWIDTH 28 0
BBX 27 29 1 -2
BITMAP
007F8040
03FFE0E0
07FFF9C0
0FFFFF80
1FC0FF00
3F003F00
3E001F00
7E003F80
7C007F80
7C00EF80
F801C7C0
F80387C0
F80787C0
F80707C0
F80E07C0
F81C07C0
F83807C0
F87007C0
F8E007C0
7DC00F80
7F800F80
7F001F80
3E001F00
3F003F00
3FC0FE00
7FFFFC00
77FFF800
E1FFF000
C07F8000
ENDCHAR
STARTCHAR 00F9
ENCODING 249
SWIDTH 538 0
DWIDTH 28 0
BBX 22 40 3 -1
BITMAP
0FC000
07C000
03E000
01E000
00F000
007800
003800
001C00
000000
000000
000000
000000
F8007C
F8007C
F8007C
F8007C
F8007C
F8007C
F8007C
F8007C
F8007C
F8007C
F8007C
F8007C
F8007C
F8007C
F8007C
F8007C
F8007C
F8007C
F8007C
F800FC
F800FC
FC01FC
FC03FC
7F07FC
7FFFBC
3FFF3C
1FFE3C
07F000
ENDCHAR
STARTCHAR 00FA
ENCODING 250
SWIDTH 538 0
DWIDTH 28 0
BBX 22 40 3 -1
BITMAP
0007E0
000FC0
001F80
001F00
003E00
003C00
007800
00F000
000000
000000
000000
000000
F8007C
F8007C
F8007C
F8007C
F8007C
F8007C
F8007C
F8007C
F8007C
F8007C
F8007C
F8007C
F8007C
F8007C
F8007C
F8007C
F8007C
F8007C
F8007C
F800FC
F800FC
FC01FC
FC03FC
7F07FC
7FFFBC
3FFF3C
1FFE3C
07F000
ENDCHAR
STARTCHAR 00FB
ENCODING 251
SWIDTH 538 0
DWIDTH 28 0
BBX 22 39 3 0
BITMAP
00FC00
01FE00
01FE00
03CF00
078700
078780
0F03C0
0E01C0
000000
000000
000000
F8007C
F8007C
F8007C
F8007C
F8007C
F8007C
F8007C
F8007C
F8007C
F8007C
F8007C
F8007C
F8007C
F8007C
F8007C
F8007C
F8007C
F8007C
F8007C
F800FC
F800FC
FC01FC
FC03FC
7F07FC
7FFFBC
3FFF3C
1FFE3C
07F000
ENDCHAR
STARTCHAR 00FC
ENCODING 252
SWIDTH 538 0
DWIDTH 28 0
BBX 22 39 3 -1
BITMAP
1F07C0
1F07C0
1F07C0
1F07C0
1F07C0
000000
000000
000000
000000
000000
000000
F8007C
F8007C
F8007C
F8007C
F8007C
F8007C
F8007C
F8007C
F8007C
F8007C
F8007C
F8007C
F8007C
F8007C
F8007C
F8007C
F8007C
F8007C
F8007C
F800FC
F800FC
FC01FC
FC03FC
7F07FC
7FFFBC
3FFF3C
1FFE3C
07F000
ENDCHAR
STARTCHAR 00FD
ENCODING 253
SWIDTH 480 0
DWIDTH 25 0
BBX 23 50 1 -11
BITMAP
0007E0
0007C0
000F80
001F00
001E00
003C00
003800
007000
000000
000000
000000
000000
F0003E
F8003E
F8003C
78007C
7C007C
7C0078
3C00F8
3E00F0
3E01F0
1E01F0
1F01E0
1F03E0
0F03E0
0F83C0
0F87C0
078780
07C780
07CF80
03CF00
03EF00
03FF00
01FE00
01FE00
01FE00
00FC00
00FC00
00F800
00F800
00F800
00F000
01F000
01F000
03E000
07E000
7FC000
7F8000
7F0000
3E0000
ENDCHAR
STARTCHAR 00FE
ENCODING 254
SWIDTH 557 0
DWIDTH 29 0
BBX 25 48 3 -11
BITMAP
F8000000
F8000000
F8000000
F8000000
F8000000
F8000000
F8000000
F8000000
F8000000
F83F8000
F8FFE000
FBFFF000
FFFFF800
FFC1FC00
FF007E00
FE003E00
FE003F00
FC001F00
FC001F00
F8000F80
F8000F80
F8000F80
F8000F80
F8000F80
F8000F80
F8000F80
F8000F80
F8000F80
FC001F00
FC001F00
FE003F00
FE003E00
FF007E00
FFC1FC00
FFFFF800
FBFFF000
F8FFE000
F83F8000
F8000000
F8000000
F8000000
F8000000
F8000000
F8000000
F8000000
F8000000
F8000000
F8000000
ENDCHAR
STARTCHAR 00FF
ENCODING 255
SWIDTH 480 0
DWIDTH 25 0
BBX 23 49 1 -11
BITMAP
0F83E0
0F83E0
0F83E0
0F83E0
0F83E0
000000
000000
000000
000000
000000
000000
F0003E
F8003E
F8003C
78007C
7C007C
7C0078
3C00F8
3E00F0
3E01F0
1E01F0
1F01E0
1F03E0
0F03E0
0F83C0
0F87C0
078780
07C780
07CF80
03CF00
03EF00
03FF00
01FE00
01FE00
01FE00
00FC00
00FC00
00F800
00F800
00F800
00F000
01F000
01F000
03E000
07E000
7FC000
7F8000
7F0000
3E0000
ENDCHAR
STARTCHAR 0100
ENCODING 256
SWIDTH 673 0
DWIDTH 35 0
BBX 33 45 1 0
BITMAP
007FFE0000
007FFE0000
007FFE0000
007FFE0000
0000000000
0000000000
0000000000
0007F00000
0007F00000
000FF00000
000FF80000
000FF80000
001FF80000
001F7C0000
001F7C0000
003E7E0000
003E3E0000
003E3E0000
007C3F0000
007C1F0000
00FC1F0000
00F81F8000
00F80F8000
01F00F8000
01F00FC000
01F007C000
03E007C000
03E007E000
03E003E000
07C003E000
07FFFFF000
07FFFFF000
0FFFFFF000
0FFFFFF800
1F8000F800
1F0000FC00
1F0000FC00
3F00007C00
3E00007E00
3E00007E00
7E00003E00
7C00003F00
7C00001F00
F800001F00
F800001F80
ENDCHAR
STARTCHAR 0101
ENCODING 257
SWIDTH 538 0
DWIDTH 28 0
BBX 26 36 2 -1
BITMAP
07FFE000
07FFE000
07FFE000
07FFE000
00000000
00000000
00000000
01FF8000
07FFF000
1FFFF800
3FFFFC00
3F81FC00
7E007E00
7C003E00
7C003E00
00003E00
00003E00
00003E00
0000FE00
001FFE00
03FFFE00
1FFFFE00
3FFE3E00
7F803E00
7E003E00
FC003E00
F8003E00
F8003E00
F8007E00
F800FE00
FC01FE00
7F0FFF00
7FFFBFC0
3FFF1FC0
1FFE1FC0
03F007C0
ENDCHAR
STARTCHAR 0102
ENCODING 258
SWIDTH 673 0
DWIDTH 35 0
BBX 33 47 1 0
BITMAP
0070070000
0070070000
00780F0000
003FFE0000
003FFE0000
001FFC0000
000FF00000
0000000000
0000000000
0007F00000
0007F00000
000FF00000
000FF80000
000FF80000
001FF80000
001F7C0000
001F7C0000
003E7E0000
003E3E0000
003E3E0000
007C3F0000
007C1F0000
00FC1F0000
00F81F8000
00F80F8000
01F00F8000
01F00FC000
01F007C000
03E007C000
03E007E000
03E003E000
07C003E000
07FFFFF000
07FFFFF000
0FFFFFF000
0FFFFFF800
1F8000F800
1F0000FC00
1F0000FC00
3F00007C00
3E00007E00
3E00007E00
7E00003E00
7C00003F00
7C00001F00
F800001F00
F800001F80
ENDCHAR
STARTCHAR 0103
ENCODING 259
SWIDTH 538 0
DWIDTH 28 0
BBX 26 39 2 -1
BITMAP
07007000
0700F000
0781E000
07FFE000
03FFC000
01FFC000
00FF0000
00000000
00000000
00000000
01FF8000
07FFF000
1FFFF800
3FFFFC00
3F81FC00
7E007E00
7C003E00
7C003E00
00003E00
00003E00
00003E00
0000FE00
001FFE00
03FFFE00
1FFFFE00
3FFE3E00
7F803E00
7E003E00
FC003E00
F8003E00
F8003E00
F8007E00
F800FE00
FC01FE00
7F0FFF00
7FFFBFC0
3FFF1FC0
1FFE1FC0
03F007C0
ENDCHAR
STARTCHAR 0104
ENCODING 260
SWIDTH 673 0
DWIDTH 35 0
BBX 35 49 1 -11
BITMAP
0007F00000
0007F00000
0007F80000
000FF80000
000FF80000
001F7C0000
001F7C0000
001F7C0000
003E3E0000
003E3E0000
003E3E0000
007C1F0000
007C1F0000
007C1F0000
00F80F8000
00F80F8000
00F80F8000
01F00FC000
01F007C000
03E007C000
03E007E000
03E003E000
07C003F000
07FFFFF000
07FFFFF000
0FFFFFF800
0FFFFFF800
0F8000F800
1F8000FC00
1F00007C00
1F00007C00
3E00007E00
3E00003E00
7E00003E00
7C00003F00
7C00001F00
FC00001F00
F800001F80
0000000F00
0000001E00
0000007800
0000007800
000000F000
000000F000
000000F000
000000F000
0000007800
0000003FE0
0000000FE0
ENDCHAR
STARTCHAR 0105
ENCODING 261
SWIDTH 538 0
DWIDTH 28 0
BBX 28 39 2 -11
BITMAP
01FF8000
07FFF000
1FFFF800
3FFFFC00
3F81FC00
7E007E00
7C003E00
7C003E00
00003E00
00003E00
00003E00
0000FE00
001FFE00
03FFFE00
1FFFFE00
3FFE3E00
7F803E00
7E003E00
FC003E00
F8003E00
F8003E00
F8007E00
F800FE00
FC01FE00
7E07FE00
7FFFBFC0
3FFF3FC0
1FFE1FC0
03F80FC0
00000F80
00001E00
00003C00
00003800
00003800
00003800
00003800
00001C00
00001FF0
000007F0
ENDCHAR
STARTCHAR 0106
ENCODING 262
SWIDTH 711 0
DWIDTH 37 0
BBX 33 48 2 -1
BITMAP
00003F0000
00007E0000
00007C0000
0000F80000
0001E00000
0003C00000
0007800000
0000000000
0007FC0000
003FFF8000
00FFFFE000
01FFFFF000
03F807F800
07E001F800
0FC000FC00
1F80007E00
1F00003E00
3E00003E00
3E00001F00
7C00001F00
7C00000000
7C00000000
7C00000000
F800000000
F800000000
F800000000
F800000000
F800000000
F800000000
F800000000
F800000000
F800000000
F800000000
FC00000F80
7C00000F80
7C00001F80
7C00001F00
3E00001F00
3E00003F00
1F00003E00
1F80007E00
0FC000FC00
0FE001FC00
07FC07F800
03FFFFF000
00FFFFE000
003FFF8000
0007FC0000
ENDCHAR
STARTCHAR 0107
ENCODING 263
SWIDTH 500 0
DWIDTH 26 0
BBX 23 40 2 -1
BITMAP
0007E0
000FC0
000F80
001F00
003E00
003C00
007800
00F000
000000
000000
000000
00FF00
03FFC0
07FFF0
0FFFF8
1F83F8
3F00FC
3E007C
7C007C
7C003E
7C0000
F80000
F80000
F80000
F80000
F80000
F80000
F80000
F80000
F80000
FC003E
7C003E
7C007E
7E007C
3F00FC
1F83F8
1FFFF0
0FFFE0
03FFC0
00FF00
ENDCHAR
STARTCHAR 0108
ENCODING 264
SWIDTH 711 0
DWIDTH 37 0
BBX 33 48 2 -1
BITMAP
0001F00000
0003F80000
0007FC0000
000FFC0000
000F1E0000
001E0F0000
003C078000
0000000000
0007FC0000
003FFF8000
00FFFFE000
01FFFFF000
03F807F800
07E001F800
0FC000FC00
1F80007E00
1F00003E00
3E00003E00
3E00001F00
7C00001F00
7C00000000
7C00000000
7C00000000
F800000000
F800000000
F800000000
F800000000
F800000000
F800000000
F800000000
F800000000
F800000000
F800000000
FC00000F80
7C00000F80
7C00001F80
7C00001F00
3E00001F00
3E00003F00
1F00003E00
1F80007E00
0FC000FC00
0FE001FC00
07FC07F800
03FFFFF000
00FFFFE000
003FFF8000
0007FC0000
ENDCHAR
STARTCHAR 0109
ENCODING 265
SWIDTH 500 0
DWIDTH 26 0
BBX 23 38 2 0
BITMAP
007E00
00FE00
01FF00
01EF00
03C780
0383C0
0701C0
0F00E0
000000
00FF00
03FFC0
07FFF0
0FFFF8
1F83F8
3F00FC
3E007C
7C007C
7C003E
7C0000
F80000
F80000
F80000
F80000
F80000
F80000
F80000
F80000
F80000
FC003E
7C003E
7C007E
7E007C
3F00FC
1F83F8
1FFFF0
0FFFE0
03FFC0
00FF00
ENDCHAR
STARTCHAR 010A
ENCODING 266
SWIDTH 711 0
DWIDTH 37 0
BBX 33 48 2 -1
BITMAP
0001F00000
0001F00000
0001F00000
0001F00000
0001F00000
0000000000
0000000000
0000000000
0007FC0000
003FFF8000
00FFFFE000
01FFFFF000
03F807F800
07E001F800
0FC000FC00
1F80007E00
1F00003E00
3E00003E00
3E00001F00
7C00001F00
7C00000000
7C00000000
7C00000000
F800000000
F800000000
F800000000
F800000000
F800000000
F800000000
F800000000
F800000000
F800000000
F800000000
FC00000F80
7C00000F80
7C00001F80
7C00001F00
3E00001F00
3E00003F00
1F00003E00
1F80007E00
0FC000FC00
0FE001FC00
07FC07F800
03FFFFF000
00FFFFE000
003FFF8000
0007FC0000
ENDCHAR
STARTCHAR 010B
ENCODING 267
SWIDTH 500 0
DWIDTH 26 0
BBX 23 39 2 -1
BITMAP
007C00
007C00
007C00
007C00
007C00
000000
000000
000000
000000
000000
00FF00
03FFC0
07FFF0
0FFFF8
1F83F8
3F00FC
3E007C
7C007C
7C003E
7C0000
F80000
F80000
F80000
F80000
F80000
F80000
F80000
F80000
F80000
FC003E
7C003E
7C007E
7E007C
3F00FC
1F83F8
1FFFF0
0FFFE0
03FFC0
00FF00
ENDCHAR
STARTCHAR 010C
ENCODING 268
SWIDTH 711 0
DWIDTH 37 0
BBX 33 48 2 -1
BITMAP
003C078000
001E0F0000
000F1E0000
0007FE0000
0007FC0000
0003F80000
0001F00000
0000000000
0007FC0000
003FFF8000
00FFFFE000
01FFFFF000
03F807F800
07E001F800
0FC000FC00
1F80007E00
1F00003E00
3E00003E00
3E00001F00
7C00001F00
7C00000000
7C00000000
7C00000000
F800000000
F800000000
F800000000
F800000000
F800000000
F800000000
F800000000
F800000000
F800000000
F800000000
FC00000F80
7C00000F80
7C00001F80
7C00001F00
3E00001F00
3E00003F00
1F00003E00
1F80007E00
0FC000FC00
0FE001FC00
07FC07F800
03FFFFF000
00FFFFE000
003FFF8000
0007FC0000
ENDCHAR
STARTCHAR 010D
ENCODING 269
SWIDTH 500 0
DWIDTH 26 0
BBX 23 40 2 -1
BITMAP
0F00E0
0781E0
0383C0
03C380
01E780
00FF00
00FF00
007E00
000000
000000
000000
00FF00
03FFC0
07FFF0
0FFFF8
1F83F8
3F00FC
3E007C
7C007C
7C003E
7C0000
F80000
F80000
F80000
F80000
F80000
F80000
F80000
F80000
F80000
FC003E
7C003E
7C007E
7E007C
3F00FC
1F83F8
1FFFF0
0FFFE0
03FFC0
00FF00
ENDCHAR
STARTCHAR 010E
ENCODING 270
SWIDTH 692 0
DWIDTH 36 0
BBX 30 47 4 0
BITMAP
03C07800
01E0F000
00F1E000
007FE000
007FC000
003F8000
001F0000
00000000
00000000
FFFFE000
FFFFFC00
FFFFFE00
FFFFFF00
F8007F80
F8000FC0
F80007E0
F80003F0
F80001F0
F80001F0
F80000F8
F80000F8
F80000F8
F80000FC
F800007C
F800007C
F800007C
F800007C
F800007C
F800007C
F800007C
F800007C
F800007C
F800007C
F80000FC
F80000F8
F80000F8
F80000F8
F80001F0
F80001F0
F80003F0
F80007E0
F8000FC0
F8007F80
FFFFFF00
FFFFFE00
FFFFFC00
FFFFE000
ENDCHAR
STARTCHAR 010F
ENCODING 271
SWIDTH 750 0
DWIDTH 39 0
BBX 36 40 2 -1
BITMAP
00000003F0
00000F83E0
00000F87C0
00000F8780
00000F8700
00000F8F00
00000F8E00
00000F9C00
00000F8000
00000F8000
00000F8000
00FE0F8000
03FF8F8000
07FFEF8000
0FFFFF8000
1FC1FF8000
3F007F8000
3E003F8000
7E003F8000
7C001F8000
7C001F8000
F8000F8000
F8000F8000
F8000F8000
F8000F8000
F8000F8000
F8000F8000
F8000F8000
F8000F8000
F8000F8000
7C001F8000
7C001F8000
7E003F8000
3E003F8000
3F007F8000
1FC1FF8000
0FFFF78000
07FFE78000
03FFC78000
00FF000000
ENDCHAR
STARTCHAR 0110
ENCODING 272
SWIDTH 711 0
DWIDTH 37 0
BBX 33 38 2 0
BITMAP
1FFFFC0000
1FFFFF0000
1FFFFFC000
1FFFFFE000
1F000FF000
1F0001F800
1F0000FC00
1F00007C00
1F00003E00
1F00003E00
1F00001F00
1F00001F00
1F00001F00
1F00001F80
1F00000F80
1F00000F80
1F00000F80
FFFF000F80
FFFF000F80
FFFF000F80
1F00000F80
1F00000F80
1F00000F80
1F00000F80
1F00001F80
1F00001F00
1F00001F00
1F00001F00
1F00003E00
1F00003E00
1F00007C00
1F0000FC00
1F0001F800
1F000FF000
1FFFFFE000
1FFFFFC000
1FFFFF8000
1FFFFC0000
ENDCHAR
STARTCHAR 0111
ENCODING 273
SWIDTH 576 0
DWIDTH 30 0
BBX 28 39 2 -1
BITMAP
00000F80
00000F80
00000F80
00000F80
0007FFF0
0007FFF0
0007FFF0
00000F80
00000F80
00000F80
00FE0F80
03FF8F80
07FFEF80
0FFFFF80
1FC1FF80
3F007F80
3E003F80
7E003F80
7C001F80
7C001F80
F8000F80
F8000F80
F8000F80
F8000F80
F8000F80
F8000F80
F8000F80
F8000F80
F8000F80
7C001F80
7C001F80
7E003F80
3E003F80
3F007F80
1FC1FF80
0FFFFF80
07FFE780
03FFC780
00FE0000
ENDCHAR
STARTCHAR 0112
ENCODING 274
SWIDTH 634 0
DWIDTH 33 0
BBX 27 45 4 0
BITMAP
03FFF000
03FFF000
03FFF000
03FFF000
00000000
00000000
00000000
FFFFFFC0
FFFFFFC0
FFFFFFC0
FFFFFFC0
F8000000
F8000000
F8000000
F8000000
F8000000
F8000000
F8000000
F8000000
F8000000
F8000000
F8000000
F8000000
F8000000
FFFFFF80
FFFFFF80
FFFFFF80
FFFFFF80
F8000000
F8000000
F8000000
F8000000
F8000000
F8000000
F8000000
F8000000
F8000000
F8000000
F8000000
F8000000
F8000000
FFFFFFE0
FFFFFFE0
FFFFFFE0
FFFFFFE0
ENDCHAR
STARTCHAR 0113
ENCODING 275
SWIDTH 538 0
DWIDTH 28 0
BBX 25 36 2 -1
BITMAP
07FFE000
07FFE000
07FFE000
07FFE000
00000000
00000000
00000000
007F8000
03FFE000
07FFF000
0FFFFC00
1FC1FC00
3F007E00
3E003E00
7C001F00
7C001F00
7C000F00
F8000F80
F8000F80
FFFFFF80
FFFFFF80
FFFFFF80
FFFFFF80
F8000000
F8000000
F8000000
7C000000
7C001F00
7C001F00
3E003F00
3F007E00
1FC0FE00
0FFFFC00
07FFF800
03FFE000
007F8000
ENDCHAR
STARTCHAR 0114
ENCODING 276
SWIDTH 634 0
DWIDTH 33 0
BBX 27 47 4 0
BITMAP
03803800
03C03800
03E07800
01FFF000
01FFF000
00FFE000
003FC000
00000000
00000000
FFFFFFC0
FFFFFFC0
FFFFFFC0
FFFFFFC0
F8000000
F8000000
F8000000
F8000000
F8000000
F8000000
F8000000
F8000000
F8000000
F8000000
F8000000
F8000000
F8000000
FFFFFF80
FFFFFF80
FFFFFF80
FFFFFF80
F8000000
F8000000
F8000000
F8000000
F8000000
F8000000
F8000000
F8000000
F8000000
F8000000
F8000000
F8000000
F8000000
FFFFFFE0
FFFFFFE0
FFFFFFE0
FFFFFFE0
ENDCHAR
STARTCHAR 0115
ENCODING 277
SWIDTH 538 0
DWIDTH 28 0
BBX 25 39 2 -1
BITMAP
07007000
0700F000
0781E000
03FFE000
03FFE000
01FFC000
007F0000
00000000
00000000
00000000
007F8000
03FFE000
07FFF000
0FFFFC00
1FC1FC00
3F007E00
3E003E00
7C001F00
7C001F00
7C000F00
F8000F80
F8000F80
FFFFFF80
FFFFFF80
FFFFFF80
FFFFFF80
F8000000
F8000000
F8000000
7C000000
7C001F00
7C001F00
3E003F00
3F007E00
1FC0FE00
0FFFFC00
07FFF800
03FFE000
007F8000
ENDCHAR
STARTCHAR 0116
ENCODING 278
SWIDTH 634 0
DWIDTH 33 0
BBX 27 47 4 0
BITMAP
001F0000
001F0000
001F0000
001F0000
001F0000
00000000
00000000
00000000
00000000
FFFFFFC0
FFFFFFC0
FFFFFFC0
FFFFFFC0
F8000000
F8000000
F8000000
F8000000
F8000000
F8000000
F8000000
F8000000
F8000000
F8000000
F8000000
F8000000
F8000000
FFFFFF80
FFFFFF80
FFFFFF80
FFFFFF80
F8000000
F8000000
F8000000
F8000000
F8000000
F8000000
F8000000
F8000000
F8000000
F8000000
F8000000
F8000000
F8000000
FFFFFFE0
FFFFFFE0
FFFFFFE0
FFFFFFE0
ENDCHAR
STARTCHAR 0117
ENCODING 279
SWIDTH 538 0
DWIDTH 28 0
BBX 25 39 2 -1
BITMAP
003E0000
003E0000
003E0000
003E0000
003E0000
00000000
00000000
00000000
00000000
00000000
007F8000
03FFE000
07FFF000
0FFFFC00
1FC1FC00
3F007E00
3E003E00
7C001F00
7C001F00
7C000F00
F8000F80
F8000F80
FFFFFF80
FFFFFF80
FFFFFF80
FFFFFF80
F8000000
F8000000
F8000000
7C000000
7C001F00
7C001F00
3E003F00
3F007E00
1FC0FE00
0FFFFC00
07FFF800
03FFE000
007F8000
ENDCHAR
STARTCHAR 0118
ENCODING 280
SWIDTH 634 0
DWIDTH 33 0
BBX 30 49 4 -11
BITMAP
FFFFFFC0
FFFFFFC0
FFFFFFC0
FFFFFFC0
F8000000
F8000000
F8000000
F8000000
F8000000
F8000000
F8000000
F8000000
F8000000
F8000000
F8000000
F8000000
F8000000
FFFFFFC0
FFFFFFC0
FFFFFFC0
FFFFFFC0
F8000000
F8000000
F8000000
F8000000
F8000000
F8000000
F8000000
F8000000
F8000000
F8000000
F8000000
F8000000
F8000000
FFFFFFE0
FFFFFFE0
FFFFFFE0
FFFFFFE0
000001C0
00000780
00000F00
00000F00
00001E00
00001E00
00001E00
00001E00
00000F00
000007FC
000001FC
ENDCHAR
STARTCHAR 0119
ENCODING 281
SWIDTH 538 0
DWIDTH 28 0
BBX 25 39 2 -11
BITMAP
00FF0000
03FFE000
07FFF000
0FFFF800
1FC1FC00
3F007E00
3E003E00
7C001F00
7C001F00
7C000F00
F8000F80
F8000F80
FFFFFF80
FFFFFF80
FFFFFF80
FFFFFF80
F8000000
F8000000
F8000000
F8000000
7C001F00
7C001F00
7E003F00
3F007E00
1FC1FC00
1FFFFC00
0FFFF800
03FFF000
00FFE000
0001C000
00038000
00070000
000F0000
000F0000
000F0000
000F0000
00078100
0003FF00
0000FF00
ENDCHAR
STARTCHAR 011A
ENCODING 282
SWIDTH 634 0
DWIDTH 33 0
BBX 27 47 4 0
BITMAP
03C07800
01E0F000
00F1E000
007FE000
007FC000
003F8000
001F0000
00000000
00000000
FFFFFFC0
FFFFFFC0
FFFFFFC0
FFFFFFC0
F8000000
F8000000
F8000000
F8000000
F8000000
F8000000
F8000000
F8000000
F8000000
F8000000
F8000000
F8000000
F8000000
FFFFFF80
FFFFFF80
FFFFFF80
FFFFFF80
F8000000
F8000000
F8000000
F8000000
F8000000
F8000000
F8000000
F8000000
F8000000
F8000000
F8000000
F8000000
F8000000
FFFFFFE0
FFFFFFE0
FFFFFFE0
FFFFFFE0
ENDCHAR
STARTCHAR 011B
ENCODING 283
SWIDTH 538 0
DWIDTH 28 0
BBX 25 39 2 0
BITMAP
03C0F000
01C0E000
01E1E000
00F3C000
007F8000
007F8000
003F0000
003F0000
00000000
00000000
007F8000
03FFE000
07FFF000
0FFFFC00
1FC1FC00
3F007E00
3E003E00
7C001F00
7C001F00
7C000F00
F8000F80
F8000F80
FFFFFF80
FFFFFF80
FFFFFF80
FFFFFF80
F8000000
F8000000
F8000000
7C000000
7C001F00
7C001F00
3E003F00
3F007E00
1FC0FE00
0FFFFC00
07FFF800
03FFE000
007F8000
ENDCHAR
STARTCHAR 011C
ENCODING 284
SWIDTH 769 0
DWIDTH 40 0
BBX 35 48 2 -1
BITMAP
0000F80000
0001FC0000
0003FE0000
0007FE0000
00078F0000
000F078000
001E03C000
0000000000
0003FE0000
001FFFC000
007FFFF000
01FFFFF800
03FE03FC00
07F000FE00
0FE0003F00
1F80001F00
1F80000F80
3F00000F80
3E000007C0
3E000007C0
7C00000000
7C00000000
7C00000000
F800000000
F800000000
F800000000
F800000000
F8000FFFE0
F8000FFFE0
F8000FFFE0
F8000FFFE0
F8000003E0
F8000003E0
FC000003E0
7C000003E0
7C000003E0
7E000007E0
3E000007E0
3F00000FE0
1F00000FE0
1F80001FE0
0FC0003FE0
07F000FFE0
03FE03F9E0
01FFFFF1E0
00FFFFC1E0
003FFF00E0
0007F80000
ENDCHAR
STARTCHAR 011D
ENCODING 285
SWIDTH 557 0
DWIDTH 29 0
BBX 24 49 2 -11
BITMAP
003E00
007F00
007F80
00F780
01E3C0
01E1C0
03C1E0
0780F0
000000
000000
00FE00
03FF1F
07FFDF
0FFFFF
1FC1FF
3F00FF
3E007F
7E003F
7C003F
7C003F
F8001F
F8001F
F8001F
F8001F
F8001F
F8001F
F8001F
F8001F
F8001F
7C003F
7C003F
7C003F
3E007F
3F00FF
1FC1FF
0FFFDF
07FF9F
03FF1F
00FC1F
00001F
00003E
7C003E
7C003E
3E007C
3F81FC
1FFFF8
0FFFF0
07FFE0
00FF00
ENDCHAR
STARTCHAR 011E
ENCODING 286
SWIDTH 769 0
DWIDTH 40 0
BBX 35 48 2 -1
BITMAP
001C03C000
001C038000
001E078000
001FFF8000
000FFF0000
0007FE0000
0003FC0000
0000000000
0003FE0000
001FFFC000
007FFFF000
01FFFFF800
03FE03FC00
07F000FE00
0FE0003F00
1F80001F00
1F80000F80
3F00000F80
3E000007C0
3E000007C0
7C00000000
7C00000000
7C00000000
F800000000
F800000000
F800000000
F800000000
F8000FFFE0
F8000FFFE0
F8000FFFE0
F8000FFFE0
F8000003E0
F8000003E0
FC000003E0
7C000003E0
7C000003E0
7E000007E0
3E000007E0
3F00000FE0
1F00000FE0
1F80001FE0
0FC0003FE0
07F000FFE0
03FE03F9E0
01FFFFF1E0
00FFFFC1E0
003FFF00E0
0007F80000
ENDCHAR
STARTCHAR 011F
ENCODING 287
SWIDTH 557 0
DWIDTH 29 0
BBX 24 49 2 -11
BITMAP
0E00E0
0F00E0
0F83E0
07FFC0
07FFC0
03FF80
00FE00
000000
000000
000000
00FE00
03FF1F
07FFDF
0FFFFF
1FC1FF
3F00FF
3E007F
7E003F
7C003F
7C003F
F8001F
F8001F
F8001F
F8001F
F8001F
F8001F
F8001F
F8001F
F8001F
7C003F
7C003F
7C003F
3E007F
3F00FF
1FC1FF
0FFFDF
07FF9F
03FF1F
00FC1F
00001F
00003E
7C003E
7C003E
3E007C
3F81FC
1FFFF8
0FFFF0
07FFE0
00FF00
ENDCHAR
STARTCHAR 0120
ENCODING 288
SWIDTH 769 0
DWIDTH 40 0
BBX 35 48 2 -1
BITMAP
0001F00000
0001F00000
0001F00000
0001F00000
0001F00000
0000000000
0000000000
0000000000
0003FE0000
001FFFC000
007FFFF000
01FFFFF800
03FE03FC00
07F000FE00
0FE0003F00
1F80001F00
1F80000F80
3F00000F80
3E000007C0
3E000007C0
7C00000000
7C00000000
7C00000000
F800000000
F800000000
F800000000
F800000000
F8000FFFE0
F8000FFFE0
F8000FFFE0
F8000FFFE0
F8000003E0
F8000003E0
FC000003E0
7C000003E0
7C000003E0
7E000007E0
3E000007E0
3F00000FE0
1F00000FE0
1F80001FE0
0FC0003FE0
07F000FFE0
03FE03F9E0
01FFFFF1E0
00FFFFC1E0
003FFF00E0
0007F80000
ENDCHAR
STARTCHAR 0121
ENCODING 289
SWIDTH 557 0
DWIDTH 29 0
BBX 24 49 2 -11
BITMAP
007C00
007C00
007C00
007C00
007C00
000000
000000
000000
000000
000000
00FE00
03FF1F
07FFDF
0FFFFF
1FC1FF
3F00FF
3E007F
7E003F
7C003F
7C003F
F8001F
F8001F
F8001F
F8001F
F8001F
F8001F
F8001F
F8001F
F8001F
7C003F
7C003F
7C003F
3E007F
3F00FF
1FC1FF
0FFFDF
07FF9F
03FF1F
00FC1F
00001F
00003E
7C003E
7C003E
3E007C
3F81FC
1FFFF8
0FFFF0
07FFE0
00FF00
ENDCHAR
STARTCHAR 0122
ENCODING 290
SWIDTH 769 0
DWIDTH 40 0
BBX 35 55 2 -16
BITMAP
0003FE0000
001FFFC000
007FFFF000
01FFFFF800
03FE03FC00
07F000FE00
0FE0003F00
1F80001F00
1F80000F80
3F00000F80
3E000007C0
3E000007C0
7C00000000
7C00000000
7C00000000
F800000000
F800000000
F800000000
F800000000
F8000FFFE0
F8000FFFE0
F8000FFFE0
F8000FFFE0
F8000003E0
F8000003E0
FC000003E0
7C000003E0
7C000003E0
7E000007E0
3E000007E0
3F00000FE0
1F00000FE0
1F80001FE0
0FC0003FE0
07F000FFE0
03FE03F9E0
01FFFFF1E0
00FFFFC1E0
003FFF00E0
0007F80000
0000000000
0000000000
0000000000
0001F00000
0001F00000
0001F00000
0001F00000
0001F00000
0000300000
0000300000
0000300000
0000700000
0000600000
0001E00000
0001800000
ENDCHAR
STARTCHAR 0123
ENCODING 291
SWIDTH 557 0
DWIDTH 29 0
BBX 24 50 2 -11
BITMAP
000C00
003C00
007000
006000
006000
007C00
007C00
007C00
007C00
000000
000000
00FE00
03FF1F
07FFDF
0FFFFF
1FC1FF
3F00FF
3E007F
7E003F
7C003F
7C003F
F8001F
F8001F
F8001F
F8001F
F8001F
F8001F
F8001F
F8001F
F8001F
7C003F
7C003F
7C003F
3E007F
3F00FF
1FC1FF
0FFFDF
07FF9F
03FF1F
00FC1F
00001F
00003E
7C003E
7C003E
3E007C
3F81FC
1FFFF8
0FFFF0
07FFE0
00FF00
ENDCHAR
STARTCHAR 0124
ENCODING 292
SWIDTH 711 0
DWIDTH 37 0
BBX 29 47 4 0
BITMAP
000F8000
001FC000
003FE000
007FE000
0078F000
00F07800
01E03C00
00000000
00000000
F80000F8
F80000F8
F80000F8
F80000F8
F80000F8
F80000F8
F80000F8
F80000F8
F80000F8
F80000F8
F80000F8
F80000F8
F80000F8
F80000F8
F80000F8
F80000F8
F80000F8
FFFFFFF8
FFFFFFF8
FFFFFFF8
FFFFFFF8
F80000F8
F80000F8
F80000F8
F80000F8
F80000F8
F80000F8
F80000F8
F80000F8
F80000F8
F80000F8
F80000F8
F80000F8
F80000F8
F80000F8
F80000F8
F80000F8
F80000F8
ENDCHAR
STARTCHAR 0125
ENCODING 293
SWIDTH 538 0
DWIDTH 28 0
BBX 22 47 3 1
BITMAP
007E00
007F00
00FF00
01F780
01E3C0
03C1C0
0381E0
0700F0
000000
F80000
F80000
F80000
F80000
F80000
F80000
F80000
F80000
F80000
F80000
F83F80
F8FFE0
F9FFF0
FBFFF8
FF83F8
FF00FC
FE00FC
FC007C
FC007C
F8007C
F8007C
F8007C
F8007C
F8007C
F8007C
F8007C
F8007C
F8007C
F8007C
F8007C
F8007C
F8007C
F8007C
F8007C
F8007C
F8007C
F8007C
F8007C
ENDCHAR
STARTCHAR 0126
ENCODING 294
SWIDTH 730 0
DWIDTH 38 0
BBX 33 38 2 0
BITMAP
3E00003E00
3E00003E00
3E00003E00
3E00003E00
3E00003E00
3E00003E00
3E00003E00
3E00003E00
FFFFFFFF80
FFFFFFFF80
FFFFFFFF80
FFFFFFFF80
3E00003E00
3E00003E00
3E00003E00
3E00003E00
3E00003E00
3FFFFFFE00
3FFFFFFE00
3FFFFFFE00
3FFFFFFE00
3E00003E00
3E00003E00
3E00003E00
3E00003E00
3E00003E00
3E00003E00
3E00003E00
3E00003E00
3E00003E00
3E00003E00
3E00003E00
3E00003E00
3E00003E00
3E00003E00
3E00003E00
3E00003E00
3E00003E00
ENDCHAR
STARTCHAR 0127
ENCODING 295
SWIDTH 557 0
DWIDTH 29 0
BBX 24 38 2 0
BITMAP
3E0000
3E0000
3E0000
3E0000
FFFC00
FFFC00
FFFC00
3E0000
3E0000
3E0000
3E0FE0
3E3FF8
3E7FFC
3EFFFE
3FE0FE
3FC03F
3F803F
3F001F
3F001F
3E001F
3E001F
3E001F
3E001F
3E001F
3E001F
3E001F
3E001F
3E001F
3E001F
3E001F
3E001F
3E001F
3E001F
3E001F
3E001F
3E001F
3E001F
3E001F
ENDCHAR
STARTCHAR 0128
ENCODING 296
SWIDTH 307 0
DWIDTH 16 0
BBX 16 45 -1 1
BITMAP
1E07
3FCF
7FFF
71FE
E03C
0000
0000
03E0
03E0
03E0
03E0
03E0
03E0
03E0
03E0
03E0
03E0
03E0
03E0
03E0
03E0
03E0
03E0
03E0
03E0
03E0
03E0
03E0
03E0
03E0
03E0
03E0
03E0
03E0
03E0
03E0
03E0
03E0
03E0
03E0
03E0
03E0
03E0
03E0
03E0
ENDCHAR
STARTCHAR 0129
ENCODING 297
SWIDTH 269 0
DWIDTH 14 0
BBX 16 36 -2 1
BITMAP
1E07
3FC7
7FFF
71FE
E03C
0000
0000
0000
0000
01F0
01F0
01F0
01F0
01F0
01F0
01F0
01F0
01F0
01F0
01F0
01F0
01F0
01F0
01F0
01F0
01F0
01F0
01F0
01F0
01F0
01F0
01F0
01F0
01F0
01F0
01F0
ENDCHAR
STARTCHAR 012A
ENCODING 298
SWIDTH 269 0
DWIDTH 14 0
BBX 14 45 0 0
BITMAP
FFFC
FFFC
FFFC
FFFC
0000
0000
0000
07C0
07C0
07C0
07C0
07C0
07C0
07C0
07C0
07C0
07C0
07C0
07C0
07C0
07C0
07C0
07C0
07C0
07C0
07C0
07C0
07C0
07C0
07C0
07C0
07C0
07C0
07C0
07C0
07C0
07C0
07C0
07C0
07C0
07C0
07C0
07C0
07C0
07C0
ENDCHAR
STARTCHAR 012B
ENCODING 299
SWIDTH 269 0
DWIDTH 14 0
BBX 14 35 -1 0
BITMAP
FFFC
FFFC
FFFC
FFFC
0000
0000
0000
0000
03E0
03E0
03E0
03E0
03E0
03E0
03E0
03E0
03E0
03E0
03E0
03E0
03E0
03E0
03E0
03E0
03E0
03E0
03E0
03E0
03E0
03E0
03E0
03E0
03E0
03E0
03E0
ENDCHAR
STARTCHAR 012C
ENCODING 300
SWIDTH 307 0
DWIDTH 16 0
BBX 15 47 0 0
BITMAP
E00E
E00E
F01E
7FFC
7FFC
3FF8
0FE0
0000
0000
07C0
07C0
07C0
07C0
07C0
07C0
07C0
07C0
07C0
07C0
07C0
07C0
07C0
07C0
07C0
07C0
07C0
07C0
07C0
07C0
07C0
07C0
07C0
07C0
07C0
07C0
07C0
07C0
07C0
07C0
07C0
07C0
07C0
07C0
07C0
07C0
07C0
07C0
ENDCHAR
STARTCHAR 012D
ENCODING 301
SWIDTH 269 0
DWIDTH 14 0
BBX 15 38 -1 0
BITMAP
E00E
700E
781E
7FFE
3FFC
1FF8
0FF0
0000
0000
0000
0000
03E0
03E0
03E0
03E0
03E0
03E0
03E0
03E0
03E0
03E0
03E0
03E0
03E0
03E0
03E0
03E0
03E0
03E0
03E0
03E0
03E0
03E0
03E0
03E0
03E0
03E0
03E0
ENDCHAR
STARTCHAR 012E
ENCODING 302
SWIDTH 269 0
DWIDTH 14 0
BBX 11 49 1 -11
BITMAP
0F80
0F80
0F80
0F80
0F80
0F80
0F80
0F80
0F80
0F80
0F80
0F80
0F80
0F80
0F80
0F80
0F80
0F80
0F80
0F80
0F80
0F80
0F80
0F80
0F80
0F80
0F80
0F80
0F80
0F80
0F80
0F80
0F80
0F80
0F80
0F80
0F80
0F80
0F80
1E00
3C00
7800
F000
F000
F000
F000
7800
3FE0
0FE0
ENDCHAR
STARTCHAR 012F
ENCODING 303
SWIDTH 269 0
DWIDTH 14 0
BBX 12 49 0 -11
BITMAP
07C0
07C0
07C0
07C0
07C0
0000
0000
0000
0000
0000
0000
07C0
07C0
07C0
07C0
07C0
07C0
07C0
07C0
07C0
07C0
07C0
07C0
07C0
07C0
07C0
07C0
07C0
07C0
07C0
07C0
07C0
07C0
07C0
07C0
07C0
07C0
07C0
07C0
1F00
3C00
7800
F000
F000
F000
F000
7C00
3FF0
0FF0
ENDCHAR
STARTCHAR 0130
ENCODING 304
SWIDTH 269 0
DWIDTH 14 0
BBX 5 46 5 0
BITMAP
F8
F8
F8
F8
F8
00
00
00
F8
F8
F8
F8
F8
F8
F8
F8
F8
F8
F8
F8
F8
F8
F8
F8
F8
F8
F8
F8
F8
F8
F8
F8
F8
F8
F8
F8
F8
F8
F8
F8
F8
F8
F8
F8
F8
F8
ENDCHAR
STARTCHAR 0131
ENCODING 305
SWIDTH 230 0
DWIDTH 12 0
BBX 5 27 4 0
BITMAP
F8
F8
F8
F8
F8
F8
F8
F8
F8
F8
F8
F8
F8
F8
F8
F8
F8
F8
F8
F8
F8
F8
F8
F8
F8
F8
F8
ENDCHAR
STARTCHAR 0132
ENCODING 306
SWIDTH 750 0
DWIDTH 39 0
BBX 30 39 5 -1
BITMAP
F800007C
F800007C
F800007C
F800007C
F800007C
F800007C
F800007C
F800007C
F800007C
F800007C
F800007C
F800007C
F800007C
F800007C
F800007C
F800007C
F800007C
F800007C
F800007C
F800007C
F800007C
F800007C
F800007C
F800007C
F800007C
F800007C
F87C007C
F87C007C
F87C007C
F87C007C
F87C007C
F87C00FC
F87E00F8
F83F01F8
F83F83F0
F81FFFF0
F80FFFE0
F807FF80
0000FE00
ENDCHAR
STARTCHAR 0133
ENCODING 307
SWIDTH 384 0
DWIDTH 20 0
BBX 15 49 3 -11
BITMAP
F83E
F83E
F83E
F83E
F83E
0000
0000
0000
0000
0000
0000
F83E
F83E
F83E
F83E
F83E
F83E
F83E
F83E
F83E
F83E
F83E
F83E
F83E
F83E
F83E
F83E
F83E
F83E
F83E
F83E
F83E
F83E
F83E
F83E
F83E
F83E
F83E
003E
003E
003E
003E
003E
003E
007E
03FE
03FE
03FC
03E0
ENDCHAR
STARTCHAR 0134
ENCODING 308
SWIDTH 519 0
DWIDTH 27 0
BBX 25 48 2 -1
BITMAP
0001F000
0003F800
0007FC00
000FFC00
000F1E00
001E0F00
003C0780
00000000
00000000
0000F800
0000F800
0000F800
0000F800
0000F800
0000F800
0000F800
0000F800
0000F800
0000F800
0000F800
0000F800
0000F800
0000F800
0000F800
0000F800
0000F800
0000F800
0000F800
0000F800
0000F800
0000F800
0000F800
0000F800
0000F800
0000F800
F800F800
F800F800
F800F800
F800F800
F800F800
F801F800
FC01F000
7E03F000
7F07E000
3FFFE000
1FFFC000
0FFF0000
01FC0000
ENDCHAR
STARTCHAR 0135
ENCODING 309
SWIDTH 269 0
DWIDTH 14 0
BBX 14 49 0 -11
BITMAP
0F80
1FC0
1FE0
3DE0
3CF0
7878
F038
E03C
0000
0000
0000
07C0
07C0
07C0
07C0
07C0
07C0
07C0
07C0
07C0
07C0
07C0
07C0
07C0
07C0
07C0
07C0
07C0
07C0
07C0
07C0
07C0
07C0
07C0
07C0
07C0
07C0
07C0
07C0
07C0
07C0
07C0
07C0
07C0
0FC0
FFC0
FF80
FF00
FC00
ENDCHAR
STARTCHAR 0136
ENCODING 310
SWIDTH 673 0
DWIDTH 35 0
BBX 30 54 4 -16
BITMAP
F80001FC
F80003F8
F80007F0
F8000FE0
F8001FC0
F8003F80
F8007F00
F800FE00
F800FC00
F801F800
F803F000
F807E000
F80FC000
F81F8000
F83F0000
F87E0000
F8FE0000
F9FF0000
FBFF8000
FFCF8000
FF87C000
FF07E000
FE03F000
FC01F000
F801F800
F800FC00
F8007C00
F8007E00
F8003F00
F8001F00
F8001F80
F8000FC0
F80007C0
F80007E0
F80003F0
F80001F8
F80000F8
F80000FC
00000000
00000000
00000000
00000000
001F0000
001F0000
001F0000
001F0000
001F0000
00030000
00030000
00030000
00070000
00060000
001E0000
00180000
ENDCHAR
STARTCHAR 0137
ENCODING 311
SWIDTH 519 0
DWIDTH 27 0
BBX 23 54 3 -16
BITMAP
F80000
F80000
F80000
F80000
F80000
F80000
F80000
F80000
F80000
F80000
F80000
F800FC
F801F8
F803F0
F807E0
F80FC0
F81F80
F83F00
F87E00
F8F800
F9F800
FBF800
FFFC00
FFFE00
FF3E00
FE1F00
FC1F80
F80F80
F80FC0
F807C0
F803E0
F803F0
F801F0
F800F8
F800FC
F8007C
F8007E
F8003E
000000
000000
000000
000000
007C00
007C00
007C00
007C00
007C00
000C00
000C00
000C00
001C00
001800
007800
006000
ENDCHAR
STARTCHAR 0138
ENCODING 312
SWIDTH 519 0
DWIDTH 27 0
BBX 23 27 3 0
BITMAP
F800FC
F801F8
F803E0
F807C0
F80F80
F81F00
F83E00
F87C00
F8F800
F9F000
FBE000
FFC000
FF8000
FF0000
FF8000
FFC000
FBF000
F9F800
F8FC00
F87E00
F81F00
F80F80
F807E0
F803F0
F801F8
F8007C
F8003E
ENDCHAR
STARTCHAR 0139
ENCODING 313
SWIDTH 557 0
DWIDTH 29 0
BBX 23 47 4 0
BITMAP
01F800
03F000
03E000
07C000
0F0000
1E0000
3C0000
000000
000000
F80000
F80000
F80000
F80000
F80000
F80000
F80000
F80000
F80000
F80000
F80000
F80000
F80000
F80000
F80000
F80000
F80000
F80000
F80000
F80000
F80000
F80000
F80000
F80000
F80000
F80000
F80000
F80000
F80000
F80000
F80000
F80000
F80000
F80000
FFFFFE
FFFFFE
FFFFFE
FFFFFE
ENDCHAR
STARTCHAR 013A
ENCODING 314
SWIDTH 250 0
DWIDTH 13 0
BBX 11 47 0 0
BITMAP
07E0
0FC0
0F80
1F00
3C00
7800
F000
0000
0000
1F00
1F00
1F00
1F00
1F00
1F00
1F00
1F00
1F00
1F00
1F00
1F00
1F00
1F00
1F00
1F00
1F00
1F00
1F00
1F00
1F00
1F00
1F00
1F00
1F00
1F00
1F00
1F00
1F00
1F00
1F00
1F00
1F00
1F00
1F00
1F00
1F00
1F00
ENDCHAR
STARTCHAR 013B
ENCODING 315
SWIDTH 557 0
DWIDTH 29 0
BBX 23 54 4 -16
BITMAP
F80000
F80000
F80000
F80000
F80000
F80000
F80000
F80000
F80000
F80000
F80000
F80000
F80000
F80000
F80000
F80000
F80000
F80000
F80000
F80000
F80000
F80000
F80000
F80000
F80000
F80000
F80000
F80000
F80000
F80000
F80000
F80000
F80000
F80000
FFFFFE
FFFFFE
FFFFFE
FFFFFE
000000
000000
000000
000000
007C00
007C00
007C00
007C00
007C00
000C00
000C00
000C00
001C00
001800
007800
006000
ENDCHAR
STARTCHAR 013C
ENCODING 316
SWIDTH 211 0
DWIDTH 11 0
BBX 5 54 3 -16
BITMAP
F8
F8
F8
F8
F8
F8
F8
F8
F8
F8
F8
F8
F8
F8
F8
F8
F8
F8
F8
F8
F8
F8
F8
F8
F8
F8
F8
F8
F8
F8
F8
F8
F8
F8
F8
F8
F8
F8
00
00
00
00
F8
F8
F8
F8
F8
18
18
18
38
30
F0
C0
ENDCHAR
STARTCHAR 013D
ENCODING 317
SWIDTH 557 0
DWIDTH 29 0
BBX 23 39 4 0
BITMAP
0003F0
F803E0
F807C0
F80780
F80700
F80F00
F80E00
F81C00
F80000
F80000
F80000
F80000
F80000
F80000
F80000
F80000
F80000
F80000
F80000
F80000
F80000
F80000
F80000
F80000
F80000
F80000
F80000
F80000
F80000
F80000
F80000
F80000
F80000
F80000
F80000
FFFFFE
FFFFFE
FFFFFE
FFFFFE
ENDCHAR
STARTCHAR 013E
ENCODING 318
SWIDTH 384 0
DWIDTH 20 0
BBX 16 39 3 0
BITMAP
003F
F83E
F87C
F878
F870
F8F0
F8E0
F9C0
F800
F800
F800
F800
F800
F800
F800
F800
F800
F800
F800
F800
F800
F800
F800
F800
F800
F800
F800
F800
F800
F800
F800
F800
F800
F800
F800
F800
F800
F800
F800
ENDCHAR
STARTCHAR 013F
ENCODING 319
SWIDTH 557 0
DWIDTH 29 0
BBX 23 38 4 0
BITMAP
F80000
F80000
F80000
F80000
F80000
F80000
F80000
F80000
F80000
F80000
F80000
F80000
F80000
F80000
F80000
F80000
F80000
F80000
F80000
F80000
F80000
F8003E
F8003E
F8003E
F8003E
F8003E
F80000
F80000
F80000
F80000
F80000
F80000
F80000
F80000
FFFFFE
FFFFFE
FFFFFE
FFFFFE
ENDCHAR
STARTCHAR 0140
ENCODING 320
SWIDTH 365 0
DWIDTH 19 0
BBX 14 38 3 0
BITMAP
F800
F800
F800
F800
F800
F800
F800
F800
F800
F800
F800
F800
F800
F800
F800
F800
F800
F800
F800
F800
F800
F87C
F87C
F87C
F87C
F87C
F800
F800
F800
F800
F800
F800
F800
F800
F800
F800
F800
F800
ENDCHAR
STARTCHAR 0141
ENCODING 321
SWIDTH 615 0
DWIDTH 32 0
BBX 28 38 2 0
BITMAP
0F800000
0F800000
0F800000
0F800000
0F800000
0F800000
0F800000
0F800000
0F800000
0F800000
0F800000
0F804000
0F80C000
0F83C000
0F87C000
0F9F8000
0FBF0000
0FFC0000
0FF80000
0FE00000
1FC00000
3F800000
FF800000
FF800000
EF800000
CF800000
0F800000
0F800000
0F800000
0F800000
0F800000
0F800000
0F800000
0F800000
0FFFFFF0
0FFFFFF0
0FFFFFF0
0FFFFFF0
ENDCHAR
STARTCHAR 0142
ENCODING 322
SWIDTH 250 0
DWIDTH 13 0
BBX 9 38 2 0
BITMAP
3E00
3E00
3E00
3E00
3E00
3E00
3E00
3E00
3E00
3E00
3E00
3E00
3E00
3E00
3E80
3F80
3F80
3F00
3F00
7E00
FE00
FE00
BE00
BE00
3E00
3E00
3E00
3E00
3E00
3E00
3E00
3E00
3E00
3E00
3E00
3E00
3E00
3E00
ENDCHAR
STARTCHAR 0143
ENCODING 323
SWIDTH 730 0
DWIDTH 38 0
BBX 30 47 4 0
BITMAP
0000FC00
0001F800
0001F000
0003E000
00078000
000F0000
001E0000
00000000
00000000
FC00007C
FE00007C
FE00007C
FF00007C
FF00007C
FF80007C
FFC0007C
FFC0007C
FBE0007C
FBF0007C
F9F0007C
F8F8007C
F8F8007C
F87C007C
F83E007C
F83E007C
F81F007C
F81F807C
F80F807C
F807C07C
F807C07C
F803E07C
F801F07C
F801F07C
F800F87C
F800FC7C
F8007C7C
F8003E7C
F8003E7C
F8001F7C
F8001FFC
F8000FFC
F80007FC
F80007FC
F80003FC
F80001FC
F80001FC
F80000FC
ENDCHAR
STARTCHAR 0144
ENCODING 324
SWIDTH 538 0
DWIDTH 28 0
BBX 22 39 3 0
BITMAP
0007E0
0007C0
000F80
001F00
001E00
003C00
007800
007000
000000
000000
000000
003F80
F0FFE0
F3FFF0
F7FFF8
F783F8
FF00FC
FE00FC
FC007C
FC007C
F8007C
F8007C
F8007C
F8007C
F8007C
F8007C
F8007C
F8007C
F8007C
F8007C
F8007C
F8007C
F8007C
F8007C
F8007C
F8007C
F8007C
F8007C
F8007C
ENDCHAR
STARTCHAR 0145
ENCODING 325
SWIDTH 730 0
DWIDTH 38 0
BBX 30 54 4 -16
BITMAP
FC00007C
FE00007C
FE00007C
FF00007C
FF00007C
FF80007C
FFC0007C
FFC0007C
FBE0007C
FBF0007C
F9F0007C
F8F8007C
F8F8007C
F87C007C
F83E007C
F83E007C
F81F007C
F81F807C
F80F807C
F807C07C
F807C07C
F803E07C
F801F07C
F801F07C
F800F87C
F800FC7C
F8007C7C
F8003E7C
F8003E7C
F8001F7C
F8001FFC
F8000FFC
F80007FC
F80007FC
F80003FC
F80001FC
F80001FC
F80000FC
00000000
00000000
00000000
00000000
000F8000
000F8000
000F8000
000F8000
000F8000
00018000
00018000
00018000
00038000
00030000
000F0000
000C0000
ENDCHAR
STARTCHAR 0146
ENCODING 326
SWIDTH 538 0
DWIDTH 28 0
BBX 22 44 3 -16
BITMAP
003F80
F0FFE0
F3FFF0
F7FFF8
F783F8
FF00FC
FE00FC
FC007C
FC007C
F8007C
F8007C
F8007C
F8007C
F8007C
F8007C
F8007C
F8007C
F8007C
F8007C
F8007C
F8007C
F8007C
F8007C
F8007C
F8007C
F8007C
F8007C
F8007C
000000
000000
000000
000000
007C00
007C00
007C00
007C00
007C00
000C00
000C00
000C00
001C00
001800
007800
006000
ENDCHAR
STARTCHAR 0147
ENCODING 327
SWIDTH 730 0
DWIDTH 38 0
BBX 30 47 4 0
BITMAP
01E03C00
00F07800
0078F000
003FF000
003FE000
001FC000
000F8000
00000000
00000000
FC00007C
FE00007C
FE00007C
FF00007C
FF00007C
FF80007C
FFC0007C
FFC0007C
FBE0007C
FBF0007C
F9F0007C
F8F8007C
F8F8007C
F87C007C
F83E007C
F83E007C
F81F007C
F81F807C
F80F807C
F807C07C
F807C07C
F803E07C
F801F07C
F801F07C
F800F87C
F800FC7C
F8007C7C
F8003E7C
F8003E7C
F8001F7C
F8001FFC
F8000FFC
F80007FC
F80007FC
F80003FC
F80001FC
F80001FC
F80000FC
ENDCHAR
STARTCHAR 0148
ENCODING 328
SWIDTH 538 0
DWIDTH 28 0
BBX 22 38 3 1
BITMAP
0701C0
0783C0
03C780
01EF80
01EF00
00FE00
00FE00
007C00
000000
000000
003F80
F0FFE0
F3FFF0
F7FFF8
F783F8
FF00FC
FE00FC
FC007C
FC007C
F8007C
F8007C
F8007C
F8007C
F8007C
F8007C
F8007C
F8007C
F8007C
F8007C
F8007C
F8007C
F8007C
F8007C
F8007C
F8007C
F8007C
F8007C
F8007C
ENDCHAR
STARTCHAR 0149
ENCODING 329
SWIDTH 653 0
DWIDTH 34 0
BBX 29 37 2 0
BITMAP
F8000000
F8000000
F8000000
F8000000
F8000000
18000000
18000000
18000000
18000000
3000FE00
F1E3FFC0
C1E7FFE0
01EFFFF0
01FF07F0
01FE03F0
01FC01F8
01F801F8
01F000F8
01F000F8
01F000F8
01F000F8
01F000F8
01F000F8
01F000F8
01F000F8
01F000F8
01F000F8
01F000F8
01F000F8
01F000F8
01F000F8
01F000F8
01F000F8
01F000F8
01F000F8
01F000F8
01F000F8
ENDCHAR
STARTCHAR 014A
ENCODING 330
SWIDTH 673 0
DWIDTH 35 0
BBX 29 40 4 -1
BITMAP
001FC000
F87FF800
F9FFFC00
FBFFFF00
FFE07F80
FF803FC0
FF000FC0
FE0007E0
FC0003E0
FC0003F0
F80001F0
F80001F0
F80001F8
F80001F8
F80000F8
F80000F8
F80000F8
F80000F8
F80000F8
F80000F8
F80000F8
F80000F8
F80000F8
F80000F8
F80001F0
F80001F0
F80001F0
F80001F0
F80003F0
F80003E0
F80003E0
F80007E0
F8000FC0
F8000FC0
F8001F80
F8307F00
F83FFE00
F83FFC00
F83FF800
000FE000
ENDCHAR
STARTCHAR 014B
ENCODING 331
SWIDTH 538 0
DWIDTH 28 0
BBX 22 39 3 -11
BITMAP
003F80
F0FFE0
F3FFF0
F7FFF8
F783F8
FF00FC
FE00FC
FC007C
FC007C
F8007C
F8007C
F8007C
F8007C
F8007C
F8007C
F8007C
F8007C
F8007C
F8007C
F8007C
F8007C
F8007C
F8007C
F8007C
F8007C
F8007C
F8007C
F8007C
00007C
00007C
00007C
00007C
00007C
00007C
0000FC
0007FC
0007F8
0007F0
0007C0
ENDCHAR
STARTCHAR 014C
ENCODING 332
SWIDTH 788 0
DWIDTH 41 0
BBX 37 46 2 -1
BITMAP
001FFF8000
001FFF8000
001FFF8000
001FFF8000
0000000000
0000000000
0003FE0000
001FFFC000
007FFFF000
01FFFFFC00
03FE03FE00
07F0007F00
0FE0003F80
1FC0001F80
1F80000FC0
3F000007E0
3E000003E0
7E000003F0
7C000001F0
7C000001F0
7C000001F0
F8000000F8
F8000000F8
F8000000F8
F8000000F8
F8000000F8
F8000000F8
F8000000F8
F8000000F8
F8000000F8
F8000000F8
7C000001F0
7C000001F0
7C000001F0
7E000003F0
3E000003E0
3F000007E0
1F80000FC0
1FC0001F80
0FE0003F80
07F0007F00
03FE03FE00
01FFFFFC00
007FFFF000
001FFFC000
0003FE0000
ENDCHAR
STARTCHAR 014D
ENCODING 333
SWIDTH 538 0
DWIDTH 28 0
BBX 25 36 2 -1
BITMAP
07FFE000
07FFE000
07FFE000
07FFE000
00000000
00000000
00000000
007F0000
03FFE000
07FFF000
0FFFF800
1FC1FC00
3F007E00
3E003E00
7E003F00
7C001F00
7C001F00
F8000F80
F8000F80
F8000F80
F8000F80
F8000F80
F8000F80
F8000F80
F8000F80
F8000F80
7C001F00
7C001F00
7E003F00
3E003E00
3F007E00
1FC1FC00
0FFFF800
07FFF000
03FFE000
007F0000
ENDCHAR
STARTCHAR 014E
ENCODING 334
SWIDTH 788 0
DWIDTH 41 0
BBX 37 48 2 -1
BITMAP
001C01C000
001C038000
001E078000
001FFF8000
000FFF0000
0007FE0000
0003FC0000
0000000000
0003FE0000
001FFFC000
007FFFF000
01FFFFFC00
03FE03FE00
07F0007F00
0FE0003F80
1FC0001F80
1F80000FC0
3F000007E0
3E000003E0
7E000003F0
7C000001F0
7C000001F0
7C000001F0
F8000000F8
F8000000F8
F8000000F8
F8000000F8
F8000000F8
F8000000F8
F8000000F8
F8000000F8
F8000000F8
F8000000F8
7C000001F0
7C000001F0
7C000001F0
7E000003F0
3E000003E0
3F000007E0
1F80000FC0
1FC0001F80
0FE0003F80
07F0007F00
03FE03FE00
01FFFFFC00
007FFFF000
001FFFC000
0003FE0000
ENDCHAR
STARTCHAR 014F
ENCODING 335
SWIDTH 538 0
DWIDTH 28 0
BBX 25 39 2 -1
BITMAP
07007000
0700E000
0781E000
07FFE000
03FFC000
01FF8000
00FF0000
00000000
00000000
00000000
007F0000
03FFE000
07FFF000
0FFFF800
1FC1FC00
3F007E00
3E003E00
7E003F00
7C001F00
7C001F00
F8000F80
F8000F80
F8000F80
F8000F80
F8000F80
F8000F80
F8000F80
F8000F80
F8000F80
7C001F00
7C001F00
7E003F00
3E003E00
3F007E00
1FC1FC00
0FFFF800
07FFF000
03FFE000
007F0000
ENDCHAR
STARTCHAR 0150
ENCODING 336
SWIDTH 788 0
DWIDTH 41 0
BBX 37 48 2 -1
BITMAP
0003F1F800
0003F3F000
0003E3E000
0007C7C000
0007878000
000F8F0000
000F0E0000
0000000000
0003FE0000
001FFFC000
007FFFF000
01FFFFFC00
03FE03FE00
07F0007F00
0FE0003F80
1FC0001F80
1F80000FC0
3F000007E0
3E000003E0
7E000003F0
7C000001F0
7C000001F0
7C000001F0
F8000000F8
F8000000F8
F8000000F8
F8000000F8
F8000000F8
F8000000F8
F8000000F8
F8000000F8
F8000000F8
F8000000F8
7C000001F0
7C000001F0
7C000001F0
7E000003F0
3E000003E0
3F000007E0
1F80000FC0
1FC0001F80
0FE0003F80
07F0007F00
03FE03FE00
01FFFFFC00
007FFFF000
001FFFC000
0003FE0000
ENDCHAR
STARTCHAR 0151
ENCODING 337
SWIDTH 538 0
DWIDTH 28 0
BBX 25 40 2 -1
BITMAP
007C7E00
00FC7C00
00F8F800
00F0F800
01F1F000
01E1E000
01C3C000
03C38000
00000000
00000000
00000000
007F0000
03FFE000
07FFF000
0FFFF800
1FC1FC00
3F007E00
3E003E00
7E003F00
7C001F00
7C001F00
F8000F80
F8000F80
F8000F80
F8000F80
F8000F80
F8000F80
F8000F80
F8000F80
F8000F80
7C001F00
7C001F00
7E003F00
3E003E00
3F007E00
1FC1FC00
0FFFF800
07FFF000
03FFE000
007F0000
ENDCHAR
STARTCHAR 0152
ENCODING 338
SWIDTH 980 0
DWIDTH 51 0
BBX 47 40 2 -1
BITMAP
000FE0000000
007FFC7FFFFE
01FFFE7FFFFE
03FFFF7FFFFE
07F81FFFFFFE
0FE007FC0000
1F8003FC0000
1F0001FC0000
3F0000FC0000
3E0000FC0000
3E00007C0000
7C00007C0000
7C00007C0000
7C00007C0000
7800007C0000
F800007C0000
F800007C0000
F800007C0000
F800007FFFFC
F800007FFFFC
F800007FFFFC
F800007FFFFC
F800007C0000
F800007C0000
F800007C0000
F800007C0000
7C00007C0000
7C00007C0000
7C00007C0000
7C00007C0000
3E00007C0000
3E0000FC0000
1F0001FC0000
1F8003FC0000
0FC007FC0000
07F01FFFFFFE
03FFFF7FFFFE
01FFFE7FFFFE
007FFC7FFFFE
000FE0000000
ENDCHAR
STARTCHAR 0153
ENCODING 339
SWIDTH 923 0
DWIDTH 48 0
BBX 45 29 2 -1
BITMAP
007F0007F000
03FFE01FFE00
07FFF07FFF00
0FFFF8FFFF80
1FC1FDFC1FC0
3F007FF007E0
3E003FE003F0
7E003FC001F0
7C001FC001F0
7C001FC000F0
F8000F8000F8
F8000F8000F8
F8000FFFFFF8
F8000FFFFFF8
F8000FFFFFF8
F8000FFFFFF8
F8000F800000
F8000F800000
F8000F800000
7C001F800000
7C001FC000F0
7E003FC001F0
7E003FE003F0
3F007FF007E0
1FC1FDFC0FE0
1FFFF8FFFFC0
07FFF07FFF80
03FFE03FFE00
007F0007F800
ENDCHAR
STARTCHAR 0154
ENCODING 340
SWIDTH 711 0
DWIDTH 37 0
BBX 30 47 4 0
BITMAP
0001F800
0003F000
0003E000
0007C000
000F0000
001E0000
003C0000
00000000
00000000
FFFFFC00
FFFFFF00
FFFFFFC0
FFFFFFE0
F8000FF0
F80003F0
F80001F8
F80000F8
F80000F8
F80000F8
F80000F8
F80000F8
F80000F8
F80000F0
F80001F0
F80003E0
F8000FE0
FFFFFFC0
FFFFFF00
FFFFFF80
FFFFFFC0
F80007E0
F80003F0
F80001F0
F80001F8
F80000F8
F80000F8
F80000F8
F80000F8
F80000F8
F80000F8
F80000F8
F80000F8
F80000F8
F80000F8
F80000F8
F80000FC
F800007C
ENDCHAR
STARTCHAR 0155
ENCODING 341
SWIDTH 326 0
DWIDTH 17 0
BBX 14 39 3 0
BITMAP
00FC
00F8
01F0
03E0
03C0
0780
0F00
0E00
0000
0000
0000
003C
F0FC
F1FC
F3FC
F7C0
FF00
FE00
FC00
FC00
F800
F800
F800
F800
F800
F800
F800
F800
F800
F800
F800
F800
F800
F800
F800
F800
F800
F800
F800
ENDCHAR
STARTCHAR 0156
ENCODING 342
SWIDTH 711 0
DWIDTH 37 0
BBX 30 54 4 -16
BITMAP
FFFFFC00
FFFFFF00
FFFFFFC0
FFFFFFE0
F8000FF0
F80003F0
F80001F8
F80000F8
F80000F8
F80000F8
F80000F8
F80000F8
F80000F8
F80000F0
F80001F0
F80003E0
F8000FE0
FFFFFFC0
FFFFFF00
FFFFFF80
FFFFFFC0
F80007E0
F80003F0
F80001F0
F80001F8
F80000F8
F80000F8
F80000F8
F80000F8
F80000F8
F80000F8
F80000F8
F80000F8
F80000F8
F80000F8
F80000F8
F80000FC
F800007C
00000000
00000000
00000000
00000000
000F8000
000F8000
000F8000
000F8000
000F8000
00018000
00018000
00018000
00038000
00030000
000F0000
000C0000
ENDCHAR
STARTCHAR 0157
ENCODING 343
SWIDTH 326 0
DWIDTH 17 0
BBX 14 44 3 -16
BITMAP
003C
F0FC
F1FC
F3FC
F7C0
FF00
FE00
FC00
FC00
F800
F800
F800
F800
F800
F800
F800
F800
F800
F800
F800
F800
F800
F800
F800
F800
F800
F800
F800
0000
0000
0000
0000
7C00
7C00
7C00
7C00
7C00
0C00
0C00
0C00
1C00
1800
7800
6000
ENDCHAR
STARTCHAR 0158
ENCODING 344
SWIDTH 711 0
DWIDTH 37 0
BBX 30 47 4 0
BITMAP
01E03C00
00F07800
0078F000
003FF000
003FE000
001FC000
000F8000
00000000
00000000
FFFFFC00
FFFFFF00
FFFFFFC0
FFFFFFE0
F8000FF0
F80003F0
F80001F8
F80000F8
F80000F8
F80000F8
F80000F8
F80000F8
F80000F8
F80000F0
F80001F0
F80003E0
F8000FE0
FFFFFFC0
FFFFFF00
FFFFFF80
FFFFFFC0
F80007E0
F80003F0
F80001F0
F80001F8
F80000F8
F80000F8
F80000F8
F80000F8
F80000F8
F80000F8
F80000F8
F80000F8
F80000F8
F80000F8
F80000F8
F80000FC
F800007C
ENDCHAR
STARTCHAR 0159
ENCODING 345
SWIDTH 326 0
DWIDTH 17 0
BBX 14 39 3 0
BITMAP
E01C
F038
7878
3CF0
3DF0
1FE0
1FC0
0FC0
0000
0000
0000
003C
F0FC
F1FC
F3FC
F7C0
FF00
FE00
FC00
FC00
F800
F800
F800
F800
F800
F800
F800
F800
F800
F800
F800
F800
F800
F800
F800
F800
F800
F800
F800
ENDCHAR
STARTCHAR 015A
ENCODING 346
SWIDTH 673 0
DWIDTH 35 0
BBX 29 48 3 -1
BITMAP
0001F800
0003F000
0003E000
0007C000
000F0000
001E0000
003C0000
00000000
003FE000
01FFFC00
07FFFF00
0FFFFF80
1FE03FC0
3F800FE0
3F0007E0
3E0003E0
7C0001F0
7C0001F0
7C0001F0
7C000000
7C000000
7E000000
7E000000
3F800000
3FE00000
1FFE0000
0FFFE000
03FFFC00
00FFFF00
000FFFC0
0000FFE0
00001FF0
000007F0
000003F8
000001F8
F80000F8
F80000F8
F80000F8
FC0000F8
7C0000F8
7E0001F0
7E0003F0
3F8007E0
1FE01FE0
0FFFFFC0
07FFFF00
01FFFC00
003FE000
ENDCHAR
STARTCHAR 015B
ENCODING 347
SWIDTH 500 0
DWIDTH 26 0
BBX 23 40 1 -1
BITMAP
0007E0
0007C0
000F80
001F00
001E00
003C00
007800
007000
000000
000000
000000
00FF00
07FFC0
0FFFF0
1FFFF8
3F81F8
7E00FC
7C007C
7C007C
7C0000
7C0000
7E0000
3F8000
3FF000
1FFF00
07FFE0
00FFF8
000FFC
0001FC
00007E
00003E
F8003E
F8003E
FC003E
7E007C
7F01FC
3FFFF8
1FFFF0
0FFFE0
01FF00
ENDCHAR
STARTCHAR 015C
ENCODING 348
SWIDTH 673 0
DWIDTH 35 0
BBX 29 48 3 -1
BITMAP
000F8000
001FC000
003FE000
007FE000
0078F000
00F07800
01E03C00
00000000
003FE000
01FFFC00
07FFFF00
0FFFFF80
1FE03FC0
3F800FE0
3F0007E0
3E0003E0
7C0001F0
7C0001F0
7C0001F0
7C000000
7C000000
7E000000
7E000000
3F800000
3FE00000
1FFE0000
0FFFE000
03FFFC00
00FFFF00
000FFFC0
0000FFE0
00001FF0
000007F0
000003F8
000001F8
F80000F8
F80000F8
F80000F8
FC0000F8
7C0000F8
7E0001F0
7E0003F0
3F8007E0
1FE01FE0
0FFFFFC0
07FFFF00
01FFFC00
003FE000
ENDCHAR
STARTCHAR 015D
ENCODING 349
SWIDTH 500 0
DWIDTH 26 0
BBX 23 39 1 -1
BITMAP
007E00
007E00
00FF00
01FF80
01E780
03C3C0
0781C0
0700E0
000000
000000
00FF00
07FFC0
0FFFF0
1FFFF8
3F81F8
7E00FC
7C007C
7C007C
7C0000
7C0000
7E0000
3F8000
3FF000
1FFF00
07FFE0
00FFF8
000FFC
0001FC
00007E
00003E
F8003E
F8003E
FC003E
7E007C
7F01FC
3FFFF8
1FFFF0
0FFFE0
01FF00
ENDCHAR
STARTCHAR 015E
ENCODING 350
SWIDTH 673 0
DWIDTH 35 0
BBX 29 50 3 -11
BITMAP
003FE000
01FFFC00
07FFFF00
0FFFFF80
1FE03FC0
3F800FE0
3F0007E0
7E0003E0
7C0001F0
7C0001F0
7C0001F0
7C000000
7C000000
7E000000
7E000000
3F800000
3FE00000
1FFE0000
0FFFE000
03FFFC00
00FFFF00
000FFFC0
0000FFE0
00001FF0
000007F0
000003F8
000001F8
F80000F8
F80000F8
F80000F8
FC0000F8
7C0000F8
7E0001F0
3E0003F0
3F0007E0
1FE01FE0
0FFFFFC0
07FFFF00
01FFFE00
007FF000
000C0000
000C0000
001F8000
001FC000
0003E000
0001E000
0001E000
01C3E000
01FFC000
003F0000
ENDCHAR
STARTCHAR 015F
ENCODING 351
SWIDTH 500 0
DWIDTH 26 0
BBX 23 39 1 -11
BITMAP
00FF00
07FFE0
0FFFF0
1FFFF8
3F81F8
3E00FC
7C007C
7C007C
7C0000
7C0000
7E0000
3F8000
3FF000
1FFF00
07FFE0
00FFF8
000FFC
0001FC
00007E
00003E
F8003E
F8003E
FC003E
7C007E
7F00FC
3FFFF8
1FFFF8
0FFFE0
03FF80
003000
007000
007E00
00FF00
000F80
000780
080780
0E0F00
0FFF00
01FC00
ENDCHAR
STARTCHAR 0160
ENCODING 352
SWIDTH 673 0
DWIDTH 35 0
BBX 29 48 3 -1
BITMAP
01E03C00
00F07800
0078F000
003FF000
003FE000
001FC000
000F8000
00000000
003FE000
01FFFC00
07FFFF00
0FFFFF80
1FE03FC0
3F800FE0
3F0007E0
3E0003E0
7C0001F0
7C0001F0
7C0001F0
7C000000
7C000000
7E000000
7E000000
3F800000
3FE00000
1FFE0000
0FFFE000
03FFFC00
00FFFF00
000FFFC0
0000FFE0
00001FF0
000007F0
000003F8
000001F8
F80000F8
F80000F8
F80000F8
FC0000F8
7C0000F8
7E0001F0
7E0003F0
3F8007E0
1FE01FE0
0FFFFFC0
07FFFF00
01FFFC00
003FE000
ENDCHAR
STARTCHAR 0161
ENCODING 353
SWIDTH 500 0
DWIDTH 26 0
BBX 23 40 1 -1
BITMAP
0F00E0
0781E0
0383C0
03C380
01E780
00FF00
00FF00
007E00
000000
000000
000000
00FF00
07FFC0
0FFFF0
1FFFF8
3F81F8
7E00FC
7C007C
7C007C
7C0000
7C0000
7E0000
3F8000
3FF000
1FFF00
07FFE0
00FFF8
000FFC
0001FC
00007E
00003E
F8003E
F8003E
FC003E
7E007C
7F01FC
3FFFF8
1FFFF0
0FFFE0
01FF00
ENDCHAR
STARTCHAR 0162
ENCODING 354
SWIDTH 634 0
DWIDTH 33 0
BBX 29 49 2 -11
BITMAP
FFFFFFF8
FFFFFFF8
FFFFFFF8
FFFFFFF8
000F8000
000F8000
000F8000
000F8000
000F8000
000F8000
000F8000
000F8000
000F8000
000F8000
000F8000
000F8000
000F8000
000F8000
000F8000
000F8000
000F8000
000F8000
000F8000
000F8000
000F8000
000F8000
000F8000
000F8000
000F8000
000F8000
000F8000
000F8000
000F8000
000F8000
000F8000
000F8000
000F8000
000F8000
00060000
00060000
00060000
000FC000
000FE000
0001F000
0000F000
0000F000
00E1E000
01FFE000
003F8000
ENDCHAR
STARTCHAR 0163
ENCODING 355
SWIDTH 288 0
DWIDTH 15 0
BBX 14 46 2 -12
BITMAP
1F00
1F00
1F00
1F00
1F00
1F00
1F00
FFE0
FFE0
FFE0
FFE0
1F00
1F00
1F00
1F00
1F00
1F00
1F00
1F00
1F00
1F00
1F00
1F00
1F00
1F00
1F00
1F00
1F00
1F00
1F00
1F00
1FE0
1FE0
0FE0
03E0
0080
0180
01F0
03F8
007C
003C
003C
203C
7878
7FF8
07E0
ENDCHAR
STARTCHAR 0164
ENCODING 356
SWIDTH 634 0
DWIDTH 33 0
BBX 29 47 2 0
BITMAP
03C07800
01E0F000
00F1E000
007FE000
007FC000
003F8000
001F0000
00000000
00000000
FFFFFFF8
FFFFFFF8
FFFFFFF8
FFFFFFF8
000F8000
000F8000
000F8000
000F8000
000F8000
000F8000
000F8000
000F8000
000F8000
000F8000
000F8000
000F8000
000F8000
000F8000
000F8000
000F8000
000F8000
000F8000
000F8000
000F8000
000F8000
000F8000
000F8000
000F8000
000F8000
000F8000
000F8000
000F8000
000F8000
000F8000
000F8000
000F8000
000F8000
000F8000
ENDCHAR
STARTCHAR 0165
ENCODING 357
SWIDTH 442 0
DWIDTH 23 0
BBX 20 40 2 -1
BITMAP
0003F0
0003E0
0007C0
000780
000700
1F0F00
1F0E00
1F1C00
1F0000
1F0000
1F0000
1F0000
FFE000
FFE000
FFE000
FFE000
1F0000
1F0000
1F0000
1F0000
1F0000
1F0000
1F0000
1F0000
1F0000
1F0000
1F0000
1F0000
1F0000
1F0000
1F0000
1F0000
1F0000
1F0000
1F0000
1F0000
1FE000
1FE000
0FE000
07E000
ENDCHAR
STARTCHAR 0166
ENCODING 358
SWIDTH 634 0
DWIDTH 33 0
BBX 29 38 2 0
BITMAP
FFFFFFF8
FFFFFFF8
FFFFFFF8
FFFFFFF8
000F8000
000F8000
000F8000
000F8000
000F8000
000F8000
000F8000
000F8000
000F8000
000F8000
000F8000
07FFFF00
07FFFF00
07FFFF00
07FFFF00
000F8000
000F8000
000F8000
000F8000
000F8000
000F8000
000F8000
000F8000
000F8000
000F8000
000F8000
000F8000
000F8000
000F8000
000F8000
000F8000
000F8000
000F8000
000F8000
ENDCHAR
STARTCHAR 0167
ENCODING 359
SWIDTH 288 0
DWIDTH 15 0
BBX 12 35 1 -1
BITMAP
0F80
0F80
0F80
0F80
0F80
0F80
0F80
7FF0
7FF0
7FF0
7FF0
0F80
0F80
0F80
0F80
0F80
0F80
0F80
FFF0
FFF0
FFF0
FFF0
0F80
0F80
0F80
0F80
0F80
0F80
0F80
0F80
0F80
0FF0
0FF0
07F0
03F0
ENDCHAR
STARTCHAR 0168
ENCODING 360
SWIDTH 711 0
DWIDTH 37 0
BBX 29 46 4 0
BITMAP
007C1C00
00FF1C00
01FFFC00
01C7F800
01C0F000
00000000
00000000
F80000F8
F80000F8
F80000F8
F80000F8
F80000F8
F80000F8
F80000F8
F80000F8
F80000F8
F80000F8
F80000F8
F80000F8
F80000F8
F80000F8
F80000F8
F80000F8
F80000F8
F80000F8
F80000F8
F80000F8
F80000F8
F80000F8
F80000F8
F80000F8
F80000F8
F80000F8
F80000F8
F80000F8
F80000F8
F80000F8
7C0001F0
7C0001F0
7E0003F0
3F0007E0
1FE03FC0
0FFFFF80
07FFFF00
01FFFC00
003FE000
ENDCHAR
STARTCHAR 0169
ENCODING 361
SWIDTH 538 0
DWIDTH 28 0
BBX 22 37 3 0
BITMAP
07C0E0
0FF9C0
1FFFC0
1C3F80
1C0700
000000
000000
000000
000000
F8007C
F8007C
F8007C
F8007C
F8007C
F8007C
F8007C
F8007C
F8007C
F8007C
F8007C
F8007C
F8007C
F8007C
F8007C
F8007C
F8007C
F8007C
F8007C
F800FC
F800FC
FC01FC
FC03FC
7F07FC
7FFFBC
3FFF3C
1FFE3C
07F000
ENDCHAR
STARTCHAR 016A
ENCODING 362
SWIDTH 711 0
DWIDTH 37 0
BBX 29 46 4 -1
BITMAP
01FFF800
01FFF800
01FFF800
01FFF800
00000000
00000000
00000000
F80000F8
F80000F8
F80000F8
F80000F8
F80000F8
F80000F8
F80000F8
F80000F8
F80000F8
F80000F8
F80000F8
F80000F8
F80000F8
F80000F8
F80000F8
F80000F8
F80000F8
F80000F8
F80000F8
F80000F8
F80000F8
F80000F8
F80000F8
F80000F8
F80000F8
F80000F8
F80000F8
F80000F8
F80000F8
F80000F8
7C0001F0
7C0001F0
7E0003F0
3F0007E0
1FE03FC0
0FFFFF80
07FFFF00
01FFFC00
003FE000
ENDCHAR
STARTCHAR 016B
ENCODING 363
SWIDTH 538 0
DWIDTH 28 0
BBX 22 36 3 -1
BITMAP
0FFFC0
0FFFC0
0FFFC0
0FFFC0
000000
000000
000000
000000
F8007C
F8007C
F8007C
F8007C
F8007C
F8007C
F8007C
F8007C
F8007C
F8007C
F8007C
F8007C
F8007C
F8007C
F8007C
F8007C
F8007C
F8007C
F8007C
F800FC
F800FC
FC01FC
FC03FC
7F07FC
7FFFBC
3FFF3C
1FFE3C
07F000
ENDCHAR
STARTCHAR 016C
ENCODING 364
SWIDTH 711 0
DWIDTH 37 0
BBX 29 48 4 -1
BITMAP
01C01C00
01E01C00
00F03C00
00FFFC00
007FF800
003FF000
001FE000
00000000
00000000
F80000F8
F80000F8
F80000F8
F80000F8
F80000F8
F80000F8
F80000F8
F80000F8
F80000F8
F80000F8
F80000F8
F80000F8
F80000F8
F80000F8
F80000F8
F80000F8
F80000F8
F80000F8
F80000F8
F80000F8
F80000F8
F80000F8
F80000F8
F80000F8
F80000F8
F80000F8
F80000F8
F80000F8
F80000F8
F80000F8
7C0001F0
7C0001F0
7E0003F0
3F0007E0
1FE03FC0
0FFFFF80
07FFFF00
01FFFC00
003FE000
ENDCHAR
STARTCHAR 016D
ENCODING 365
SWIDTH 538 0
DWIDTH 28 0
BBX 22 39 3 -1
BITMAP
0E00E0
0E01C0
0F03C0
0FFFC0
07FF80
03FF00
01FE00
000000
000000
000000
000000
F8007C
F8007C
F8007C
F8007C
F8007C
F8007C
F8007C
F8007C
F8007C
F8007C
F8007C
F8007C
F8007C
F8007C
F8007C
F8007C
F8007C
F8007C
F8007C
F800FC
F800FC
FC01FC
FC03FC
7F07FC
7FFFBC
3FFF3C
1FFE3C
07F000
ENDCHAR
STARTCHAR 016E
ENCODING 366
SWIDTH 711 0
DWIDTH 37 0
BBX 29 51 4 0
BITMAP
000F8000
001FE000
003FE000
0038F000
00787000
00707000
00787000
0038F000
003FE000
001FE000
000F8000
00000000
F80000F8
F80000F8
F80000F8
F80000F8
F80000F8
F80000F8
F80000F8
F80000F8
F80000F8
F80000F8
F80000F8
F80000F8
F80000F8
F80000F8
F80000F8
F80000F8
F80000F8
F80000F8
F80000F8
F80000F8
F80000F8
F80000F8
F80000F8
F80000F8
F80000F8
F80000F8
F80000F8
F80000F8
F80000F8
F80000F8
7C0001F0
7C0001F0
7E0003F0
3F0007E0
1FE03FC0
0FFFFF80
07FFFF00
01FFFC00
003FE000
ENDCHAR
STARTCHAR 016F
ENCODING 367
SWIDTH 538 0
DWIDTH 28 0
BBX 22 41 3 -1
BITMAP
007800
01FE00
03FF00
03C700
038700
038380
038700
03CF00
03FF00
01FE00
007800
000000
000000
F8007C
F8007C
F8007C
F8007C
F8007C
F8007C
F8007C
F8007C
F8007C
F8007C
F8007C
F8007C
F8007C
F8007C
F8007C
F8007C
F8007C
F8007C
F8007C
F800FC
F800FC
FC01FC
FC03FC
7F07FC
7FFFBC
3FFF3C
1FFE3C
07F000
ENDCHAR
STARTCHAR 0170
ENCODING 368
SWIDTH 711 0
DWIDTH 37 0
BBX 29 48 4 -1
BITMAP
003F1F80
003F3F00
003E3E00
007C7C00
00787800
00F8F000
00F0E000
00000000
00000000
F80000F8
F80000F8
F80000F8
F80000F8
F80000F8
F80000F8
F80000F8
F80000F8
F80000F8
F80000F8
F80000F8
F80000F8
F80000F8
F80000F8
F80000F8
F80000F8
F80000F8
F80000F8
F80000F8
F80000F8
F80000F8
F80000F8
F80000F8
F80000F8
F80000F8
F80000F8
F80000F8
F80000F8
F80000F8
F80000F8
7C0001F0
7C0001F0
7E0003F0
3F0007E0
1FE03FC0
0FFFFF80
07FFFF00
01FFFC00
003FE000
ENDCHAR
STARTCHAR 0171
ENCODING 369
SWIDTH 538 0
DWIDTH 28 0
BBX 22 40 3 -1
BITMAP
03F1F8
03F1F0
03E3E0
07C3E0
07C7C0
078780
0F0F00
0F0E00
000000
000000
000000
000000
F8007C
F8007C
F8007C
F8007C
F8007C
F8007C
F8007C
F8007C
F8007C
F8007C
F8007C
F8007C
F8007C
F8007C
F8007C
F8007C
F8007C
F8007C
F8007C
F800FC
F800FC
FC01FC
FC03FC
7F07FC
7FFFBC
3FFF3C
1FFE3C
07F000
ENDCHAR
STARTCHAR 0172
ENCODING 370
SWIDTH 711 0
DWIDTH 37 0
BBX 29 49 4 -11
BITMAP
F80000F8
F80000F8
F80000F8
F80000F8
F80000F8
F80000F8
F80000F8
F80000F8
F80000F8
F80000F8
F80000F8
F80000F8
F80000F8
F80000F8
F80000F8
F80000F8
F80000F8
F80000F8
F80000F8
F80000F8
F80000F8
F80000F8
F80000F8
F80000F8
F80000F8
F80000F8
F80000F8
F80000F8
F80000F8
F80000F8
7C0001F0
7C0001F0
7E0003F0
3F0007E0
1FE03FC0
0FFFFFC0
07FFFF80
01FFFF00
003FEE00
00003C00
00007800
00007800
0000F000
0000F000
0000F000
0000F000
00007820
00003FE0
00000FE0
ENDCHAR
STARTCHAR 0173
ENCODING 371
SWIDTH 538 0
DWIDTH 28 0
BBX 24 38 3 -11
BITMAP
F8007C
F8007C
F8007C
F8007C
F8007C
F8007C
F8007C
F8007C
F8007C
F8007C
F8007C
F8007C
F8007C
F8007C
F8007C
F8007C
F8007C
F8007C
F8007C
F800FC
F800FC
FC01FC
FC03FC
7F07FC
7FFFBC
3FFF3C
1FFE3C
07F038
0000F0
0001E0
0001C0
000380
000380
000380
000380
0001E0
0000FF
00003F
ENDCHAR
STARTCHAR 0174
ENCODING 372
SWIDTH 942 0
DWIDTH 49 0
BBX 47 47 1 0
BITMAP
000007C00000
00000FE00000
00001FF00000
00003FF00000
00003C780000
0000783C0000
0000F01E0000
000000000000
000000000000
F80007C0007E
F8000FC0007E
FC000FE0007C
7C000FE0007C
7C001FE000FC
7C001FE000FC
7E001FF000F8
3E001FF000F8
3E003EF000F8
3E003CF801F8
3F003CF801F0
1F003C7801F0
1F007C7801F0
1F00787C03F0
1F00787C03E0
0F80F83C03E0
0F80F03E03E0
0F80F03E03E0
0F80F01E07C0
07C1F01E07C0
07C1E01F07C0
07C1E01F07C0
03C1E00F0F80
03E3E00F0F80
03E3C00F8F80
03E3C0078F80
01E7C0078F00
01E78007DF00
01F78007DF00
01F78003DE00
00FF8003DE00
00FF0003FE00
00FF0003FE00
00FF0001FC00
007F0001FC00
007E0001FC00
007E0000FC00
007E0000F800
ENDCHAR
STARTCHAR 0175
ENCODING 373
SWIDTH 730 0
DWIDTH 38 0
BBX 36 38 1 0
BITMAP
0001F00000
0003F80000
0003FC0000
0007BC0000
000F1E0000
000F0E0000
001E070000
003C078000
0000000000
0000000000
0000000000
F001F801F0
F801F801F0
F803F801E0
7803F803E0
7C03FC03E0
7C03FC03C0
7C07BC03C0
3C07BC07C0
3E07BE07C0
3E079E0780
1E0F1E0F80
1E0F1E0F80
1F0F1F0F00
0F0F0F0F00
0F1E0F1F00
0F1E0F1F00
0F9E0F9E00
079E079E00
079E07BE00
07FC07BC00
03FC07FC00
03FC03FC00
03FC03F800
03F803F800
01F803F800
01F801F800
01F801F000
ENDCHAR
STARTCHAR 0176
ENCODING 374
SWIDTH 673 0
DWIDTH 35 0
BBX 33 47 1 0
BITMAP
0003E00000
0007F00000
000FF80000
001FF80000
001E3C0000
003C1E0000
00780F0000
0000000000
0000000000
FC00001F80
FC00001F00
7E00003F00
3E00007E00
3F00007C00
1F8000FC00
0F8000F800
0FC001F800
07E003F000
07E003E000
03F007E000
01F007C000
01F80FC000
00FC0F8000
007C1F0000
007E3F0000
003E3E0000
003F7C0000
001FFC0000
000FF80000
000FF80000
0007F00000
0003E00000
0003E00000
0003E00000
0003E00000
0003E00000
0003E00000
0003E00000
0003E00000
0003E00000
0003E00000
0003E00000
0003E00000
0003E00000
0003E00000
0003E00000
0003E00000
ENDCHAR
STARTCHAR 0177
ENCODING 375
SWIDTH 480 0
DWIDTH 25 0
BBX 23 49 1 -11
BITMAP
007E00
007E00
00FF00
01FF80
01E780
03C3C0
0781C0
0700E0
000000
000000
000000
F0003E
F8003E
F8003C
78007C
7C007C
7C0078
3C00F8
3E00F0
3E01F0
1E01F0
1F01E0
1F03E0
0F03E0
0F83C0
0F87C0
078780
07C780
07CF80
03CF00
03EF00
03FF00
01FE00
01FE00
01FE00
00FC00
00FC00
00F800
00F800
00F800
00F000
01F000
01F000
03E000
07E000
7FC000
7F8000
7F0000
3E0000
ENDCHAR
STARTCHAR 0178
ENCODING 376
SWIDTH 673 0
DWIDTH 35 0
BBX 33 46 1 0
BITMAP
007C1F0000
007C1F0000
007C1F0000
007C1F0000
007C1F0000
0000000000
0000000000
0000000000
FC00001F80
FC00001F00
7E00003F00
3E00007E00
3F00007C00
1F8000FC00
0F8000F800
0FC001F800
07E003F000
07E003E000
03F007E000
01F007C000
01F80FC000
00FC0F8000
007C1F0000
007E3F0000
003E3E0000
003F7C0000
001FFC0000
000FF80000
000FF80000
0007F00000
0003E00000
0003E00000
0003E00000
0003E00000
0003E00000
0003E00000
0003E00000
0003E00000
0003E00000
0003E00000
0003E00000
0003E00000
0003E00000
0003E00000
0003E00000
0003E00000
ENDCHAR
STARTCHAR 0179
ENCODING 377
SWIDTH 615 0
DWIDTH 32 0
BBX 28 47 2 0
BITMAP
0001F800
0003F000
0003E000
0007C000
000F0000
001E0000
003C0000
00000000
00000000
7FFFFFF0
7FFFFFF0
7FFFFFF0
7FFFFFF0
000003F0
000007E0
00000FE0
00000FC0
00001F80
00003F00
00007E00
00007E00
0000FC00
0001F800
0003F000
0003F000
0007E000
000FC000
001F8000
001F8000
003F0000
007E0000
00FC0000
00FC0000
01F80000
03F00000
07E00000
0FE00000
0FC00000
1F800000
3F000000
7F000000
7E000000
FC000000
FFFFFFF0
FFFFFFF0
FFFFFFF0
FFFFFFF0
ENDCHAR
STARTCHAR 017A
ENCODING 378
SWIDTH 480 0
DWIDTH 25 0
BBX 22 39 2 0
BITMAP
0007C0
000F80
001F80
001F00
003E00
003C00
007800
00F000
000000
000000
000000
000000
7FFFF8
7FFFF8
7FFFF8
7FFFF8
0001F8
0001F0
0003E0
0007C0
000F80
001F00
003F00
007E00
00FC00
00F800
01F000
03E000
07C000
0FC000
1F8000
3F0000
3E0000
7C0000
F80000
FFFFFC
FFFFFC
FFFFFC
FFFFFC
ENDCHAR
STARTCHAR 017B
ENCODING 379
SWIDTH 615 0
DWIDTH 32 0
BBX 28 46 2 0
BITMAP
000F8000
000F8000
000F8000
000F8000
000F8000
00000000
00000000
00000000
7FFFFFF0
7FFFFFF0
7FFFFFF0
7FFFFFF0
000003F0
000007E0
00000FE0
00000FC0
00001F80
00003F00
00007E00
00007E00
0000FC00
0001F800
0003F000
0003F000
0007E000
000FC000
001F8000
001F8000
003F0000
007E0000
00FC0000
00FC0000
01F80000
03F00000
07E00000
0FE00000
0FC00000
1F800000
3F000000
7F000000
7E000000
FC000000
FFFFFFF0
FFFFFFF0
FFFFFFF0
FFFFFFF0
ENDCHAR
STARTCHAR 017C
ENCODING 380
SWIDTH 480 0
DWIDTH 25 0
BBX 22 38 2 0
BITMAP
00F800
00F800
00F800
00F800
00F800
000000
000000
000000
000000
000000
000000
7FFFF8
7FFFF8
7FFFF8
7FFFF8
0001F8
0001F0
0003E0
0007C0
000F80
001F00
003F00
007E00
00FC00
00F800
01F000
03E000
07C000
0FC000
1F8000
3F0000
3E0000
7C0000
F80000
FFFFFC
FFFFFC
FFFFFC
FFFFFC
ENDCHAR
STARTCHAR 017D
ENCODING 381
SWIDTH 615 0
DWIDTH 32 0
BBX 28 47 2 0
BITMAP
01E03C00
00F07800
0078F000
003FF000
003FE000
001FC000
000F8000
00000000
00000000
7FFFFFF0
7FFFFFF0
7FFFFFF0
7FFFFFF0
000003F0
000007E0
00000FE0
00000FC0
00001F80
00003F00
00007E00
00007E00
0000FC00
0001F800
0003F000
0003F000
0007E000
000FC000
001F8000
001F8000
003F0000
007E0000
00FC0000
00FC0000
01F80000
03F00000
07E00000
0FE00000
0FC00000
1F800000
3F000000
7F000000
7E000000
FC000000
FFFFFFF0
FFFFFFF0
FFFFFFF0
FFFFFFF0
ENDCHAR
STARTCHAR 017E
ENCODING 382
SWIDTH 480 0
DWIDTH 25 0
BBX 22 39 2 0
BITMAP
0E01E0
0F03C0
078380
038780
03CF00
01FE00
01FE00
00FC00
000000
000000
000000
000000
7FFFF8
7FFFF8
7FFFF8
7FFFF8
0001F8
0001F0
0003E0
0007C0
000F80
001F00
003F00
007E00
00FC00
00F800
01F000
03E000
07C000
0FC000
1F8000
3F0000
3E0000
7C0000
F80000
FFFFFC
FFFFFC
FFFFFC
FFFFFC
ENDCHAR
STARTCHAR 017F
ENCODING 383
SWIDTH 288 0
DWIDTH 15 0
BBX 12 38 3 0
BITMAP
03F0
0FF0
1FF0
1FF0
3F00
3E00
3E00
3E00
3E00
3E00
3E00
FE00
FE00
FE00
FE00
3E00
3E00
3E00
3E00
3E00
3E00
3E00
3E00
3E00
3E00
3E00
3E00
3E00
3E00
3E00
3E00
3E00
3E00
3E00
3E00
3E00
3E00
3E00
ENDCHAR
STARTCHAR 0180
ENCODING 384
SWIDTH 576 0
DWIDTH 30 0
BBX 28 39 1 -1
BITMAP
1F000000
1F000000
1F000000
1F000000
FFFE0000
FFFE0000
FFFE0000
1F000000
1F000000
1F000000
1F07F000
1F1FFC00
1F7FFE00
1FFFFF00
1FF83F80
1FE00FC0
1FC007C0
1FC007E0
1F8003E0
1F8003E0
1F0001F0
1F0001F0
1F0001F0
1F0001F0
1F0001F0
1F0001F0
1F0001F0
1F0001F0
1F0001F0
1F8003E0
1F8003E0
1FC007E0
1FC007C0
1FE00FC0
1FF83F80
1FFFFF00
1E7FFE00
1E3FFC00
0007F000
ENDCHAR
STARTCHAR 0181
ENCODING 385
SWIDTH 846 0
DWIDTH 44 0
BBX 40 38 2 0
BITMAP
0FFFFFFE00
3FFFFFFF80
7FFFFFFFE0
7FFFFFFFF0
FC1F0007F0
F81F0001F8
F81F0000F8
F81F0000FC
F81F00007C
F81F00007C
FC1F00007C
7F9F00007C
7F9F00007C
3F9F0000F8
0F9F0000F8
001F0001F0
001F0007F0
001FFFFFC0
001FFFFF80
001FFFFFE0
001FFFFFF8
001F0001FC
001F00007E
001F00003E
001F00003F
001F00001F
001F00001F
001F00001F
001F00001F
001F00001F
001F00003F
001F00003E
001F00007E
001F0001FC
001FFFFFF8
001FFFFFF0
001FFFFFE0
001FFFFF00
ENDCHAR
STARTCHAR 0182
ENCODING 386
SWIDTH 673 0
DWIDTH 35 0
BBX 29 38 4 0
BITMAP
FFFFFF80
FFFFFF80
FFFFFF80
FFFFFF80
F8000000
F8000000
F8000000
F8000000
F8000000
F8000000
F8000000
F8000000
F8000000
F8000000
F8000000
F8000000
FFFFF000
FFFFFE00
FFFFFF80
FFFFFFC0
F8000FE0
F80003F0
F80001F0
F80001F8
F80000F8
F80000F8
F80000F8
F80000F8
F80000F8
F80000F8
F80001F0
F80001F0
F80003F0
F8000FE0
FFFFFFC0
FFFFFF80
FFFFFF00
FFFFFC00
ENDCHAR
STARTCHAR 0183
ENCODING 387
SWIDTH 557 0
DWIDTH 29 0
BBX 25 39 3 -1
BITMAP
FFFFF000
FFFFF000
FFFFF000
FFFFF000
F8000000
F8000000
F8000000
F8000000
F8000000
F8000000
F83F8000
F8FFE000
F9FFF000
FBFFFC00
FFC1FC00
FF007E00
FE003E00
FE003F00
FC001F00
FC001F00
F8000F80
F8000F80
F8000F80
F8000F80
F8000F80
F8000F80
F8000F80
F8000F80
F8000F80
FC001F00
FC001F00
FE003F00
FE003E00
FF007E00
FFC1FC00
F7FFF800
F3FFF000
F1FFE000
007F0000
ENDCHAR
STARTCHAR 0184
ENCODING 388
SWIDTH 711 0
DWIDTH 37 0
BBX 35 38 0 0
BITMAP
01F0000000
03F0000000
07F0000000
0FF0000000
1FF0000000
3FF0000000
7FF0000000
FFF0000000
7FF0000000
3FF0000000
1FF0000000
0FF0000000
07F0000000
03F0000000
01F0000000
01FFFFC000
01FFFFF800
01FFFFFE00
01FFFFFF00
01F0003F80
01F0001FC0
01F0000FC0
01F00007C0
01F00007E0
01F00003E0
01F00003E0
01F00003E0
01F00003E0
01F00003E0
01F00007E0
01F00007C0
01F0000FC0
01F0001F80
01F0007F80
01FFFFFF00
01FFFFFE00
01FFFFF800
01FFFFE000
ENDCHAR
STARTCHAR 0185
ENCODING 389
SWIDTH 596 0
DWIDTH 31 0
BBX 30 39 0 -1
BITMAP
07C00000
0FC00000
1FC00000
1FC00000
3FC00000
7FC00000
7FC00000
FFC00000
7FC00000
3FC00000
3FC1FC00
1FC7FF00
0FCFFF80
0FDFFFE0
07FE0FE0
07F803F0
07F001F0
07F001F8
07E000F8
07E000F8
07C0007C
07C0007C
07C0007C
07C0007C
07C0007C
07C0007C
07C0007C
07C0007C
07C0007C
07E000F8
07E000F8
07F001F8
07F001F0
07F803F0
07FE0FE0
07BFFFC0
079FFF80
078FFF00
0003F800
ENDCHAR
STARTCHAR 0186
ENCODING 390
SWIDTH 711 0
DWIDTH 37 0
BBX 33 40 2 -1
BITMAP
003FF80000
01FFFF0000
03FFFF8000
07FFFFE000
0FE00FF000
1F8003F800
3F0001F800
3E0000FC00
7E00007C00
7C00003E00
7C00003E00
FC00001F00
F800001F00
F800001F00
F800001F00
0000000F80
0000000F80
0000000F80
0000000F80
0000000F80
0000000F80
0000000F80
0000000F80
0000000F80
0000001F00
0000001F00
0000001F00
0000001F00
7C00003E00
7C00003E00
3E00007E00
3E00007C00
3F0000F800
1F8001F800
0FC007F000
0FFC3FE000
07FFFFC000
01FFFF0000
007FFC0000
0007800000
ENDCHAR
STARTCHAR 0187
ENCODING 391
SWIDTH 769 0
DWIDTH 40 0
BBX 37 40 2 -1
BITMAP
0007FC0000
003FFF81F8
00FFFFE3F8
01FFFFF7F8
07F807FFF8
07E001FF80
0FC000FF00
1F80007F00
1F00003F00
3E00003F00
3E00001F00
7C00001F00
7C00000000
7C00000000
7C00000000
F800000000
F800000000
F800000000
F800000000
F800000000
F800000000
F800000000
F800000000
F800000000
F800000000
FC00000F80
7C00000F80
7C00001F80
7C00001F00
3E00001F00
3E00003F00
1F00003E00
1F80007E00
0FC000FC00
0FE001FC00
07FC07F800
03FFFFF000
00FFFFE000
003FFF8000
0007FC0000
ENDCHAR
STARTCHAR 0188
ENCODING 392
SWIDTH 576 0
DWIDTH 30 0
BBX 28 30 2 -1
BITMAP
000003F0
007E0FF0
03FFDFF0
07FFFFF0
0FFFFF00
1FC1FE00
3F00FE00
3E007E00
7C003E00
7C003E00
7C000000
F8000000
F8000000
F8000000
F8000000
F8000000
F8000000
F8000000
F8000000
F8000000
FC003E00
7C003E00
7C003E00
3E007E00
3F00FC00
1F81FC00
0FFFF800
07FFF000
03FFC000
00FF0000
ENDCHAR
STARTCHAR 0189
ENCODING 393
SWIDTH 711 0
DWIDTH 37 0
BBX 33 38 2 0
BITMAP
1FFFFC0000
1FFFFF0000
1FFFFFC000
1FFFFFE000
1F000FF000
1F0001F800
1F0000FC00
1F00007C00
1F00003E00
1F00003E00
1F00001F00
1F00001F00
1F00001F00
1F00001F80
1F00000F80
1F00000F80
1F00000F80
FFFF000F80
FFFF000F80
FFFF000F80
1F00000F80
1F00000F80
1F00000F80
1F00000F80
1F00001F80
1F00001F00
1F00001F00
1F00001F00
1F00003E00
1F00003E00
1F00007C00
1F0000FC00
1F0001F800
1F000FF000
1FFFFFE000
1FFFFFC000
1FFFFF8000
1FFFFC0000
ENDCHAR
STARTCHAR 018A
ENCODING 394
SWIDTH 884 0
DWIDTH 46 0
BBX 42 38 2 0
BITMAP
0FFFFFFE0000
3FFFFFFF8000
7FFFFFFFE000
7FFFFFFFF000
FC1F0007F800
F81F0001FC00
F81F00007E00
F81F00003E00
F81F00003F00
F81F00001F00
FC1F00001F80
7F9F00000F80
7F9F00000F80
3F9F00000F80
0F9F000007C0
001F000007C0
001F000007C0
001F000007C0
001F000007C0
001F000007C0
001F000007C0
001F000007C0
001F000007C0
001F000007C0
001F000007C0
001F00000F80
001F00000F80
001F00000F80
001F00001F00
001F00001F00
001F00003F00
001F00007E00
001F0001FC00
001F0007F800
001FFFFFF000
001FFFFFE000
001FFFFF8000
001FFFFC0000
ENDCHAR
STARTCHAR 018B
ENCODING 395
SWIDTH 673 0
DWIDTH 35 0
BBX 29 38 2 0
BITMAP
0FFFFFF8
0FFFFFF8
0FFFFFF8
0FFFFFF8
000000F8
000000F8
000000F8
000000F8
000000F8
000000F8
000000F8
000000F8
000000F8
000000F8
000000F8
000000F8
007FFFF8
03FFFFF8
0FFFFFF8
1FFFFFF8
3F8000F8
7E0000F8
7C0000F8
FC0000F8
F80000F8
F80000F8
F80000F8
F80000F8
F80000F8
F80000F8
7C0000F8
7C0000F8
7E0000F8
3F8000F8
1FFFFFF8
0FFFFFF8
07FFFFF8
01FFFFF8
ENDCHAR
STARTCHAR 018C
ENCODING 396
SWIDTH 557 0
DWIDTH 29 0
BBX 25 39 2 -1
BITMAP
07FFFF80
07FFFF80
07FFFF80
07FFFF80
00000F80
00000F80
00000F80
00000F80
00000F80
00000F80
00FE0F80
03FF8F80
0FFFCF80
1FFFEF80
1FC1FF80
3F007F80
7E003F80
7E003F80
7C001F80
FC001F80
F8000F80
F8000F80
F8000F80
F8000F80
F8000F80
F8000F80
F8000F80
F8000F80
F8000F80
7C001F80
7C001F80
7E003F80
3E003F80
3F007F80
1FC1FF80
0FFFF780
07FFE780
03FFC780
00FF0000
ENDCHAR
STARTCHAR 018D
ENCODING 397
SWIDTH 557 0
DWIDTH 29 0
BBX 26 39 1 -11
BITMAP
001E0000
01FFE000
07FFF800
0FFFFC00
1FE1FE00
3F807F00
7E003F00
7C001F80
FC000F80
F8000F80
F8000F80
F80007C0
F80007C0
F80007C0
F80007C0
F80007C0
F8000F80
F8000F80
F8000F80
7C001F80
7E001F00
3E003F00
3F80FE00
1FFFFC00
0FFFF800
07FFE000
03F80000
01FC0000
00FF0000
007F8000
001FC000
000FE000
0007F000
0001F800
0000FE00
1FFFFF00
1FFFFF00
1FFFFF00
1FFFFF00
ENDCHAR
STARTCHAR 018E
ENCODING 398
SWIDTH 634 0
DWIDTH 33 0
BBX 27 38 2 0
BITMAP
7FFFFFE0
7FFFFFE0
7FFFFFE0
7FFFFFE0
000003E0
000003E0
000003E0
000003E0
000003E0
000003E0
000003E0
000003E0
000003E0
000003E0
000003E0
000003E0
000003E0
3FFFFFE0
3FFFFFE0
3FFFFFE0
3FFFFFE0
000003E0
000003E0
000003E0
000003E0
000003E0
000003E0
000003E0
000003E0
000003E0
000003E0
000003E0
000003E0
000003E0
FFFFFFE0
FFFFFFE0
FFFFFFE0
FFFFFFE0
ENDCHAR
STARTCHAR 018F
ENCODING 399
SWIDTH 711 0
DWIDTH 37 0
BBX 33 40 2 -1
BITMAP
001FF00000
00FFFE0000
03FFFF8000
07FFFFC000
0FF00FE000
1FC003F000
1F8001F800
3F0000FC00
3E00007C00
3E00003E00
7C00003E00
7C00001F00
0000001F00
0000001F00
0000001F00
0000000F80
0000000F80
0000000F80
0000000F80
0000000F80
0000000F80
FFFFFFFF80
FFFFFFFF80
FFFFFFFF80
FFFFFFFF80
FC00001F00
7C00001F00
7C00001F00
7C00003F00
7E00003E00
7E00007E00
3E00007C00
3F0000FC00
1F8001F800
0FC007F000
0FF01FF000
07FFFFC000
01FFFF8000
00FFFE0000
001FF00000
ENDCHAR
STARTCHAR 0190
ENCODING 400
SWIDTH 653 0
DWIDTH 34 0
BBX 30 40 2 -1
BITMAP
003FF000
01FFFE00
07FFFF80
0FFFFFC0
1FE01FE0
3F8007F0
3F0003F0
3E0001F0
7C0000F8
7C0000F8
7C0000F8
7C000000
7C000000
7E000000
3F000000
3F000000
1FC00000
0FE00000
07FFE000
03FFE000
0FFFE000
1FFFE000
3FC00000
7F000000
7E000000
FC000000
FC000000
F800007C
F800007C
F800007C
F80000FC
F80000F8
7C0001F8
7E0001F8
3F0007F0
3FC01FE0
1FFFFFC0
07FFFF80
03FFFE00
003FE000
ENDCHAR
STARTCHAR 0191
ENCODING 401
SWIDTH 615 0
DWIDTH 32 0
BBX 30 49 0 -11
BITMAP
07FFFFFC
07FFFFFC
07FFFFFC
07FFFFFC
07C00000
07C00000
07C00000
07C00000
07C00000
07C00000
07C00000
07C00000
07C00000
07C00000
07C00000
07C00000
07C00000
07FFFFE0
07FFFFE0
07FFFFE0
07FFFFE0
07C00000
07C00000
07C00000
07C00000
07C00000
07C00000
07C00000
07C00000
07C00000
07C00000
07C00000
07C00000
07C00000
07C00000
07C00000
07C00000
07C00000
07C00000
07C00000
07C00000
07C00000
07C00000
07C00000
0FC00000
FFC00000
FF800000
FF000000
FC000000
ENDCHAR
STARTCHAR 0192
ENCODING 402
SWIDTH 288 0
DWIDTH 15 0
BBX 13 49 0 -11
BITMAP
00F8
01F8
03F8
07F8
07E0
07C0
07C0
07C0
07C0
07C0
07C0
1FF8
1FF8
1FF8
1FF8
07C0
07C0
07C0
07C0
07C0
07C0
07C0
07C0
07C0
07C0
07C0
07C0
07C0
07C0
07C0
07C0
07C0
07C0
07C0
07C0
07C0
07C0
07C0
07C0
07C0
07C0
07C0
07C0
07C0
0FC0
FFC0
FF80
FF00
FC00
ENDCHAR
STARTCHAR 0193
ENCODING 403
SWIDTH 807 0
DWIDTH 42 0
BBX 39 40 2 -1
BITMAP
0003FE0000
001FFFC07E
007FFFF1FE
01FFFFFBFE
03FE03FFFE
07F000FFE0
0FE0003FC0
1F80001FC0
1F80000FC0
3F00000FC0
3E000007C0
3E000007C0
7C00000000
7C00000000
7C00000000
F800000000
F800000000
F800000000
F800000000
F8000FFFE0
F8000FFFE0
F8000FFFE0
F8000FFFE0
F8000003E0
F8000003E0
FC000003E0
7C000003E0
7C000003E0
7E000007E0
3E000007E0
3F00000FE0
1F00000FE0
1F80001FE0
0FC0003FE0
07F000FFE0
03FE03F9E0
01FFFFF1E0
00FFFFC1E0
003FFF00E0
0007F80000
ENDCHAR
STARTCHAR 0194
ENCODING 404
SWIDTH 673 0
DWIDTH 35 0
BBX 33 39 1 -1
BITMAP
FC00001F80
FC00003F00
7E00003F00
3F00007E00
3F00007C00
1F8000FC00
0F8000F800
0FC001F800
07C003F000
07E003E000
03F007E000
01F007C000
01F80FC000
00F80F8000
007C1F0000
007E3F0000
003E3E0000
003F7C0000
001F7C0000
000FF80000
000FF80000
0007F00000
0003E00000
0003E00000
0007F00000
0007F00000
000FF80000
000FF80000
001F7C0000
001F7C0000
003F7E0000
003E3E0000
003E3E0000
003E3E0000
003E3E0000
001FFC0000
001FFC0000
000FF80000
0003E00000
ENDCHAR
STARTCHAR 0195
ENCODING 405
SWIDTH 846 0
DWIDTH 44 0
BBX 40 39 3 -1
BITMAP
F800000000
F800000000
F800000000
F800000000
F800000000
F800000000
F800000000
F800000000
F800000000
F800000000
F83F800000
F8FFE00000
F9FFF00000
FBFFF80000
FF83F807E0
FF00FC01F0
FE00FC00F8
FC007C00F8
FC007C007C
F8007C003E
F8007C003E
F8007C003E
F8007C001F
F8007C001F
F8007C001F
F8007C001F
F8007C001F
F8007C001F
F8007C003E
F8007C003E
F8007C007C
F8007C007C
F8007C00F8
F8007C01F8
F8007E07F0
F8007FFFE0
F8007FFFC0
F8003FFF00
00000FF800
ENDCHAR
STARTCHAR 0196
ENCODING 406
SWIDTH 250 0
DWIDTH 13 0
BBX 9 39 3 -1
BITMAP
F800
F800
F800
F800
F800
F800
F800
F800
F800
F800
F800
F800
F800
F800
F800
F800
F800
F800
F800
F800
F800
F800
F800
F800
F800
F800
F800
F800
F800
F800
F800
F800
F800
F800
F800
FF80
FF80
7F80
1F80
ENDCHAR
STARTCHAR 0197
ENCODING 407
SWIDTH 365 0
DWIDTH 19 0
BBX 17 38 1 0
BITMAP
03E000
03E000
03E000
03E000
03E000
03E000
03E000
03E000
03E000
03E000
03E000
03E000
03E000
03E000
03E000
03E000
03E000
FFFF80
FFFF80
FFFF80
03E000
03E000
03E000
03E000
03E000
03E000
03E000
03E000
03E000
03E000
03E000
03E000
03E000
03E000
03E000
03E000
03E000
03E000
ENDCHAR
STARTCHAR 0198
ENCODING 408
SWIDTH 673 0
DWIDTH 35 0
BBX 31 38 4 0
BITMAP
F8000000
F80000F8
F80003FE
F80007FC
F8000FF8
F8001F80
F8003F00
F8007E00
F800FC00
F801F800
F803F000
F807E000
F80FC000
F81F8000
F83F0000
F87E0000
F8FE0000
F9FF0000
FBFF8000
FFCF8000
FF87C000
FF07E000
FE03F000
FC01F000
F801F800
F800FC00
F8007C00
F8007E00
F8003F00
F8001F00
F8001F80
F8000FC0
F80007C0
F80007E0
F80003F0
F80001F8
F80000F8
F80000FC
ENDCHAR
STARTCHAR 0199
ENCODING 409
SWIDTH 519 0
DWIDTH 27 0
BBX 23 38 3 0
BITMAP
0FC000
3FC000
7FC000
7FC000
FC0000
F80000
F80000
F80000
F80000
F80000
F80000
F800FC
F801F8
F803F0
F807E0
F80FC0
F81F80
F83F00
F87E00
F8F800
F9F800
FBF800
FFFC00
FFFE00
FF3E00
FE1F00
FC1F80
F80F80
F80FC0
F807C0
F803E0
F803F0
F801F0
F800F8
F800FC
F8007C
F8007E
F8003E
ENDCHAR
STARTCHAR 019A
ENCODING 410
SWIDTH 346 0
DWIDTH 18 0
BBX 15 38 2 0
BITMAP
07C0
07C0
07C0
07C0
07C0
07C0
07C0
07C0
07C0
07C0
07C0
07C0
07C0
07C0
07C0
07C0
07C0
FFFE
FFFE
FFFE
07C0
07C0
07C0
07C0
07C0
07C0
07C0
07C0
07C0
07C0
07C0
07C0
07C0
07C0
07C0
07C0
07C0
07C0
ENDCHAR
STARTCHAR 019B
ENCODING 411
SWIDTH 538 0
DWIDTH 28 0
BBX 27 39 1 0
BITMAP
3F006000
3F80E000
3FC3E000
7FE7C000
03FF8000
00FE0000
00FC0000
01F80000
03F80000
0FFC0000
1FBC0000
7E7C0000
7C7E0000
707E0000
60FF0000
40FF0000
00FF0000
01F78000
01E78000
01E78000
03E3C000
03C3C000
07C3C000
07C1E000
0781E000
0F81F000
0F80F000
0F00F000
1F00F800
1F007800
3E007800
3E007C00
3E003C00
7C003C00
7C003E00
7C001FC0
F8001FC0
F8000FE0
00000780
ENDCHAR
STARTCHAR 019C
ENCODING 412
SWIDTH 865 0
DWIDTH 45 0
BBX 37 39 4 -1
BITMAP
F800F800F8
F800F800F8
F800F800F8
F800F800F8
F800F800F8
F800F800F8
F800F800F8
F800F800F8
F800F800F8
F800F800F8
F800F800F8
F800F800F8
F800F800F8
F800F800F8
F800F800F8
F800F800F8
F800F800F8
F800F800F8
F800F800F8
F800F800F8
F800F800F8
F800F800F8
F800F800F8
F800F800F8
F800F800F8
F800F800F8
F800F800F8
F800F800F8
F800F800F8
F800F800F8
F800F800F8
F801F801F8
FC01FC01F8
FC03FC03F8
7E0FFE0FF8
7FFF7FFEF8
3FFE3FFCF8
1FFC1FF8F8
07F007E000
ENDCHAR
STARTCHAR 019D
ENCODING 413
SWIDTH 730 0
DWIDTH 38 0
BBX 35 49 -1 -11
BITMAP
07E00003E0
07F00003E0
07F00003E0
07F80003E0
07F80003E0
07FC0003E0
07FE0003E0
07FE0003E0
07DF0003E0
07DF8003E0
07CF8003E0
07C7C003E0
07C7C003E0
07C3E003E0
07C1F003E0
07C1F003E0
07C0F803E0
07C0FC03E0
07C07C03E0
07C03E03E0
07C03E03E0
07C01F03E0
07C00F83E0
07C00F83E0
07C007C3E0
07C007E3E0
07C003E3E0
07C001F3E0
07C001F3E0
07C000FBE0
07C000FFE0
07C0007FE0
07C0003FE0
07C0003FE0
07C0001FE0
07C0000FE0
07C0000FE0
07C00007E0
07C0000000
07C0000000
07C0000000
07C0000000
07C0000000
07C0000000
0FC0000000
FFC0000000
FF80000000
FF00000000
FC00000000
ENDCHAR
STARTCHAR 019E
ENCODING 414
SWIDTH 538 0
DWIDTH 28 0
BBX 22 39 3 -11
BITMAP
003F80
F0FFE0
F3FFF0
F7FFF8
F783F8
FF00FC
FE00FC
FC007C
FC007C
F8007C
F8007C
F8007C
F8007C
F8007C
F8007C
F8007C
F8007C
F8007C
F8007C
F8007C
F8007C
F8007C
F8007C
F8007C
F8007C
F8007C
F8007C
F8007C
00007C
00007C
00007C
00007C
00007C
00007C
00007C
00007C
00007C
00007C
00007C
ENDCHAR
STARTCHAR 019F
ENCODING 415
SWIDTH 788 0
DWIDTH 41 0
BBX 37 40 2 -1
BITMAP
0003FE0000
001FFFC000
007FFFF000
01FFFFFC00
03FE03FE00
07F0007F00
0FE0003F80
0FC0001F80
1F80000FC0
3F000007C0
3E000003E0
7E000003E0
7C000001F0
7C000001F0
7C000001F0
F8000000F8
F8000000F8
F8000000F8
F8000000F8
FFFFFFFFF8
FFFFFFFFF8
FFFFFFFFF8
FFFFFFFFF8
F8000000F8
F8000000F8
F8000000F8
7C000001F0
7C000001F0
7C000001F0
3E000003E0
3F000007E0
1F000007C0
1F80000FC0
0FC0003F80
07F0007F00
03FE03FE00
01FFFFFC00
007FFFF000
001FFFC000
0003FE0000
ENDCHAR
STARTCHAR 01A0
ENCODING 416
SWIDTH 788 0
DWIDTH 41 0
BBX 40 43 2 -1
BITMAP
0000000004
000000000E
000000003E
0003FE001F
001FFFC01F
007FFFF81F
01FFFFFEFF
03FE03FFFF
07F0007FFE
0FE0003FFC
1FC0001FE0
1F80000FC0
3F000007E0
3E000003E0
7E000003F0
7C000001F0
7C000001F0
7C000001F0
F8000000F8
F8000000F8
F8000000F8
F8000000F8
F8000000F8
F8000000F8
F8000000F8
F8000000F8
F8000000F8
F8000000F8
7C000001F0
7C000001F0
7C000001F0
7E000003F0
3E000003E0
3F000007E0
1F80000FC0
1FC0001F80
0FE0003F80
07F0007F00
03FE03FE00
01FFFFFC00
007FFFF000
001FFFC000
0003FE0000
ENDCHAR
STARTCHAR 01A1
ENCODING 417
SWIDTH 557 0
DWIDTH 29 0
BBX 28 34 2 0
BITMAP
00000040
000000E0
000003E0
000001F0
000001F0
007F01F0
03FFE3F0
07FFFFF0
0FFFFFE0
1FC1FFC0
3F007F00
3E003E00
7E003E00
7C001F00
7C001F00
F8000F80
F8000F80
F8000F80
F8000F80
F8000F80
F8000F80
F8000F80
F8000F80
F8000F80
7C001F00
7C001F00
7E003F00
3E003E00
3F007E00
1FC1FC00
0FFFF800
07FFF000
03FFE000
007F0000
ENDCHAR
STARTCHAR 01A2
ENCODING 418
SWIDTH 1019 0
DWIDTH 53 0
BBX 47 40 2 0
BITMAP
0003FE003FC0
001FFFC1FFF0
007FFFF3FFF8
01FFFFFFFFF8
03FE03FFC0FC
07F0007F807C
0FE0003F803E
1FC0001FC03E
1F80000FC03E
3F000007E03E
3E000003E03E
7E000003F03E
7C000001F03E
7C000001F03E
7C000001F03E
F8000000F83E
F8000000F83E
F8000000F83E
F8000000F83E
F8000000F83E
F8000000F83E
F8000000F83E
F8000000F83E
F8000000F83E
F8000000F83E
7C000001F03E
7C000001F03E
7C000001F03E
7E000003F03E
3E000003E03E
3F000007E03E
1F80000FC03E
1FC0001F803E
0FE0003F803E
07F0007F003E
03FE03FE003E
01FFFFFC003E
007FFFF0003E
001FFFC0003E
0003FE000000
ENDCHAR
STARTCHAR 01A3
ENCODING 419
SWIDTH 730 0
DWIDTH 38 0
BBX 33 38 2 -10
BITMAP
007F01F800
03FFC7FE00
07FFFFFF00
0FFFFFFF00
1FC1FC1F80
3F007E0F80
3E003E0F80
7E003F0F80
7C001F0F80
7C001F0F80
F8000F8F80
F8000F8F80
F8000F8F80
F8000F8F80
F8000F8F80
F8000F8F80
F8000F8F80
F8000F8F80
F8000F8F80
7C001F0F80
7C001F0F80
7E003F0F80
3E003E0F80
3F007E0F80
1FC1FC0F80
0FFFF80F80
07FFF00F80
03FFE00F80
00FF000F80
0000000F80
0000000F80
0000000F80
0000000F80
0000000F80
0000000F80
0000000F80
0000000F80
0000000F80
ENDCHAR
STARTCHAR 01A4
ENCODING 420
SWIDTH 826 0
DWIDTH 43 0
BBX 39 38 2 0
BITMAP
0FFFFFFE00
3FFFFFFFC0
7FFFFFFFE0
7FFFFFFFF0
FC1F0003F8
F81F0001FC
F81F0000FC
F81F00007C
F81F00003E
F81F00003E
FC1F00003E
7F9F00003E
7F9F00003E
3F9F00003E
0F9F00007E
001F00007C
001F0000FC
001F0003F8
001FFFFFF8
001FFFFFF0
001FFFFFC0
001FFFFF00
001F000000
001F000000
001F000000
001F000000
001F000000
001F000000
001F000000
001F000000
001F000000
001F000000
001F000000
001F000000
001F000000
001F000000
001F000000
001F000000
ENDCHAR
STARTCHAR 01A5
ENCODING 421
SWIDTH 557 0
DWIDTH 29 0
BBX 25 49 3 -12
BITMAP
0F800000
3F800000
7F800000
FF800000
F8000000
F0000000
F0000000
F0000000
F0000000
F0000000
F03F8000
F1FFE000
F3FFF000
F7FFF800
FFC1FC00
FF007E00
FE003E00
FE003F00
FC001F00
FC001F00
F8000F80
F8000F80
F8000F80
F8000F80
F8000F80
F8000F80
F8000F80
F8000F80
F8000F80
FC001F00
FC001F00
FE003F00
FE003E00
FF007E00
FFC1FC00
FFFFF800
FBFFF000
F8FFE000
F83F8000
F8000000
F8000000
F8000000
F8000000
F8000000
F8000000
F8000000
F8000000
F8000000
F8000000
ENDCHAR
STARTCHAR 01A6
ENCODING 422
SWIDTH 653 0
DWIDTH 34 0
BBX 28 44 4 -7
BITMAP
F8000000
F8000000
F8000000
F8000000
F8000000
F8000000
F8000000
FFFFF000
FFFFFC00
FFFFFF00
FFFFFF80
F8003F80
F8000FC0
F80007C0
F80003E0
F80003E0
F80003E0
F80003E0
F80003E0
F80003E0
F80003E0
F80007C0
F8000FC0
F8003FC0
FFFFFF80
FFFFFF00
FFFFFE00
FFFFFF00
F8001F80
F8000FC0
F80007C0
F80007C0
F80003E0
F80003E0
F80003E0
F80003E0
F80003E0
F80003E0
000003E0
000003E0
000003E0
000003E0
000003F0
000001F0
ENDCHAR
STARTCHAR 01A7
ENCODING 423
SWIDTH 673 0
DWIDTH 35 0
BBX 29 40 3 -1
BITMAP
003FE000
01FFFC00
07FFFF00
0FFFFF80
1FE03FC0
3F800FE0
3F0007E0
7E0003E0
7C0001F0
7C0001F0
7C0001F0
000001F0
000001F0
000003F0
000007F0
00000FE0
00007FE0
0007FFC0
003FFF80
03FFFE00
0FFFF000
1FFF0000
3FF80000
7FC00000
7F000000
FC000000
FC000000
F80000F8
F80000F8
F80000F8
F80001F8
F80001F0
7C0003F0
7E0003F0
3F000FE0
3FC03FC0
1FFFFF80
07FFFF00
01FFFC00
003FE000
ENDCHAR
STARTCHAR 01A8
ENCODING 424
SWIDTH 500 0
DWIDTH 26 0
BBX 23 29 2 -1
BITMAP
01FE00
07FFC0
1FFFE0
3FFFF0
3F03F8
7E00F8
7C007C
7C007C
00007C
00007C
0000FC
0007F8
007FF8
03FFE0
1FFF80
3FFC00
7FC000
7E0000
FC0000
F80000
F8003E
F8003E
F8007E
7C00FC
7F01FC
3FFFF8
1FFFF0
0FFFE0
01FF00
ENDCHAR
STARTCHAR 01A9
ENCODING 425
SWIDTH 615 0
DWIDTH 32 0
BBX 28 38 2 0
BITMAP
FFFFFFE0
FFFFFFE0
FFFFFFE0
FFFFFFE0
FC000000
7E000000
7F000000
3F000000
1F800000
0FC00000
07E00000
07E00000
03F00000
01F80000
00FC0000
00FC0000
007E0000
003F0000
001F8000
001F8000
003F0000
007E0000
00FC0000
01FC0000
01F80000
03F00000
07E00000
0FE00000
0FC00000
1F800000
3F000000
7F000000
7E000000
FC000000
FFFFFFF0
FFFFFFF0
FFFFFFF0
FFFFFFF0
ENDCHAR
STARTCHAR 01AA
ENCODING 426
SWIDTH 346 0
DWIDTH 18 0
BBX 18 49 0 -11
BITMAP
0F8000
3FE000
7FF000
78F000
F07800
E03800
E03800
E03800
F07800
70F800
7FF800
3FF800
0FF800
00F800
00F800
00F800
00F800
00F800
00F800
00F800
00F800
00F800
00F800
00F800
00F800
00F800
00F800
00F800
00F800
00F800
00F800
00F800
00F800
00F800
00F800
00F800
00F800
00F800
00F800
00F800
00F800
00F800
00F800
00F800
00FC00
00FFC0
007FC0
003FC0
000FC0
ENDCHAR
STARTCHAR 01AB
ENCODING 427
SWIDTH 288 0
DWIDTH 15 0
BBX 12 45 2 -10
BITMAP
1F00
1F00
1F00
1F00
1F00
1F00
1F00
FFF0
FFF0
FFF0
FFF0
1F00
1F00
1F00
1F00
1F00
1F00
1F00
1F00
1F00
1F00
1F00
1F00
1F00
1F00
1F00
1F00
1F00
1F00
1F00
1F00
1FF0
1FF0
0FF0
07F0
01F0
01F0
01F0
01F0
01F0
03F0
1FF0
1FE0
1FC0
1F00
ENDCHAR
STARTCHAR 01AC
ENCODING 428
SWIDTH 634 0
DWIDTH 33 0
BBX 30 38 1 0
BITMAP
0FFFFFFC
3FFFFFFC
7FFFFFFC
7FFFFFFC
FC07C000
F807C000
F807C000
F807C000
F807C000
F807C000
FC07C000
7F07C000
7F07C000
3F07C000
0F07C000
0007C000
0007C000
0007C000
0007C000
0007C000
0007C000
0007C000
0007C000
0007C000
0007C000
0007C000
0007C000
0007C000
0007C000
0007C000
0007C000
0007C000
0007C000
0007C000
0007C000
0007C000
0007C000
0007C000
ENDCHAR
STARTCHAR 01AD
ENCODING 429
SWIDTH 288 0
DWIDTH 15 0
BBX 11 39 2 -1
BITMAP
03E0
07E0
0FE0
1FE0
1F80
1F00
1F00
1F00
1F00
1F00
1F00
FFE0
FFE0
FFE0
FFE0
1F00
1F00
1F00
1F00
1F00
1F00
1F00
1F00
1F00
1F00
1F00
1F00
1F00
1F00
1F00
1F00
1F00
1F00
1F00
1F00
1FE0
1FE0
0FE0
07E0
ENDCHAR
STARTCHAR 01AE
ENCODING 430
SWIDTH 634 0
DWIDTH 33 0
BBX 29 49 2 -11
BITMAP
FFFFFFF8
FFFFFFF8
FFFFFFF8
FFFFFFF8
000F8000
000F8000
000F8000
000F8000
000F8000
000F8000
000F8000
000F8000
000F8000
000F8000
000F8000
000F8000
000F8000
000F8000
000F8000
000F8000
000F8000
000F8000
000F8000
000F8000
000F8000
000F8000
000F8000
000F8000
000F8000
000F8000
000F8000
000F8000
000F8000
000F8000
000F8000
000F8000
000F8000
000F8000
000F8000
000F8000
000F8000
000F8000
000F8000
000F8000
000FC000
000FFC00
0007FC00
0003FC00
0000FC00
ENDCHAR
STARTCHAR 01AF
ENCODING 431
SWIDTH 769 0
DWIDTH 40 0
BBX 37 45 4 0
BITMAP
0000000070
00000000F0
00000001F8
00000000F8
00000000F8
00000000F8
F80000FFF8
F80000FFF0
F80000FFE0
F80000FF80
F80000F800
F80000F800
F80000F800
F80000F800
F80000F800
F80000F800
F80000F800
F80000F800
F80000F800
F80000F800
F80000F800
F80000F800
F80000F800
F80000F800
F80000F800
F80000F800
F80000F800
F80000F800
F80000F800
F80000F800
F80000F800
F80000F800
F80000F800
F80000F800
F80000F800
F80000F800
7C0001F000
7C0001F000
7E0003F000
3F0007E000
1FE03FC000
0FFFFF8000
07FFFF0000
01FFFC0000
003FE00000
ENDCHAR
STARTCHAR 01B0
ENCODING 432
SWIDTH 615 0
DWIDTH 32 0
BBX 30 34 3 0
BITMAP
00000038
00000078
000000FC
0000007C
0000007C
0000007C
F8007FFC
F8007FF8
F8007FF0
F8007FC0
F8007C00
F8007C00
F8007C00
F8007C00
F8007C00
F8007C00
F8007C00
F8007C00
F8007C00
F8007C00
F8007C00
F8007C00
F8007C00
F8007C00
F8007C00
F800FC00
F800FC00
FC01FC00
FC03FC00
7F07FC00
7FFFBC00
3FFF3C00
1FFE3C00
07F00000
ENDCHAR
STARTCHAR 01B1
ENCODING 433
SWIDTH 750 0
DWIDTH 39 0
BBX 36 38 1 -1
BITMAP
7FFF03FFF0
7FFF03FFF0
7FFF03FFF0
7FFF03FFF0
003E03F000
00F800F800
01F0007C00
03E0003E00
07C0001F00
0F80000F80
1F000007C0
1F000007C0
3E000003E0
3E000003E0
7C000003E0
7C000001F0
7C000001F0
7C000001F0
F8000001F0
F8000001F0
F8000001F0
F8000001F0
F8000001F0
7C000001F0
7C000001F0
7C000003F0
7E000003E0
3E000003E0
3F000007C0
1F00000FC0
1F80001F80
0FC0003F80
07F0007F00
03FC01FE00
01FFFFFC00
007FFFF000
003FFFC000
0003FF0000
ENDCHAR
STARTCHAR 01B2
ENCODING 434
SWIDTH 692 0
DWIDTH 36 0
BBX 30 39 4 -1
BITMAP
F8007E00
F8003F00
F8001F00
F8001F80
F8000F80
F8000FC0
F80007E0
F80007E0
F80003E0
F80003F0
F80001F0
F80001F8
F80000F8
F80000F8
F80000F8
F800007C
F800007C
F800007C
F800007C
F800007C
F800007C
F800007C
F800007C
F800007C
F800007C
F80000F8
F80000F8
F80000F8
F80001F8
F80001F0
F80003F0
F80007E0
7C000FE0
7E003FC0
3F00FF80
3FFFFF00
1FFFFC00
07FFF800
00FF8000
ENDCHAR
STARTCHAR 01B3
ENCODING 435
SWIDTH 730 0
DWIDTH 38 0
BBX 36 38 1 0
BITMAP
FC000007C0
FC00001FF0
7E00003FE0
3F00007FE0
3F00007C40
1F8000F800
0F8000F800
0FC001F000
07E003F000
07E003E000
03F007C000
01F807C000
01F80F8000
00FC1F8000
007C1F0000
007E3E0000
003F3E0000
001F7C0000
001FFC0000
000FF80000
0007F00000
0007F00000
0003E00000
0003E00000
0003E00000
0003E00000
0003E00000
0003E00000
0003E00000
0003E00000
0003E00000
0003E00000
0003E00000
0003E00000
0003E00000
0003E00000
0003E00000
0003E00000
ENDCHAR
STARTCHAR 01B4
ENCODING 436
SWIDTH 615 0
DWIDTH 32 0
BBX 31 49 1 -11
BITMAP
0000007E
000000FE
000001FE
000003FE
000007E0
000007C0
00000F80
00000F80
00001F00
00001F00
00001E00
F0003E00
F8003E00
F8003C00
78007C00
7C007C00
7C007800
3C00F800
3E00F000
3E01F000
1E01F000
1F01E000
1F03E000
0F03E000
0F83C000
0F87C000
0787C000
07C78000
07CF8000
03CF0000
03EF0000
03FF0000
01FE0000
01FE0000
01FE0000
00FC0000
00FC0000
00F80000
00F80000
00F80000
00F00000
01F00000
01F00000
03E00000
07E00000
7FC00000
7FC00000
7F800000
3E000000
ENDCHAR
STARTCHAR 01B5
ENCODING 437
SWIDTH 615 0
DWIDTH 32 0
BBX 28 38 2 0
BITMAP
7FFFFFF0
7FFFFFF0
7FFFFFF0
7FFFFFF0
000003F0
000007E0
00000FE0
00000FC0
00001F80
00003F00
00007F00
00007E00
0000FC00
0001F800
0003F800
0003F000
0007E000
07FFFE00
07FFFE00
07FFFE00
003F0000
007E0000
00FC0000
01F80000
01F80000
03F00000
07E00000
0FC00000
0FC00000
1F800000
3F000000
7F000000
7E000000
FC000000
FFFFFFF0
FFFFFFF0
FFFFFFF0
FFFFFFF0
ENDCHAR
STARTCHAR 01B6
ENCODING 438
SWIDTH 480 0
DWIDTH 25 0
BBX 22 27 2 0
BITMAP
7FFFF8
7FFFF8
7FFFF8
7FFFF8
0001F8
0001F0
0003E0
0007C0
000F80
001F80
001F00
003E00
3FFFE0
3FFFE0
3FFFE0
03E000
07C000
0FC000
1F8000
3F0000
3E0000
7C0000
F80000
FFFFFC
FFFFFC
FFFFFC
FFFFFC
ENDCHAR
STARTCHAR 01B7
ENCODING 439
SWIDTH 615 0
DWIDTH 32 0
BBX 29 39 2 -1
BITMAP
3FFFFFF8
3FFFFFF8
3FFFFFF8
3FFFFFF8
000001F8
000003F0
000007E0
00000FC0
00001F80
00001F80
00003F00
00007E00
0000FC00
0001FC00
0003F800
000FF000
000FFC00
000FFF00
000FFFC0
00007FE0
00000FE0
000007F0
000003F0
000001F8
000000F8
000000F8
000000F8
000000F8
F80000F8
F80000F8
F80001F8
7C0001F0
7E0003F0
3F000FE0
3FC03FC0
1FFFFF80
0FFFFF00
03FFFC00
007FE000
ENDCHAR
STARTCHAR 01B8
ENCODING 440
SWIDTH 615 0
DWIDTH 32 0
BBX 29 39 2 -1
BITMAP
FFFFFFE0
FFFFFFE0
FFFFFFE0
FFFFFFE0
FC000000
7E000000
3F000000
1F800000
0FC00000
0FC00000
07E00000
03F00000
01F80000
00F80000
00FE0000
007F8000
01FF8000
07FF8000
1FFF8000
3FF00000
3F800000
7F000000
7E000000
FC000000
F8000000
F8000000
F8000000
F8000000
F80000F8
F80000F8
FC0001F8
7C0001F0
7E0003F0
3F8007E0
1FE01FE0
0FFFFFC0
07FFFF80
01FFFE00
003FF000
ENDCHAR
STARTCHAR 01B9
ENCODING 441
SWIDTH 519 0
DWIDTH 27 0
BBX 25 34 2 -7
BITMAP
3FFFFE00
3FFFFE00
3FFFFE00
3FFFFE00
1F000000
0F800000
0F800000
07C00000
03E00000
01F00000
00F00000
00780000
003C0000
01FC0000
0FFC0000
1FFC0000
3FE00000
7E000000
7C000000
FC000000
F8000000
F8000000
F8000000
F8000F80
F8000F80
F8000F80
7C001F00
7C001F00
7E003F00
3F80FE00
1FFFFC00
0FFFF800
03FFF000
00FF8000
ENDCHAR
STARTCHAR 01BA
ENCODING 442
SWIDTH 500 0
DWIDTH 26 0
BBX 23 38 2 -11
BITMAP
7FFFF8
7FFFF8
7FFFF8
7FFFF8
0000F8
0001F0
0003E0
0007C0
000F80
000F00
001F00
003E00
007C00
007F80
007FE0
007FF8
007FF8
0000FC
00007E
00003E
00001E
00001E
00001E
00001E
00003E
00007C
3F83FC
7FFFF8
FFFFF0
FFFFC0
F0FF00
F00000
F80030
7C01F0
7FFFF0
3FFFF8
1FFFC0
03FE00
ENDCHAR
STARTCHAR 01BB
ENCODING 443
SWIDTH 557 0
DWIDTH 29 0
BBX 25 36 2 0
BITMAP
007F8000
03FFF000
07FFF800
0FFFFC00
1FC0FE00
3F807F00
3F003F00
3E001F80
7E000F80
7C000F80
7C000F80
7C000F80
00000F80
00001F80
00001F00
00003F00
06007E00
0780FC00
07F3FC00
07FFF000
01FFE000
007FE000
00FFF800
03FFFE00
07F07E00
0FC01E00
1F800200
1F000000
3E000000
3E000000
7C000000
7C000000
7FFFFF80
7FFFFF80
7FFFFF80
FFFFFF80
ENDCHAR
STARTCHAR 01BE
ENCODING 446
SWIDTH 500 0
DWIDTH 26 0
BBX 23 35 2 0
BITMAP
00F800
00F800
00F800
00F800
00F800
00F800
00F800
07FF00
07FF00
07FF00
07FF00
00F800
00F800
00F800
00FC00
007E00
007F00
003FC0
000FE0
0003F8
0000F8
00007C
00007E
F0003E
F0003E
F0003E
F0003E
78003E
78007C
7C00FC
3F03FC
1FFFF8
0FFFF0
07FFC0
01FE00
ENDCHAR
STARTCHAR 01BF
ENCODING 447
SWIDTH 557 0
DWIDTH 29 0
BBX 25 40 3 -12
BITMAP
000FF000
F07FF800
F1FFFE00
F3FFFE00
F7F03F00
FFC01F00
FF000F80
FE000F80
FC000F80
F8000F80
F8000F80
F8000F80
F8001F80
F8001F00
F8003F00
F8003E00
F8007E00
F800FC00
F800FC00
F801F800
F803F000
F807E000
F80FC000
F81F8000
F87F0000
F8FC0000
F9F80000
FFF00000
FFC00000
FF000000
FE000000
F8000000
F8000000
F8000000
F8000000
F8000000
F8000000
F8000000
F8000000
F8000000
ENDCHAR
STARTCHAR 01C0
ENCODING 448
SWIDTH 269 0
DWIDTH 14 0
BBX 3 49 5 -11
BITMAP
E0
E0
E0
E0
E0
E0
E0
E0
E0
E0
E0
E0
E0
E0
E0
E0
E0
E0
E0
E0
E0
E0
E0
E0
E0
E0
E0
E0
E0
E0
E0
E0
E0
E0
E0
E0
E0
E0
E0
E0
E0
E0
E0
E0
E0
E0
E0
E0
E0
ENDCHAR
STARTCHAR 01C1
ENCODING 449
SWIDTH 365 0
DWIDTH 19 0
BBX 9 49 5 -11
BITMAP
E380
E380
E380
E380
E380
E380
E380
E380
E380
E380
E380
E380
E380
E380
E380
E380
E380
E380
E380
E380
E380
E380
E380
E380
E380
E380
E380
E380
E380
E380
E380
E380
E380
E380
E380
E380
E380
E380
E380
E380
E380
E380
E380
E380
E380
E380
E380
E380
E380
ENDCHAR
STARTCHAR 01C2
ENCODING 450
SWIDTH 576 0
DWIDTH 30 0
BBX 25 48 3 -10
BITMAP
001C0000
001C0000
001C0000
001C0000
001C0000
001C0000
001C0000
001C0000
001C0000
001C0000
001C0000
001C0000
001C0000
001C0000
001C0000
001C0000
001C0000
001C0000
001C0000
FFFFFF80
FFFFFF80
FFFFFF80
FFFFFF80
001C0000
001C0000
001C0000
001C0000
001C0000
FFFFFF80
FFFFFF80
FFFFFF80
FFFFFF80
001C0000
001C0000
001C0000
001C0000
001C0000
001C0000
001C0000
001C0000
001C0000
001C0000
001C0000
001C0000
001C0000
001C0000
001C0000
001C0000
ENDCHAR
STARTCHAR 01C3
ENCODING 451
SWIDTH 269 0
DWIDTH 14 0
BBX 5 38 7 0
BITMAP
F8
F8
F8
F8
F8
F8
F8
F8
F8
F8
F8
F8
F8
F8
F8
F8
F8
F8
F8
F8
F8
F8
78
70
70
70
70
70
70
70
00
00
00
F8
F8
F8
F8
F8
ENDCHAR
STARTCHAR 01C4
ENCODING 452
SWIDTH 1269 0
DWIDTH 66 0
BBX 61 47 4 0
BITMAP
0000000000E03C00
0000000000F07800
00000000007CF800
00000000003FF000
00000000001FE000
00000000001FC000
00000000000FC000
0000000000000000
0000000000000000
FFFFE0007FFFFFF8
FFFFFC007FFFFFF8
FFFFFE007FFFFFF8
FFFFFF007FFFFFF8
F8007F80000003F0
F8000FC0000007F0
F80007E0000007E0
F80003F000000FC0
F80001F000001F80
F80001F000003F80
F80000F800003F00
F80000F800007E00
F80000F80000FC00
F80000FC0001FC00
F800007C0001F800
F800007C0003F000
F800007C0007E000
F800007C000FC000
F800007C000FC000
F800007C001F8000
F800007C003F0000
F800007C007E0000
F800007C007E0000
F800007C00FC0000
F80000FC01F80000
F80000F803F00000
F80000F803F00000
F80000F807E00000
F80001F00FC00000
F80001F01F800000
F80003F01F800000
F80007E03F000000
F8000FC07E000000
F8007F80FC000000
FFFFFF00FFFFFFF8
FFFFFE00FFFFFFF8
FFFFFC00FFFFFFF8
FFFFE000FFFFFFF8
ENDCHAR
STARTCHAR 01C5
ENCODING 453
SWIDTH 1173 0
DWIDTH 61 0
BBX 56 39 4 0
BITMAP
00000000078070
FFFFE00003C0F0
FFFFFC0001C1E0
FFFFFE0001E1C0
FFFFFF0000F3C0
F8007F80007F80
F8000FC0007F80
F80007E0003F00
F80003F0000000
F80001F0000000
F80001F0000000
F80000F8000000
F80000F83FFFFE
F80000F83FFFFE
F80000FC3FFFFE
F800007C3FFFFE
F800007C00007C
F800007C0000FC
F800007C0001F8
F800007C0001F0
F800007C0003E0
F800007C0007C0
F800007C000F80
F800007C001F00
F800007C003F00
F80000FC007E00
F80000F8007C00
F80000F800F800
F80000F801F000
F80001F003E000
F80001F007C000
F80003F00FC000
F80007E01F8000
F8000FC01F0000
F8007F803E0000
FFFFFF007FFFFF
FFFFFE007FFFFF
FFFFFC007FFFFF
FFFFE0007FFFFF
ENDCHAR
STARTCHAR 01C6
ENCODING 454
SWIDTH 1038 0
DWIDTH 54 0
BBX 50 40 2 -1
BITMAP
00000000E00E00
00000F80701C00
00000F80783C00
00000F803C7800
00000F801EF000
00000F801EF000
00000F800FE000
00000F800FE000
00000F80000000
00000F80000000
00000F80000000
00FE0F80000000
03FF8F87FFFF80
07FFEF87FFFF80
0FFFFF87FFFF80
1FC1FF87FFFF80
3F007F80000F80
3E003F80001F00
7E003F80003E00
7C001F80007C00
7C001F8000FC00
F8000F8001F800
F8000F8001F000
F8000F8003E000
F8000F8007C000
F8000F800F8000
F8000F801F0000
F8000F803F0000
F8000F807E0000
F8000F807C0000
7C001F80F80000
7C001F81F00000
7E003F83E00000
3E003F87E00000
3F007F8FC00000
1FC1FF8FFFFFC0
0FFFF78FFFFFC0
07FFE78FFFFFC0
03FFC78FFFFFC0
00FF0000000000
ENDCHAR
STARTCHAR 01C7
ENCODING 455
SWIDTH 1057 0
DWIDTH 55 0
BBX 46 39 4 -1
BITMAP
F8000000007C
F8000000007C
F8000000007C
F8000000007C
F8000000007C
F8000000007C
F8000000007C
F8000000007C
F8000000007C
F8000000007C
F8000000007C
F8000000007C
F8000000007C
F8000000007C
F8000000007C
F8000000007C
F8000000007C
F8000000007C
F8000000007C
F8000000007C
F8000000007C
F8000000007C
F8000000007C
F8000000007C
F8000000007C
F8000000007C
F800007C007C
F800007C007C
F800007C007C
F800007C007C
F800007E007C
F800003E007C
F800003E00FC
F800003F00F8
FFFFFE1F83F8
FFFFFE1FFFF0
FFFFFE0FFFE0
FFFFFE03FFC0
00000000FE00
ENDCHAR
STARTCHAR 01C8
ENCODING 456
SWIDTH 769 0
DWIDTH 40 0
BBX 35 49 4 -11
BITMAP
F8000003E0
F8000003E0
F8000003E0
F8000003E0
F8000003E0
F800000000
F800000000
F800000000
F800000000
F800000000
F800000000
F8000003E0
F8000003E0
F8000003E0
F8000003E0
F8000003E0
F8000003E0
F8000003E0
F8000003E0
F8000003E0
F8000003E0
F8000003E0
F8000003E0
F8000003E0
F8000003E0
F8000003E0
F8000003E0
F8000003E0
F8000003E0
F8000003E0
F8000003E0
F8000003E0
F8000003E0
F8000003E0
FFFFFE03E0
FFFFFE03E0
FFFFFE03E0
FFFFFE03E0
00000003E0
00000003E0
00000003E0
00000003E0
00000003E0
00000003E0
00000007E0
0000007FE0
0000007FC0
0000007F80
0000007E00
ENDCHAR
STARTCHAR 01C9
ENCODING 457
SWIDTH 423 0
DWIDTH 22 0
BBX 18 49 3 -11
BITMAP
F80FC0
F80FC0
F80FC0
F80FC0
F80FC0
F80000
F80000
F80000
F80000
F80000
F80000
F80FC0
F80FC0
F80FC0
F80FC0
F80FC0
F80FC0
F80FC0
F80FC0
F80FC0
F80FC0
F80FC0
F80FC0
F80FC0
F80FC0
F80FC0
F80FC0
F80FC0
F80FC0
F80FC0
F80FC0
F80FC0
F80FC0
F80FC0
F80FC0
F80FC0
F80FC0
F80FC0
000FC0
000FC0
000FC0
000FC0
000FC0
000FC0
001F80
00FF80
00FF80
00FF00
00F800
ENDCHAR
STARTCHAR 01CA
ENCODING 458
SWIDTH 1211 0
DWIDTH 63 0
BBX 55 39 4 -1
BITMAP
FC00007C00003E
FE00007C00003E
FE00007C00003E
FF00007C00003E
FF00007C00003E
FF80007C00003E
FFC0007C00003E
FFC0007C00003E
FBE0007C00003E
FBF0007C00003E
F9F0007C00003E
F8F8007C00003E
F8F8007C00003E
F87C007C00003E
F83E007C00003E
F83E007C00003E
F81F007C00003E
F81F807C00003E
F80F807C00003E
F807C07C00003E
F807C07C00003E
F803E07C00003E
F801F07C00003E
F801F07C00003E
F800F87C00003E
F800FC7C00003E
F8007C7C3E003E
F8003E7C3E003E
F8003E7C3E003E
F8001F7C3E003E
F8001FFC3E007E
F8000FFC3E007C
F80007FC3F007C
F80007FC1F00FC
F80003FC1FC1F8
F80001FC0FFFF8
F80001FC07FFF0
F80000FC03FFC0
0000000000FF00
ENDCHAR
STARTCHAR 01CB
ENCODING 459
SWIDTH 923 0
DWIDTH 48 0
BBX 43 49 4 -11
BITMAP
FC00007C07E0
FE00007C07E0
FE00007C07E0
FF00007C07E0
FF00007C07E0
FF80007C0000
FFC0007C0000
FFC0007C0000
FBE0007C0000
FBF0007C0000
F9F0007C0000
F8F8007C07E0
F8F8007C07E0
F87C007C07E0
F83E007C07E0
F83E007C07E0
F81F007C07E0
F81F807C07E0
F80F807C07E0
F807C07C07E0
F807C07C07E0
F803E07C07E0
F801F07C07E0
F801F07C07E0
F800F87C07E0
F800FC7C07E0
F8007C7C07E0
F8003E7C07E0
F8003E7C07E0
F8001F7C07E0
F8001FFC07E0
F8000FFC07E0
F80007FC07E0
F80007FC07E0
F80003FC07E0
F80001FC07E0
F80001FC07E0
F80000FC07E0
0000000007E0
0000000007E0
0000000007E0
0000000007E0
0000000007E0
0000000007E0
000000000FC0
000000007FC0
000000007FC0
000000007F80
000000007C00
ENDCHAR
STARTCHAR 01CC
ENCODING 460
SWIDTH 750 0
DWIDTH 39 0
BBX 35 49 3 -11
BITMAP
00000003E0
00000003E0
00000003E0
00000003E0
00000003E0
0000000000
0000000000
0000000000
0000000000
0000000000
003F800000
F0FFE003E0
F3FFF003E0
F7FFF803E0
F783F803E0
FF00FC03E0
FE00FC03E0
FC007C03E0
FC007C03E0
F8007C03E0
F8007C03E0
F8007C03E0
F8007C03E0
F8007C03E0
F8007C03E0
F8007C03E0
F8007C03E0
F8007C03E0
F8007C03E0
F8007C03E0
F8007C03E0
F8007C03E0
F8007C03E0
F8007C03E0
F8007C03E0
F8007C03E0
F8007C03E0
F8007C03E0
00000003E0
00000003E0
00000003E0
00000003E0
00000003E0
00000003E0
00000007E0
0000007FE0
0000007FC0
0000007F80
0000007E00
ENDCHAR
STARTCHAR 01CD
ENCODING 461
SWIDTH 673 0
DWIDTH 35 0
BBX 33 47 1 0
BITMAP
00780F0000
003C1E0000
001E3C0000
000FFC0000
000FF80000
0007F00000
0003E00000
0000000000
0000000000
0007F00000
0007F00000
000FF00000
000FF80000
000FF80000
001FF80000
001F7C0000
001F7C0000
003E7E0000
003E3E0000
003E3E0000
007C3F0000
007C1F0000
00FC1F0000
00F81F8000
00F80F8000
01F00F8000
01F00FC000
01F007C000
03E007C000
03E007E000
03E003E000
07C003E000
07FFFFF000
07FFFFF000
0FFFFFF000
0FFFFFF800
1F8000F800
1F0000FC00
1F0000FC00
3F00007C00
3E00007E00
3E00007E00
7E00003E00
7C00003F00
7C00001F00
F800001F00
F800001F80
ENDCHAR
STARTCHAR 01CE
ENCODING 462
SWIDTH 538 0
DWIDTH 28 0
BBX 26 39 2 0
BITMAP
0780E000
03C1E000
01E3C000
01E78000
00F78000
007F0000
007F0000
003E0000
00000000
00000000
01FF8000
07FFF000
1FFFF800
3FFFFC00
3F81FC00
7E007E00
7C003E00
7C003E00
00003E00
00003E00
00003E00
0000FE00
001FFE00
03FFFE00
1FFFFE00
3FFE3E00
7F803E00
7E003E00
FC003E00
F8003E00
F8003E00
F8007E00
F800FE00
FC01FE00
7F0FFF00
7FFFBFC0
3FFF1FC0
1FFE1FC0
03F007C0
ENDCHAR
STARTCHAR 01CF
ENCODING 463
SWIDTH 307 0
DWIDTH 16 0
BBX 15 47 0 0
BITMAP
F01E
783C
3C78
1FF8
1FF0
0FE0
07C0
0000
0000
07C0
07C0
07C0
07C0
07C0
07C0
07C0
07C0
07C0
07C0
07C0
07C0
07C0
07C0
07C0
07C0
07C0
07C0
07C0
07C0
07C0
07C0
07C0
07C0
07C0
07C0
07C0
07C0
07C0
07C0
07C0
07C0
07C0
07C0
07C0
07C0
07C0
07C0
ENDCHAR
STARTCHAR 01D0
ENCODING 464
SWIDTH 269 0
DWIDTH 14 0
BBX 14 38 0 1
BITMAP
E03C
7078
7878
3CF0
3FE0
1FE0
0FC0
0F80
0000
0000
0000
07C0
07C0
07C0
07C0
07C0
07C0
07C0
07C0
07C0
07C0
07C0
07C0
07C0
07C0
07C0
07C0
07C0
07C0
07C0
07C0
07C0
07C0
07C0
07C0
07C0
07C0
07C0
ENDCHAR
STARTCHAR 01D1
ENCODING 465
SWIDTH 788 0
DWIDTH 41 0
BBX 37 48 2 -1
BITMAP
001E03C000
000F078000
00078F0000
0003FF0000
0003FE0000
0001FC0000
0000F80000
0000000000
0003FE0000
001FFFC000
007FFFF000
01FFFFFC00
03FE03FE00
07F0007F00
0FE0003F80
1FC0001F80
1F80000FC0
3F000007E0
3E000003E0
7E000003F0
7C000001F0
7C000001F0
7C000001F0
F8000000F8
F8000000F8
F8000000F8
F8000000F8
F8000000F8
F8000000F8
F8000000F8
F8000000F8
F8000000F8
F8000000F8
7C000001F0
7C000001F0
7C000001F0
7E000003F0
3E000003E0
3F000007E0
1F80000FC0
1FC0001F80
0FE0003F80
07F0007F00
03FE03FE00
01FFFFFC00
007FFFF000
001FFFC000
0003FE0000
ENDCHAR
STARTCHAR 01D2
ENCODING 466
SWIDTH 538 0
DWIDTH 28 0
BBX 25 39 2 0
BITMAP
0780E000
03C1E000
01C3C000
01E78000
00FF8000
00FF0000
007E0000
003E0000
00000000
00000000
007F0000
03FFE000
07FFF000
0FFFF800
1FC1FC00
3F007E00
3E003E00
7E003F00
7C001F00
7C001F00
F8000F80
F8000F80
F8000F80
F8000F80
F8000F80
F8000F80
F8000F80
F8000F80
F8000F80
7C001F00
7C001F00
7E003F00
3E003E00
3F007E00
1FC1FC00
0FFFF800
07FFF000
03FFE000
007F0000
ENDCHAR
STARTCHAR 01D3
ENCODING 467
SWIDTH 711 0
DWIDTH 37 0
BBX 29 48 4 -1
BITMAP
00F01E00
00783C00
003C7800
001FF800
001FF000
000FE000
0007C000
00000000
00000000
F80000F8
F80000F8
F80000F8
F80000F8
F80000F8
F80000F8
F80000F8
F80000F8
F80000F8
F80000F8
F80000F8
F80000F8
F80000F8
F80000F8
F80000F8
F80000F8
F80000F8
F80000F8
F80000F8
F80000F8
F80000F8
F80000F8
F80000F8
F80000F8
F80000F8
F80000F8
F80000F8
F80000F8
F80000F8
F80000F8
7C0001F0
7C0001F0
7E0003F0
3F0007E0
1FE03FC0
0FFFFF80
07FFFF00
01FFFC00
003FE000
ENDCHAR
STARTCHAR 01D4
ENCODING 468
SWIDTH 538 0
DWIDTH 28 0
BBX 22 39 3 0
BITMAP
0F01C0
0783C0
038780
03CF00
01FF00
01FE00
00FC00
007C00
000000
000000
000000
F8007C
F8007C
F8007C
F8007C
F8007C
F8007C
F8007C
F8007C
F8007C
F8007C
F8007C
F8007C
F8007C
F8007C
F8007C
F8007C
F8007C
F8007C
F8007C
F800FC
F800FC
FC01FC
FC03FC
7F07FC
7FFFBC
3FFF3C
1FFE3C
07F000
ENDCHAR
STARTCHAR 01D5
ENCODING 469
SWIDTH 711 0
DWIDTH 37 0
BBX 29 51 4 -1
BITMAP
01FFF800
01FFF800
01FFF800
01FFF800
00000000
01F07C00
01F07C00
01F07C00
01F07C00
01F07C00
00000000
00000000
F80000F8
F80000F8
F80000F8
F80000F8
F80000F8
F80000F8
F80000F8
F80000F8
F80000F8
F80000F8
F80000F8
F80000F8
F80000F8
F80000F8
F80000F8
F80000F8
F80000F8
F80000F8
F80000F8
F80000F8
F80000F8
F80000F8
F80000F8
F80000F8
F80000F8
F80000F8
F80000F8
F80000F8
F80000F8
F80000F8
7C0001F0
7C0001F0
7E0003F0
3F0007E0
1FE03FC0
0FFFFF80
07FFFF00
01FFFC00
003FE000
ENDCHAR
STARTCHAR 01D6
ENCODING 470
SWIDTH 538 0
DWIDTH 28 0
BBX 22 43 3 0
BITMAP
0FFFC0
0FFFC0
0FFFC0
0FFFC0
000000
000000
0F83E0
0F83E0
0F83E0
0F83E0
0F83E0
000000
000000
000000
000000
F8007C
F8007C
F8007C
F8007C
F8007C
F8007C
F8007C
F8007C
F8007C
F8007C
F8007C
F8007C
F8007C
F8007C
F8007C
F8007C
F8007C
F8007C
F8007C
F800FC
F800FC
FC01FC
FC03FC
7F07FC
7FFFBC
3FFF3C
1FFE3C
07F000
ENDCHAR
STARTCHAR 01D7
ENCODING 471
SWIDTH 711 0
DWIDTH 37 0
BBX 29 53 4 -1
BITMAP
0000FC00
0001F800
0001F000
0003E000
00078000
000F0000
001E0000
00000000
01F87E00
01F87E00
01F87E00
01F87E00
01F87E00
00000000
F80000F8
F80000F8
F80000F8
F80000F8
F80000F8
F80000F8
F80000F8
F80000F8
F80000F8
F80000F8
F80000F8
F80000F8
F80000F8
F80000F8
F80000F8
F80000F8
F80000F8
F80000F8
F80000F8
F80000F8
F80000F8
F80000F8
F80000F8
F80000F8
F80000F8
F80000F8
F80000F8
F80000F8
F80000F8
F80000F8
7C0001F0
7C0001F0
7E0003F0
3F0007E0
1FE03FC0
0FFFFF80
07FFFF00
01FFFC00
003FE000
ENDCHAR
STARTCHAR 01D8
ENCODING 472
SWIDTH 538 0
DWIDTH 28 0
BBX 22 48 3 0
BITMAP
0003F0
0003E0
0007C0
000780
000F00
001E00
001C00
003800
000000
000000
000000
0F83E0
0F83E0
0F83E0
0F83E0
0F83E0
000000
000000
000000
000000
F8007C
F8007C
F8007C
F8007C
F8007C
F8007C
F8007C
F8007C
F8007C
F8007C
F8007C
F8007C
F8007C
F8007C
F8007C
F8007C
F8007C
F8007C
F8007C
F800FC
F800FC
FC01FC
FC03FC
7F07FC
7FFFBC
3FFF3C
1FFE3C
07F000
ENDCHAR
STARTCHAR 01D9
ENCODING 473
SWIDTH 711 0
DWIDTH 37 0
BBX 29 52 4 -1
BITMAP
01E03C00
00F07800
0078F000
003FF000
003FE000
001FC000
000F8000
00000000
01F87E00
01F87E00
01F87E00
01F87E00
01F87E00
F80000F8
F80000F8
F80000F8
F80000F8
F80000F8
F80000F8
F80000F8
F80000F8
F80000F8
F80000F8
F80000F8
F80000F8
F80000F8
F80000F8
F80000F8
F80000F8
F80000F8
F80000F8
F80000F8
F80000F8
F80000F8
F80000F8
F80000F8
F80000F8
F80000F8
F80000F8
F80000F8
F80000F8
F80000F8
F80000F8
7C0001F0
7C0001F0
7E0003F0
3F0007E0
1FE03FC0
0FFFFF80
07FFFF00
01FFFC00
003FE000
ENDCHAR
STARTCHAR 01DA
ENCODING 474
SWIDTH 538 0
DWIDTH 28 0
BBX 22 48 3 0
BITMAP
0F01C0
0783C0
038780
03CF00
01EF00
01FE00
00FE00
007C00
000000
000000
000000
0F83E0
0F83E0
0F83E0
0F83E0
0F83E0
000000
000000
000000
000000
F8007C
F8007C
F8007C
F8007C
F8007C
F8007C
F8007C
F8007C
F8007C
F8007C
F8007C
F8007C
F8007C
F8007C
F8007C
F8007C
F8007C
F8007C
F8007C
F800FC
F800FC
FC01FC
FC03FC
7F07FC
7FFFBC
3FFF3C
1FFE3C
07F000
ENDCHAR
STARTCHAR 01DB
ENCODING 475
SWIDTH 711 0
DWIDTH 37 0
BBX 29 52 4 -1
BITMAP
00FC0000
007E0000
003E0000
001F0000
00078000
0003C000
0001E000
01F87E00
01F87E00
01F87E00
01F87E00
01F87E00
00000000
F80000F8
F80000F8
F80000F8
F80000F8
F80000F8
F80000F8
F80000F8
F80000F8
F80000F8
F80000F8
F80000F8
F80000F8
F80000F8
F80000F8
F80000F8
F80000F8
F80000F8
F80000F8
F80000F8
F80000F8
F80000F8
F80000F8
F80000F8
F80000F8
F80000F8
F80000F8
F80000F8
F80000F8
F80000F8
F80000F8
7C0001F0
7C0001F0
7E0003F0
3F0007E0
1FE03FC0
0FFFFF80
07FFFF00
01FFFC00
003FE000
ENDCHAR
STARTCHAR 01DC
ENCODING 476
SWIDTH 538 0
DWIDTH 28 0
BBX 22 48 3 0
BITMAP
1F0000
0F8000
07C000
03C000
01E000
00E000
00F000
007800
000000
000000
000000
0F83E0
0F83E0
0F83E0
0F83E0
0F83E0
000000
000000
000000
000000
F8007C
F8007C
F8007C
F8007C
F8007C
F8007C
F8007C
F8007C
F8007C
F8007C
F8007C
F8007C
F8007C
F8007C
F8007C
F8007C
F8007C
F8007C
F8007C
F800FC
F800FC
FC01FC
FC03FC
7F07FC
7FFFBC
3FFF3C
1FFE3C
07F000
ENDCHAR
STARTCHAR 01DD
ENCODING 477
SWIDTH 538 0
DWIDTH 28 0
BBX 25 29 1 -2
BITMAP
007E0000
03FFC000
0FFFF000
1FFFF800
3FC3FC00
3F00FC00
7C007E00
7C003E00
F8001F00
00001F00
00001F00
00000F80
00000F80
FFFFFF80
FFFFFF80
FFFFFF80
FFFFFF80
F8000F80
F8001F00
F8001F00
78001F00
7C003F00
7C003E00
3E007E00
3F81FC00
1FFFF800
0FFFF000
07FFE000
01FF0000
ENDCHAR
STARTCHAR 01DE
ENCODING 478
SWIDTH 673 0
DWIDTH 35 0
BBX 33 50 1 0
BITMAP
007FFE0000
007FFE0000
007FFE0000
007FFE0000
0000000000
007C1F0000
007C1F0000
007C1F0000
007C1F0000
007C1F0000
0000000000
0000000000
0007F00000
0007F00000
000FF00000
000FF80000
000FF80000
001FF80000
001F7C0000
001F7C0000
003E7E0000
003E3E0000
003E3E0000
007C3F0000
007C1F0000
00FC1F0000
00F81F8000
00F80F8000
01F00F8000
01F00FC000
01F007C000
03E007C000
03E007E000
03E003E000
07C003E000
07FFFFF000
07FFFFF000
0FFFFFF000
0FFFFFF800
1F8000F800
1F0000FC00
1F0000FC00
3F00007C00
3E00007E00
3E00007E00
7E00003E00
7C00003F00
7C00001F00
F800001F00
F800001F80
ENDCHAR
STARTCHAR 01DF
ENCODING 479
SWIDTH 538 0
DWIDTH 28 0
BBX 26 42 2 0
BITMAP
07FFE000
07FFE000
07FFE000
07FFE000
00000000
00000000
07C1F000
07C1F000
07C1F000
07C1F000
07C1F000
00000000
00000000
01FF8000
07FFF000
1FFFF800
3FFFFC00
3F81FC00
7E007E00
7C003E00
7C003E00
00003E00
00003E00
00003E00
0000FE00
001FFE00
03FFFE00
1FFFFE00
3FFE3E00
7F803E00
7E003E00
FC003E00
F8003E00
F8003E00
F8007E00
F800FE00
FC01FE00
7F0FFF00
7FFFBFC0
3FFF1FC0
1FFE1FC0
03F007C0
ENDCHAR
STARTCHAR 01E0
ENCODING 480
SWIDTH 673 0
DWIDTH 35 0
BBX 33 49 1 1
BITMAP
007FFE0000
007FFE0000
007FFE0000
007FFE0000
0000000000
0003E00000
0003E00000
0003E00000
0003E00000
0003E00000
0000000000
0007F00000
0007F00000
000FF00000
000FF80000
000FF80000
001FF80000
001F7C0000
001F7C0000
003E7E0000
003E3E0000
003E3E0000
007C3F0000
007C1F0000
00FC1F0000
00F81F8000
00F80F8000
01F00F8000
01F00FC000
01F007C000
03E007C000
03E007E000
03E003E000
07C003E000
07FFFFF000
07FFFFF000
0FFFFFF000
0FFFFFF800
1F8000F800
1F0000FC00
1F0000FC00
3F00007C00
3E00007E00
3E00007E00
7E00003E00
7C00003F00
7C00001F00
F800001F00
F800001F80
ENDCHAR
STARTCHAR 01E1
ENCODING 481
SWIDTH 538 0
DWIDTH 28 0
BBX 26 42 2 0
BITMAP
07FFE000
07FFE000
07FFE000
07FFE000
00000000
00000000
003E0000
003E0000
003E0000
003E0000
003E0000
00000000
00000000
01FF8000
07FFF000
1FFFF800
3FFFFC00
3F81FC00
7E007E00
7C003E00
7C003E00
00003E00
00003E00
00003E00
0000FE00
001FFE00
03FFFE00
1FFFFE00
3FFE3E00
7F803E00
7E003E00
FC003E00
F8003E00
F8003E00
F8007E00
F800FE00
FC01FE00
7F0FFF00
7FFFBFC0
3FFF1FC0
1FFE1FC0
03F007C0
ENDCHAR
STARTCHAR 01E2
ENCODING 482
SWIDTH 980 0
DWIDTH 51 0
BBX 49 45 1 0
BITMAP
000000FFFC0000
000000FFFC0000
000000FFFC0000
000000FFFC0000
00000000000000
00000000000000
00000000000000
0000FFFFFFFF00
0001FFFFFFFF00
0001FFFFFFFF00
0003FFFFFFFF00
0003E0F8000000
0003C0F8000000
0007C0F8000000
000780F8000000
000F80F8000000
000F80F8000000
001F00F8000000
001F00F8000000
001F00F8000000
003E00F8000000
003E00F8000000
007C00F8000000
007C00F8000000
007C00FFFFFE00
00F800FFFFFE00
00F800FFFFFE00
01F800FFFFFE00
01F000F8000000
01F000F8000000
03FFFFF8000000
03FFFFF8000000
07FFFFF8000000
07FFFFF8000000
07C000F8000000
0F8000F8000000
0F8000F8000000
1F8000F8000000
1F0000F8000000
3F0000F8000000
3E0000F8000000
3E0000FFFFFF80
7E0000FFFFFF80
7C0000FFFFFF80
FC0000FFFFFF80
ENDCHAR
STARTCHAR 01E3
ENCODING 483
SWIDTH 865 0
DWIDTH 45 0
BBX 42 37 2 -1
BITMAP
0007FFE00000
0007FFE00000
0007FFE00000
0007FFE00000
000000000000
000000000000
000000000000
000000000000
01FF003F8000
07FFC0FFF000
1FFFF1FFF800
3FFFFBFFFC00
3F81FFE0FE00
7E007F803F00
7C003F001F80
7C003E000F80
00003E000F80
00003E000780
00003C0007C0
0000FC0007C0
007FFFFFFFC0
07FFFFFFFFC0
1FFFFFFFFFC0
3FFE3FFFFFC0
7FC03C000000
7E003C000000
FC003C000000
F8003C000000
F8003E000780
F8007E000F80
F800FF001F80
FC01FF803F00
7E07E7F0FF00
7FFFC7FFFE00
3FFF03FFFC00
1FFE00FFF000
07F0003FC000
ENDCHAR
STARTCHAR 01E4
ENCODING 484
SWIDTH 769 0
DWIDTH 40 0
BBX 37 40 2 -1
BITMAP
0003FE0000
001FFFC000
007FFFF000
01FFFFF800
03FE03FC00
07F000FE00
0FE0003F00
1F80001F00
1F80000F80
3F00000F80
3E000007C0
3E000007C0
7C00000000
7C00000000
7C00000000
F800000000
F800000000
F800000000
F800000000
F8000FFFE0
F8000FFFE0
F8000FFFE0
F8000FFFE0
F8000003E0
F8000003E0
FC000003E0
7C000FFFF8
7C000FFFF8
7E000FFFF8
3E000007E0
3F00000FE0
1F00000FE0
1F80001FE0
0FC0003FE0
07F000FFE0
03FE03F9E0
01FFFFE1E0
00FFFFC1E0
003FFF00E0
0007F80000
ENDCHAR
STARTCHAR 01E5
ENCODING 485
SWIDTH 557 0
DWIDTH 29 0
BBX 25 39 2 -11
BITMAP
00FE0000
03FF8F00
07FFCF00
0FFFEF00
1FC1FF00
3F00FF00
3E007F00
7E003F00
7C003F00
7C003F00
F8001F00
F8001F00
F8001F00
F8001F00
F8001F00
F8001F00
F8001F00
F8001F00
F8001F00
7C003F00
7C003F00
7C003F00
3E007F00
3F00FF00
1FC1FF00
0FFFDF00
07FF9F00
03FF1F00
00FC1F00
00001F00
00001F00
7C07FF80
7C07FF80
3E07FF80
3F80FC00
1FFFFC00
0FFFF800
07FFE000
00FF0000
ENDCHAR
STARTCHAR 01E6
ENCODING 486
SWIDTH 769 0
DWIDTH 40 0
BBX 35 48 2 -1
BITMAP
003C078000
001E0F0000
000F1E0000
0007FE0000
0007FC0000
0003F80000
0001F00000
0000000000
0003FE0000
001FFFC000
007FFFF000
01FFFFF800
03FE03FC00
07F000FE00
0FE0003F00
1F80001F00
1F80000F80
3F00000F80
3E000007C0
3E000007C0
7C00000000
7C00000000
7C00000000
F800000000
F800000000
F800000000
F800000000
F8000FFFE0
F8000FFFE0
F8000FFFE0
F8000FFFE0
F8000003E0
F8000003E0
FC000003E0
7C000003E0
7C000003E0
7E000007E0
3E000007E0
3F00000FE0
1F00000FE0
1F80001FE0
0FC0003FE0
07F000FFE0
03FE03F9E0
01FFFFF1E0
00FFFFC1E0
003FFF00E0
0007F80000
ENDCHAR
STARTCHAR 01E7
ENCODING 487
SWIDTH 557 0
DWIDTH 29 0
BBX 24 49 2 -10
BITMAP
0F01C0
0783C0
078780
03CF00
01FF00
01FE00
00FC00
007C00
000000
000000
00FE00
03FF1F
07FFDF
0FFFFF
1FC1FF
3F00FF
3E007F
7E003F
7C003F
7C003F
F8001F
F8001F
F8001F
F8001F
F8001F
F8001F
F8001F
F8001F
F8001F
7C003F
7C003F
7C003F
3E007F
3F00FF
1FC1FF
0FFFDF
07FF9F
03FF1F
00FC1F
00001F
00003E
7C003E
7C003E
3E007C
3F81FC
1FFFF8
0FFFF0
07FFE0
00FF00
ENDCHAR
STARTCHAR 01E8
ENCODING 488
SWIDTH 673 0
DWIDTH 35 0
BBX 30 47 4 0
BITMAP
00F01E00
00783C00
003C7800
001FF800
001FF000
000FE000
0007C000
00000000
00000000
F80001FC
F80003F8
F80007F0
F8000FE0
F8001FC0
F8003F80
F8007F00
F800FE00
F800FC00
F801F800
F803F000
F807E000
F80FC000
F81F8000
F83F0000
F87E0000
F8FE0000
F9FF0000
FBFF8000
FFCF8000
FF87C000
FF07E000
FE03F000
FC01F000
F801F800
F800FC00
F8007C00
F8007E00
F8003F00
F8001F00
F8001F80
F8000FC0
F80007C0
F80007E0
F80003F0
F80001F8
F80000F8
F80000FC
ENDCHAR
STARTCHAR 01E9
ENCODING 489
SWIDTH 519 0
DWIDTH 27 0
BBX 23 47 3 1
BITMAP
0E03C0
0F0380
078780
03CF00
03FE00
01FE00
00FC00
00F800
000000
F80000
F80000
F80000
F80000
F80000
F80000
F80000
F80000
F80000
F80000
F80000
F800FC
F801F8
F803F0
F807E0
F80FC0
F81F80
F83F00
F87E00
F8F800
F9F800
FBF800
FFFC00
FFFE00
FF3E00
FE1F00
FC1F80
F80F80
F80FC0
F807C0
F803E0
F803F0
F801F0
F800F8
F800FC
F8007C
F8007E
F8003E
ENDCHAR
STARTCHAR 01EA
ENCODING 490
SWIDTH 788 0
DWIDTH 41 0
BBX 37 50 2 -11
BITMAP
0003FE0000
001FFFE000
007FFFF000
01FFFFFC00
03FE01FE00
07F0007F00
0FE0001F80
0FC0000FC0
1F800007C0
3F000007E0
3E000003E0
7E000003F0
7C000001F0
7C000001F0
7C000001F0
F8000000F8
F8000000F8
F8000000F8
F8000000F8
F8000000F8
F8000000F8
F8000000F8
F8000000F8
F8000000F8
F8000000F8
7C000001F0
7C000001F0
7C000001F0
3E000003F0
3F000003E0
3F000007E0
1F80000FC0
0FC0001FC0
0FE0003F80
07F800FF00
03FF8FFE00
00FFFFFC00
007FFFF000
001FFFC000
0001FE0000
0001E00000
0003C00000
0007800000
000F000000
000F000000
000F000000
000F000000
0007800000
0003FE0000
0000FE0000
ENDCHAR
STARTCHAR 01EB
ENCODING 491
SWIDTH 538 0
DWIDTH 28 0
BBX 25 39 2 -11
BITMAP
00FF0000
03FFE000
07FFF000
0FFFF800
1FC1FC00
3F007E00
3E003E00
7C003F00
7C001F00
7C001F00
F8000F80
F8000F80
F8000F80
F8000F80
F8000F80
F8000F80
F8000F80
F8000F80
F8000F80
7C001F00
7C001F00
7C003F00
7E003E00
3F007E00
1F81FC00
1FFFF800
0FFFF000
03FFE000
00FF0000
00780000
01E00000
03C00000
07800000
07800000
07800000
07800000
03C00000
01FF0000
007F0000
ENDCHAR
STARTCHAR 01EC
ENCODING 492
SWIDTH 788 0
DWIDTH 41 0
BBX 37 56 2 -11
BITMAP
001FFF8000
001FFF8000
001FFF8000
001FFF8000
0000000000
0000000000
0003FE0000
001FFFE000
007FFFF000
01FFFFFC00
03FE01FE00
07F0007F00
0FE0001F80
0FC0000FC0
1F800007C0
3F000007E0
3E000003E0
7E000003F0
7C000001F0
7C000001F0
7C000001F0
F8000000F8
F8000000F8
F8000000F8
F8000000F8
F8000000F8
F8000000F8
F8000000F8
F8000000F8
F8000000F8
F8000000F8
7C000001F0
7C000001F0
7C000001F0
3E000003F0
3F000003E0
3F000007E0
1F80000FC0
0FC0001FC0
0FE0003F80
07F800FF00
03FF8FFE00
00FFFFFC00
007FFFF000
001FFFC000
0001FE0000
0001E00000
0003C00000
0007800000
000F000000
000F000000
000F000000
000F000000
0007800000
0003FE0000
0000FE0000
ENDCHAR
STARTCHAR 01ED
ENCODING 493
SWIDTH 538 0
DWIDTH 28 0
BBX 25 44 2 -10
BITMAP
07FFE000
07FFE000
07FFE000
07FFE000
00000000
00FF0000
03FFE000
07FFF000
0FFFF800
1FC1FC00
3F007E00
3E003E00
7C003F00
7C001F00
7C001F00
F8000F80
F8000F80
F8000F80
F8000F80
F8000F80
F8000F80
F8000F80
F8000F80
F8000F80
7C001F00
7C001F00
7C003F00
7E003E00
3F007E00
1F81FC00
1FFFF800
0FFFF000
03FFE000
00FF0000
00780000
01E00000
03C00000
07800000
07800000
07800000
07800000
03C00000
01FF0000
007F0000
ENDCHAR
STARTCHAR 01EE
ENCODING 494
SWIDTH 615 0
DWIDTH 32 0
BBX 29 48 2 -1
BITMAP
01E03C00
00F07800
0078F000
003FF000
003FE000
001FC000
000F8000
00000000
00000000
3FFFFFF8
3FFFFFF8
3FFFFFF8
3FFFFFF8
000001F8
000003F0
000007E0
00000FC0
00001F80
00001F80
00003F00
00007E00
0000FC00
0001FC00
0003F800
000FF000
000FFC00
000FFF00
000FFFC0
00007FE0
00000FE0
000007F0
000003F0
000001F8
000000F8
000000F8
000000F8
000000F8
F80000F8
F80000F8
F80001F8
7C0001F0
7E0003F0
3F000FE0
3FC03FC0
1FFFFF80
0FFFFF00
03FFFC00
007FE000
ENDCHAR
STARTCHAR 01EF
ENCODING 495
SWIDTH 519 0
DWIDTH 27 0
BBX 25 45 1 -6
BITMAP
0780E000
03C1E000
01E3C000
01E7C000
00F78000
007F0000
007F0000
003E0000
00000000
00000000
00000000
3FFFFE00
3FFFFE00
3FFFFE00
3FFFFE00
00007C00
0000F800
0001F800
0001F000
0003E000
0007C000
00078000
000F0000
001E0000
001FC000
001FF800
001FFC00
0003FE00
00003F00
00001F00
00001F80
00000F80
00000F80
00000F80
F8000F80
F8000F80
F8000F80
7C001F00
7C001F00
7E003F00
3F80FE00
1FFFFC00
0FFFF800
07FFE000
00FF8000
ENDCHAR
STARTCHAR 01F0
ENCODING 496
SWIDTH 230 0
DWIDTH 12 0
BBX 15 49 -2 -11
BITMAP
F00E
781E
383C
3C78
1E78
0FF0
0FE0
07E0
0000
0000
0000
03E0
03E0
03E0
03E0
03E0
03E0
03E0
03E0
03E0
03E0
03E0
03E0
03E0
03E0
03E0
03E0
03E0
03E0
03E0
03E0
03E0
03E0
03E0
03E0
03E0
03E0
03E0
03E0
03E0
03E0
03E0
03E0
03E0
07E0
7FE0
7FC0
7F80
7E00
ENDCHAR
STARTCHAR 01F1
ENCODING 497
SWIDTH 1288 0
DWIDTH 67 0
BBX 62 38 4 0
BITMAP
FFFFE0003FFFFFFC
FFFFFC003FFFFFFC
FFFFFE003FFFFFFC
FFFFFF003FFFFFFC
F8007F80000001F8
F8000FC0000001F8
F80007E0000003F0
F80003F0000007E0
F80001F000000FC0
F80001F000000FC0
F80000F800001F80
F80000F800003F00
F80000F800007E00
F80000FC00007E00
F800007C0000FC00
F800007C0001F800
F800007C0003F000
F800007C0003F000
F800007C0007E000
F800007C000FC000
F800007C001F8000
F800007C001F8000
F800007C003F0000
F800007C007E0000
F80000FC00FC0000
F80000F801FC0000
F80000F801F80000
F80000F803F00000
F80001F007E00000
F80001F00FE00000
F80003F00FC00000
F80007E01F800000
F8000FC03F000000
F8007F807F000000
FFFFFF007FFFFFFC
FFFFFE007FFFFFFC
FFFFFC007FFFFFFC
FFFFE0007FFFFFFC
ENDCHAR
STARTCHAR 01F2
ENCODING 498
SWIDTH 1173 0
DWIDTH 61 0
BBX 56 38 4 0
BITMAP
FFFFE000000000
FFFFFC00000000
FFFFFE00000000
FFFFFF00000000
F8007F80000000
F8000FC0000000
F80007E0000000
F80003F0000000
F80001F0000000
F80001F0000000
F80000F8000000
F80000F81FFFFE
F80000F81FFFFE
F80000FC1FFFFE
F800007C1FFFFE
F800007C00007E
F800007C00007C
F800007C0000F8
F800007C0001F0
F800007C0003E0
F800007C0007C0
F800007C000F80
F800007C001F80
F800007C003F00
F80000FC003E00
F80000F8007C00
F80000F800F800
F80000F801F000
F80001F003F000
F80001F007E000
F80003F00FC000
F80007E00F8000
F8000FC01F0000
F8007F803E0000
FFFFFF003FFFFF
FFFFFE003FFFFF
FFFFFC003FFFFF
FFFFE0003FFFFF
ENDCHAR
STARTCHAR 01F3
ENCODING 499
SWIDTH 1038 0
DWIDTH 54 0
BBX 51 39 2 -1
BITMAP
00000F80000000
00000F80000000
00000F80000000
00000F80000000
00000F80000000
00000F80000000
00000F80000000
00000F80000000
00000F80000000
00000F80000000
00FE0F80000000
03FF8F83FFFFC0
07FFEF83FFFFC0
0FFFFF83FFFFC0
1FC1FF83FFFFC0
3F007F80000FC0
3E003F80001F80
7E003F80001F00
7C001F80003E00
7C001F80007C00
F8000F8000F800
F8000F8001F000
F8000F8003F000
F8000F8007E000
F8000F8007C000
F8000F800F8000
F8000F801F0000
F8000F803E0000
F8000F807C0000
7C001F80FC0000
7C001F81F80000
7E003F81F00000
3E003F83E00000
3F007F87C00000
1FC1FF8FFFFFE0
0FFFF78FFFFFE0
07FFE78FFFFFE0
03FFC78FFFFFE0
00FF0000000000
ENDCHAR
STARTCHAR 01F4
ENCODING 500
SWIDTH 769 0
DWIDTH 40 0
BBX 35 48 2 -1
BITMAP
00000FC000
00001F8000
00001F0000
00003E0000
0000780000
0000F00000
0001E00000
0000000000
0003FE0000
001FFFC000
007FFFF000
01FFFFF800
03FE03FC00
07F000FE00
0FE0003F00
1F80001F00
1F80000F80
3F00000F80
3E000007C0
3E000007C0
7C00000000
7C00000000
7C00000000
F800000000
F800000000
F800000000
F800000000
F8000FFFE0
F8000FFFE0
F8000FFFE0
F8000FFFE0
F8000003E0
F8000003E0
FC000003E0
7C000003E0
7C000003E0
7E000007E0
3E000007E0
3F00000FE0
1F00000FE0
1F80001FE0
0FC0003FE0
07F000FFE0
03FE03F9E0
01FFFFF1E0
00FFFFC1E0
003FFF00E0
0007F80000
ENDCHAR
STARTCHAR 01F5
ENCODING 501
SWIDTH 557 0
DWIDTH 29 0
BBX 24 49 2 -10
BITMAP
0003F0
0003E0
0007C0
000F80
000F00
001E00
003C00
003800
000000
000000
00FE00
03FF1F
07FFDF
0FFFFF
1FC1FF
3F00FF
3E007F
7E003F
7C003F
7C003F
F8001F
F8001F
F8001F
F8001F
F8001F
F8001F
F8001F
F8001F
F8001F
7C003F
7C003F
7C003F
3E007F
3F00FF
1FC1FF
0FFFDF
07FF9F
03FF1F
00FC1F
00001F
00003E
7C003E
7C003E
3E007C
3F81FC
1FFFF8
0FFFF0
07FFE0
00FF00
ENDCHAR
STARTCHAR 01F7
ENCODING 503
SWIDTH 615 0
DWIDTH 32 0
BBX 26 38 4 0
BITMAP
000FF000
F87FFC00
F8FFFF00
FBFFFF80
FFF83F80
FFC00FC0
FF0007C0
FE0007C0
FC0007C0
F80007C0
F80007C0
F8000FC0
F8000F80
F8001F80
F8001F00
F8003F00
F8007E00
F800FE00
F801FC00
F803F800
F807F000
F80FE000
F81FC000
F87F8000
F8FF0000
FBFC0000
FFF80000
FFE00000
FFC00000
FF000000
FC000000
F8000000
F8000000
F8000000
F8000000
F8000000
F8000000
F8000000
ENDCHAR
STARTCHAR 01F8
ENCODING 504
SWIDTH 730 0
DWIDTH 38 0
BBX 30 47 4 0
BITMAP
003F0000
001F8000
000F8000
0007C000
0001E000
0000F000
00007800
00000000
00000000
FC00007C
FE00007C
FE00007C
FF00007C
FF00007C
FF80007C
FFC0007C
FFC0007C
FBE0007C
FBF0007C
F9F0007C
F8F8007C
F8F8007C
F87C007C
F83E007C
F83E007C
F81F007C
F81F807C
F80F807C
F807C07C
F807C07C
F803E07C
F801F07C
F801F07C
F800F87C
F800FC7C
F8007C7C
F8003E7C
F8003E7C
F8001F7C
F8001FFC
F8000FFC
F80007FC
F80007FC
F80003FC
F80001FC
F80001FC
F80000FC
ENDCHAR
STARTCHAR 01F9
ENCODING 505
SWIDTH 538 0
DWIDTH 28 0
BBX 22 39 3 0
BITMAP
0FC000
07E000
03E000
01F000
00F800
007800
003C00
001C00
000000
000000
000000
003F80
F0FFE0
F3FFF0
F7FFF8
F783F8
FF00FC
FE00FC
FC007C
FC007C
F8007C
F8007C
F8007C
F8007C
F8007C
F8007C
F8007C
F8007C
F8007C
F8007C
F8007C
F8007C
F8007C
F8007C
F8007C
F8007C
F8007C
F8007C
F8007C
ENDCHAR
STARTCHAR 01FA
ENCODING 506
SWIDTH 673 0
DWIDTH 35 0
BBX 33 47 1 0
BITMAP
0003F00000
0007E00000
0007C00000
000F800000
001E000000
003C000000
0078800000
0007F00000
000FF80000
001F780000
001C3C0000
001C1C0000
001C1C0000
001C3C0000
001FF80000
000FF00000
0007E00000
0000000000
0007F00000
0007F00000
000FF00000
000FF80000
001FF80000
001F7C0000
003E7C0000
003E3E0000
007E3E0000
007C1F0000
007C1F0000
00F81F8000
00F80F8000
01F00FC000
01F007C000
03E007E000
03E003E000
07C003E000
07FFFFF000
0FFFFFF000
0FFFFFF800
1F8000F800
1F0000FC00
3F00007C00
3E00007E00
7E00003E00
7C00003F00
FC00001F00
F800001F80
ENDCHAR
STARTCHAR 01FB
ENCODING 507
SWIDTH 538 0
DWIDTH 28 0
BBX 26 48 2 -1
BITMAP
000FC000
001F8000
001F0000
003E0000
00780000
00F00000
01E00000
003C0000
00FF0000
00FF8000
01E38000
01C3C000
01C1C000
01C3C000
01E38000
01FF8000
00FF0000
003E0000
00000000
01FF8000
07FFF000
1FFFF800
3FFFFC00
3F81FC00
7E007E00
7C003E00
7C003E00
00003E00
00003E00
00003E00
0000FE00
001FFE00
03FFFE00
1FFFFE00
3FFE3E00
7F803E00
7E003E00
FC003E00
F8003E00
F8003E00
F8007E00
F800FE00
FC01FE00
7F0FFF00
7FFFBFC0
3FFF1FC0
1FFE1FC0
03F007C0
ENDCHAR
STARTCHAR 01FC
ENCODING 508
SWIDTH 980 0
DWIDTH 51 0
BBX 49 47 1 0
BITMAP
00000000FC0000
00000001F80000
00000001F00000
00000003E00000
00000007800000
0000000F000000
0000001E000000
00000000000000
00000000000000
0000FFFFFFFF00
0001FFFFFFFF00
0001FFFFFFFF00
0003FFFFFFFF00
0003E0F8000000
0003C0F8000000
0007C0F8000000
000780F8000000
000F80F8000000
000F80F8000000
001F00F8000000
001F00F8000000
001F00F8000000
003E00F8000000
003E00F8000000
007C00F8000000
007C00F8000000
007C00FFFFFE00
00F800FFFFFE00
00F800FFFFFE00
01F800FFFFFE00
01F000F8000000
01F000F8000000
03FFFFF8000000
03FFFFF8000000
07FFFFF8000000
07FFFFF8000000
07C000F8000000
0F8000F8000000
0F8000F8000000
1F8000F8000000
1F0000F8000000
3F0000F8000000
3E0000F8000000
3E0000FFFFFF80
7E0000FFFFFF80
7C0000FFFFFF80
FC0000FFFFFF80
ENDCHAR
STARTCHAR 01FD
ENCODING 509
SWIDTH 865 0
DWIDTH 45 0
BBX 42 39 2 0
BITMAP
000000FC0000
000001F80000
000001F00000
000003E00000
000007C00000
000007800000
00000F000000
00000E000000
000000000000
000000000000
01FF003F8000
07FFC0FFF000
1FFFF1FFF800
3FFFFBFFFC00
3F81FFE0FE00
7E007F803F00
7C003F001F80
7C003E000F80
00003E000F80
00003E000780
00003C0007C0
0000FC0007C0
007FFFFFFFC0
07FFFFFFFFC0
1FFFFFFFFFC0
3FFE3FFFFFC0
7FC03C000000
7E003C000000
FC003C000000
F8003C000000
F8003E000780
F8007E000F80
F800FF001F80
FC01FF803F00
7E07E7F0FF00
7FFFC7FFFE00
3FFF03FFFC00
1FFE00FFF000
07F0003FC000
ENDCHAR
STARTCHAR 01FE
ENCODING 510
SWIDTH 788 0
DWIDTH 41 0
BBX 37 48 2 -1
BITMAP
00000FC000
00001F8000
00001F0000
00003E0000
0000780000
0000F00000
0001E00000
0000000000
0003FE0038
001FFFC078
007FFFF0F0
01FFFFFDE0
03FE03FFC0
07F0007F80
0FE0003F80
0FC0001FC0
1F80003FC0
3F00003FE0
3E000073E0
7E0000F3F0
7C0001E1F0
7C0003C1F0
7C000781F0
F8000F00F8
F8001E00F8
F8003C00F8
F8007800F8
F8007000F8
F800E000F8
F801E000F8
F803C000F8
F8078000F8
F80F0000F8
7C1E0001F0
7C3C0001F0
7C780001F0
7EF00003F0
3EE00003E0
3FC00007E0
1FC0000FC0
1FC0001F80
0FE0003F80
1FF0007F00
3FFE03FE00
79FFFFFC00
F07FFFF000
E01FFFC000
0003FE0000
ENDCHAR
STARTCHAR 01FF
ENCODING 511
SWIDTH 615 0
DWIDTH 32 0
BBX 27 39 1 -1
BITMAP
0000FC00
0000F800
0001F000
0003E000
0003C000
00078000
00070000
000E0000
00000000
00000000
007F8040
03FFE0E0
07FFF9C0
0FFFFF80
1FC0FF00
3F003F00
3E001F00
7E003F80
7C007F80
7C00EF80
F801C7C0
F80387C0
F80787C0
F80707C0
F80E07C0
F81C07C0
F83807C0
F87007C0
F8E007C0
7DC00F80
7F800F80
7F001F80
3E001F00
3F003F00
3FC0FE00
7FFFFC00
77FFF800
E1FFF000
C07F8000
ENDCHAR
STARTCHAR 0200
ENCODING 512
SWIDTH 673 0
DWIDTH 35 0
BBX 33 47 1 0
BITMAP
07F3F00000
03F1F00000
01F9F80000
00F8F80000
007C780000
003C3C0000
001E1C0000
0000000000
0000000000
0007F00000
0007F00000
000FF00000
000FF80000
000FF80000
001FF80000
001F7C0000
001F7C0000
003E7E0000
003E3E0000
003E3E0000
007C3F0000
007C1F0000
00FC1F0000
00F81F8000
00F80F8000
01F00F8000
01F00FC000
01F007C000
03E007C000
03E007E000
03E003E000
07C003E000
07FFFFF000
07FFFFF000
0FFFFFF000
0FFFFFF800
1F8000F800
1F0000FC00
1F0000FC00
3F00007C00
3E00007E00
3E00007E00
7E00003E00
7C00003F00
7C00001F00
F800001F00
F800001F80
ENDCHAR
STARTCHAR 0201
ENCODING 513
SWIDTH 538 0
DWIDTH 28 0
BBX 26 39 2 0
BITMAP
7E3F0000
3E1F0000
1F1F0000
0F0F8000
07878000
03878000
03C3C000
01C1C000
00000000
00000000
01FF8000
07FFF000
1FFFF800
3FFFFC00
3F81FC00
7E007E00
7C003E00
7C003E00
00003E00
00003E00
00003E00
0000FE00
001FFE00
03FFFE00
1FFFFE00
3FFE3E00
7F803E00
7E003E00
FC003E00
F8003E00
F8003E00
F8007E00
F800FE00
FC01FE00
7F0FFF00
7FFFBFC0
3FFF1FC0
1FFE1FC0
03F007C0
ENDCHAR
STARTCHAR 0202
ENCODING 514
SWIDTH 673 0
DWIDTH 35 0
BBX 33 47 1 0
BITMAP
0003E00000
000FF80000
001FFC0000
003FFE0000
007C1F0000
00780F0000
0070070000
0000000000
0000000000
0007F00000
0007F00000
000FF00000
000FF80000
000FF80000
001FF80000
001F7C0000
001F7C0000
003E7E0000
003E3E0000
003E3E0000
007C3F0000
007C1F0000
00FC1F0000
00F81F8000
00F80F8000
01F00F8000
01F00FC000
01F007C000
03E007C000
03E007E000
03E003E000
07C003E000
07FFFFF000
07FFFFF000
0FFFFFF000
0FFFFFF800
1F8000F800
1F0000FC00
1F0000FC00
3F00007C00
3E00007E00
3E00007E00
7E00003E00
7C00003F00
7C00001F00
F800001F00
F800001F80
ENDCHAR
STARTCHAR 0203
ENCODING 515
SWIDTH 538 0
DWIDTH 28 0
BBX 26 38 2 0
BITMAP
00FF0000
01FF8000
03FFC000
07FFE000
0781E000
0700E000
07007000
00000000
00000000
01FF8000
07FFF000
1FFFF800
3FFFFC00
3F81FC00
7E007E00
7C003E00
7C003E00
00003E00
00003E00
00003E00
0000FE00
001FFE00
03FFFE00
1FFFFE00
3FFE3E00
7F803E00
7E003E00
FC003E00
F8003E00
F8003E00
F8007E00
F800FE00
FC01FE00
7F0FFF00
7FFFBFC0
3FFF1FC0
1FFE1FC0
03F007C0
ENDCHAR
STARTCHAR 0204
ENCODING 516
SWIDTH 634 0
DWIDTH 33 0
BBX 27 47 4 0
BITMAP
1FCFC000
0FC7C000
07E7E000
03E3E000
01F1E000
00F0F000
00787000
00000000
00000000
FFFFFFC0
FFFFFFC0
FFFFFFC0
FFFFFFC0
F8000000
F8000000
F8000000
F8000000
F8000000
F8000000
F8000000
F8000000
F8000000
F8000000
F8000000
F8000000
F8000000
FFFFFF80
FFFFFF80
FFFFFF80
FFFFFF80
F8000000
F8000000
F8000000
F8000000
F8000000
F8000000
F8000000
F8000000
F8000000
F8000000
F8000000
F8000000
F8000000
FFFFFFE0
FFFFFFE0
FFFFFFE0
FFFFFFE0
ENDCHAR
STARTCHAR 0205
ENCODING 517
SWIDTH 538 0
DWIDTH 28 0
BBX 25 39 2 0
BITMAP
3F1F0000
1F1F8000
0F8F8000
07878000
07C7C000
03C3C000
01E1C000
00E1E000
00000000
00000000
007F8000
03FFE000
07FFF000
0FFFFC00
1FC1FC00
3F007E00
3E003E00
7C001F00
7C001F00
7C000F00
F8000F80
F8000F80
FFFFFF80
FFFFFF80
FFFFFF80
FFFFFF80
F8000000
F8000000
F8000000
7C000000
7C001F00
7C001F00
3E003F00
3F007E00
1FC0FE00
0FFFFC00
07FFF800
03FFE000
007F8000
ENDCHAR
STARTCHAR 0206
ENCODING 518
SWIDTH 634 0
DWIDTH 33 0
BBX 27 47 4 0
BITMAP
001F0000
007FE000
00FFF000
01FFF000
01F0F800
03C03800
03803800
00000000
00000000
FFFFFFC0
FFFFFFC0
FFFFFFC0
FFFFFFC0
F8000000
F8000000
F8000000
F8000000
F8000000
F8000000
F8000000
F8000000
F8000000
F8000000
F8000000
F8000000
F8000000
FFFFFF80
FFFFFF80
FFFFFF80
FFFFFF80
F8000000
F8000000
F8000000
F8000000
F8000000
F8000000
F8000000
F8000000
F8000000
F8000000
F8000000
F8000000
F8000000
FFFFFFE0
FFFFFFE0
FFFFFFE0
FFFFFFE0
ENDCHAR
STARTCHAR 0207
ENCODING 519
SWIDTH 538 0
DWIDTH 28 0
BBX 25 38 2 0
BITMAP
007F0000
01FFC000
03FFE000
03FFE000
03C0F000
07807000
07007000
00000000
00000000
007F8000
03FFE000
07FFF000
0FFFFC00
1FC1FC00
3F007E00
3E003E00
7C001F00
7C001F00
7C000F00
F8000F80
F8000F80
FFFFFF80
FFFFFF80
FFFFFF80
FFFFFF80
F8000000
F8000000
F8000000
7C000000
7C001F00
7C001F00
3E003F00
3F007E00
1FC0FE00
0FFFFC00
07FFF800
03FFE000
007F8000
ENDCHAR
STARTCHAR 0208
ENCODING 520
SWIDTH 307 0
DWIDTH 16 0
BBX 17 47 -2 0
BITMAP
FE7E00
7E3E00
3F3F00
1F1F00
0F8F00
078780
03C380
000000
000000
01F000
01F000
01F000
01F000
01F000
01F000
01F000
01F000
01F000
01F000
01F000
01F000
01F000
01F000
01F000
01F000
01F000
01F000
01F000
01F000
01F000
01F000
01F000
01F000
01F000
01F000
01F000
01F000
01F000
01F000
01F000
01F000
01F000
01F000
01F000
01F000
01F000
01F000
ENDCHAR
STARTCHAR 0209
ENCODING 521
SWIDTH 269 0
DWIDTH 14 0
BBX 17 38 -3 1
BITMAP
FC7C00
7C7E00
3E3E00
1E1E00
1F1F00
0F0F00
078700
038780
000000
000000
000000
00F800
00F800
00F800
00F800
00F800
00F800
00F800
00F800
00F800
00F800
00F800
00F800
00F800
00F800
00F800
00F800
00F800
00F800
00F800
00F800
00F800
00F800
00F800
00F800
00F800
00F800
00F800
ENDCHAR
STARTCHAR 020A
ENCODING 522
SWIDTH 307 0
DWIDTH 16 0
BBX 15 47 0 0
BITMAP
07E0
1FF8
3FFC
7FFC
7C3E
700E
F00E
0000
0000
07C0
07C0
07C0
07C0
07C0
07C0
07C0
07C0
07C0
07C0
07C0
07C0
07C0
07C0
07C0
07C0
07C0
07C0
07C0
07C0
07C0
07C0
07C0
07C0
07C0
07C0
07C0
07C0
07C0
07C0
07C0
07C0
07C0
07C0
07C0
07C0
07C0
07C0
ENDCHAR
STARTCHAR 020B
ENCODING 523
SWIDTH 269 0
DWIDTH 14 0
BBX 15 37 -1 1
BITMAP
0FF0
1FF8
3FFC
7FFE
781E
700E
E00E
0000
0000
0000
03E0
03E0
03E0
03E0
03E0
03E0
03E0
03E0
03E0
03E0
03E0
03E0
03E0
03E0
03E0
03E0
03E0
03E0
03E0
03E0
03E0
03E0
03E0
03E0
03E0
03E0
03E0
ENDCHAR
STARTCHAR 020C
ENCODING 524
SWIDTH 788 0
DWIDTH 41 0
BBX 37 48 2 -1
BITMAP
01FCFC0000
00FC7C0000
007E7E0000
003E3E0000
001F1E0000
000F0F0000
0007870000
0000000000
0003FE0000
001FFFC000
007FFFF000
01FFFFFC00
03FE03FE00
07F0007F00
0FE0003F80
1FC0001F80
1F80000FC0
3F000007E0
3E000003E0
7E000003F0
7C000001F0
7C000001F0
7C000001F0
F8000000F8
F8000000F8
F8000000F8
F8000000F8
F8000000F8
F8000000F8
F8000000F8
F8000000F8
F8000000F8
F8000000F8
7C000001F0
7C000001F0
7C000001F0
7E000003F0
3E000003E0
3F000007E0
1F80000FC0
1FC0001F80
0FE0003F80
07F0007F00
03FE03FE00
01FFFFFC00
007FFFF000
001FFFC000
0003FE0000
ENDCHAR
STARTCHAR 020D
ENCODING 525
SWIDTH 538 0
DWIDTH 28 0
BBX 25 39 2 0
BITMAP
7E3E0000
3E3F0000
1F1F0000
0F0F0000
0F8F8000
07878000
03C38000
01C3C000
00000000
00000000
007F0000
03FFE000
07FFF000
0FFFF800
1FC1FC00
3F007E00
3E003E00
7E003F00
7C001F00
7C001F00
F8000F80
F8000F80
F8000F80
F8000F80
F8000F80
F8000F80
F8000F80
F8000F80
F8000F80
7C001F00
7C001F00
7E003F00
3E003E00
3F007E00
1FC1FC00
0FFFF800
07FFF000
03FFE000
007F0000
ENDCHAR
STARTCHAR 020E
ENCODING 526
SWIDTH 788 0
DWIDTH 41 0
BBX 37 48 2 -1
BITMAP
0000F80000
0007FE0000
000FFF0000
000FFF8000
001F078000
001E03C000
001C01C000
0000000000
0003FE0000
001FFFC000
007FFFF000
01FFFFFC00
03FE03FE00
07F0007F00
0FE0003F80
1FC0001F80
1F80000FC0
3F000007E0
3E000003E0
7E000003F0
7C000001F0
7C000001F0
7C000001F0
F8000000F8
F8000000F8
F8000000F8
F8000000F8
F8000000F8
F8000000F8
F8000000F8
F8000000F8
F8000000F8
F8000000F8
7C000001F0
7C000001F0
7C000001F0
7E000003F0
3E000003E0
3F000007E0
1F80000FC0
1FC0001F80
0FE0003F80
07F0007F00
03FE03FE00
01FFFFFC00
007FFFF000
001FFFC000
0003FE0000
ENDCHAR
STARTCHAR 020F
ENCODING 527
SWIDTH 538 0
DWIDTH 28 0
BBX 25 38 2 0
BITMAP
007F0000
01FFC000
03FFE000
03FFE000
0781F000
0700F000
07007000
00000000
00000000
007F0000
03FFE000
07FFF000
0FFFF800
1FC1FC00
3F007E00
3E003E00
7E003F00
7C001F00
7C001F00
F8000F80
F8000F80
F8000F80
F8000F80
F8000F80
F8000F80
F8000F80
F8000F80
F8000F80
7C001F00
7C001F00
7E003F00
3E003E00
3F007E00
1FC1FC00
0FFFF800
07FFF000
03FFE000
007F0000
ENDCHAR
STARTCHAR 0210
ENCODING 528
SWIDTH 711 0
DWIDTH 37 0
BBX 30 47 4 0
BITMAP
3F9F8000
1F8F8000
0FCFC000
07C7C000
03E3C000
01E1E000
00F0E000
00000000
00000000
FFFFFC00
FFFFFF00
FFFFFFC0
FFFFFFE0
F8000FF0
F80003F0
F80001F8
F80000F8
F80000F8
F80000F8
F80000F8
F80000F8
F80000F8
F80000F0
F80001F0
F80003E0
F8000FE0
FFFFFFC0
FFFFFF00
FFFFFF80
FFFFFFC0
F80007E0
F80003F0
F80001F0
F80001F8
F80000F8
F80000F8
F80000F8
F80000F8
F80000F8
F80000F8
F80000F8
F80000F8
F80000F8
F80000F8
F80000F8
F80000FC
F800007C
ENDCHAR
STARTCHAR 0211
ENCODING 529
SWIDTH 326 0
DWIDTH 17 0
BBX 17 38 0 1
BITMAP
F8FC00
7C7C00
7C3E00
3E3E00
1E1E00
0F0F00
070F00
038700
000000
000000
000780
1E1F80
1E3F80
1E7F80
1EF800
1FE000
1FC000
1F8000
1F8000
1F0000
1F0000
1F0000
1F0000
1F0000
1F0000
1F0000
1F0000
1F0000
1F0000
1F0000
1F0000
1F0000
1F0000
1F0000
1F0000
1F0000
1F0000
1F0000
ENDCHAR
STARTCHAR 0212
ENCODING 530
SWIDTH 711 0
DWIDTH 37 0
BBX 30 47 4 0
BITMAP
000F8000
007FE000
00FFF000
00FFF800
01F07800
01E03C00
01C01C00
00000000
00000000
FFFFFC00
FFFFFF00
FFFFFFC0
FFFFFFE0
F8000FF0
F80003F0
F80001F8
F80000F8
F80000F8
F80000F8
F80000F8
F80000F8
F80000F8
F80000F0
F80001F0
F80003E0
F8000FE0
FFFFFFC0
FFFFFF00
FFFFFF80
FFFFFFC0
F80007E0
F80003F0
F80001F0
F80001F8
F80000F8
F80000F8
F80000F8
F80000F8
F80000F8
F80000F8
F80000F8
F80000F8
F80000F8
F80000F8
F80000F8
F80000FC
F800007C
ENDCHAR
STARTCHAR 0213
ENCODING 531
SWIDTH 326 0
DWIDTH 17 0
BBX 15 37 3 1
BITMAP
0FE0
3FF8
7FF8
7FFC
F03C
E01E
E00E
0000
0000
003C
F0FC
F1FC
F3FC
F7C0
FF00
FE00
FC00
FC00
F800
F800
F800
F800
F800
F800
F800
F800
F800
F800
F800
F800
F800
F800
F800
F800
F800
F800
F800
ENDCHAR
STARTCHAR 0214
ENCODING 532
SWIDTH 711 0
DWIDTH 37 0
BBX 29 48 4 -1
BITMAP
1FCFC000
0FC7C000
07E7E000
03E3E000
01F1E000
00F0F000
00787000
00000000
00000000
F80000F8
F80000F8
F80000F8
F80000F8
F80000F8
F80000F8
F80000F8
F80000F8
F80000F8
F80000F8
F80000F8
F80000F8
F80000F8
F80000F8
F80000F8
F80000F8
F80000F8
F80000F8
F80000F8
F80000F8
F80000F8
F80000F8
F80000F8
F80000F8
F80000F8
F80000F8
F80000F8
F80000F8
F80000F8
F80000F8
7C0001F0
7C0001F0
7E0003F0
3F0007E0
1FE03FC0
0FFFFF80
07FFFF00
01FFFC00
003FE000
ENDCHAR
STARTCHAR 0215
ENCODING 533
SWIDTH 538 0
DWIDTH 28 0
BBX 22 39 3 0
BITMAP
3F1F00
1F1F80
0F8F80
078780
07C7C0
03C3C0
01E1C0
00E0E0
000000
000000
000000
F8007C
F8007C
F8007C
F8007C
F8007C
F8007C
F8007C
F8007C
F8007C
F8007C
F8007C
F8007C
F8007C
F8007C
F8007C
F8007C
F8007C
F8007C
F8007C
F800FC
F800FC
FC01FC
FC03FC
7F07FC
7FFFBC
3FFF3C
1FFE3C
07F000
ENDCHAR
STARTCHAR 0216
ENCODING 534
SWIDTH 711 0
DWIDTH 37 0
BBX 29 48 4 -1
BITMAP
0007C000
003FF000
007FF800
007FFC00
00F87C00
00E01C00
00E01E00
00000000
00000000
F80000F8
F80000F8
F80000F8
F80000F8
F80000F8
F80000F8
F80000F8
F80000F8
F80000F8
F80000F8
F80000F8
F80000F8
F80000F8
F80000F8
F80000F8
F80000F8
F80000F8
F80000F8
F80000F8
F80000F8
F80000F8
F80000F8
F80000F8
F80000F8
F80000F8
F80000F8
F80000F8
F80000F8
F80000F8
F80000F8
7C0001F0
7C0001F0
7E0003F0
3F0007E0
1FE03FC0
0FFFFF80
07FFFF00
01FFFC00
003FE000
ENDCHAR
STARTCHAR 0217
ENCODING 535
SWIDTH 538 0
DWIDTH 28 0
BBX 22 38 3 0
BITMAP
00FE00
03FF80
07FFC0
07FFC0
0F03C0
0E01E0
0E00E0
000000
000000
000000
F8007C
F8007C
F8007C
F8007C
F8007C
F8007C
F8007C
F8007C
F8007C
F8007C
F8007C
F8007C
F8007C
F8007C
F8007C
F8007C
F8007C
F8007C
F8007C
F800FC
F800FC
FC01FC
FC03FC
7F07FC
7FFFBC
3FFF3C
1FFE3C
07F000
ENDCHAR
STARTCHAR 0218
ENCODING 536
SWIDTH 673 0
DWIDTH 35 0
BBX 29 55 3 -16
BITMAP
003FE000
01FFFC00
07FFFF00
0FFFFF80
1FE03FC0
3F800FE0
3F0007E0
3E0003E0
7C0001F0
7C0001F0
7C0001F0
7C000000
7C000000
7E000000
7E000000
3F800000
3FE00000
1FFE0000
0FFFE000
03FFFC00
00FFFF00
000FFFC0
0000FFE0
00001FF0
000007F0
000003F8
000001F8
F80000F8
F80000F8
F80000F8
FC0000F8
7C0000F8
7E0001F0
7E0003F0
3F8007E0
1FE01FE0
0FFFFFC0
07FFFF00
01FFFC00
003FE000
00000000
00000000
00000000
000F8000
000F8000
000F8000
000F8000
000F8000
00018000
00018000
00018000
00038000
00030000
000F0000
000C0000
ENDCHAR
STARTCHAR 0219
ENCODING 537
SWIDTH 500 0
DWIDTH 26 0
BBX 23 44 1 -16
BITMAP
00FF00
07FFC0
0FFFF0
1FFFF8
3F81F8
7E00FC
7C007C
7C007C
7C0000
7C0000
7E0000
3F8000
3FF000
1FFF00
07FFE0
00FFF8
000FFC
0001FC
00007E
00003E
F8003E
F8003E
FC003E
7E007C
7F01FC
3FFFF8
1FFFF0
0FFFE0
01FF00
000000
000000
000000
007C00
007C00
007C00
007C00
007C00
000C00
000C00
000C00
001C00
001800
007800
006000
ENDCHAR
STARTCHAR 021A
ENCODING 538
SWIDTH 634 0
DWIDTH 33 0
BBX 29 54 2 -16
BITMAP
FFFFFFF8
FFFFFFF8
FFFFFFF8
FFFFFFF8
000F8000
000F8000
000F8000
000F8000
000F8000
000F8000
000F8000
000F8000
000F8000
000F8000
000F8000
000F8000
000F8000
000F8000
000F8000
000F8000
000F8000
000F8000
000F8000
000F8000
000F8000
000F8000
000F8000
000F8000
000F8000
000F8000
000F8000
000F8000
000F8000
000F8000
000F8000
000F8000
000F8000
000F8000
00000000
00000000
00000000
00000000
001F0000
001F0000
001F0000
001F0000
001F0000
00030000
00030000
00030000
00070000
00060000
001E0000
00180000
ENDCHAR
STARTCHAR 021B
ENCODING 539
SWIDTH 288 0
DWIDTH 15 0
BBX 11 50 2 -16
BITMAP
1F00
1F00
1F00
1F00
1F00
1F00
1F00
FFE0
FFE0
FFE0
FFE0
1F00
1F00
1F00
1F00
1F00
1F00
1F00
1F00
1F00
1F00
1F00
1F00
1F00
1F00
1F00
1F00
1F00
1F00
1F00
1F00
1FE0
1FE0
0FE0
07E0
0000
0000
0000
1F00
1F00
1F00
1F00
1F00
0300
0300
0300
0700
0600
1E00
1800
ENDCHAR
ENDFONT
